SplineFontDB: 3.2
FontName: esportIcons
FullName: esportIcons
FamilyName: esportIcons
Weight: Book
Copyright: Copyright (c) 2023, kanan
Version: 001.000
ItalicAngle: 0
UnderlinePosition: -98
UnderlineWidth: 51
Ascent: 1024
Descent: 0
InvalidEm: 0
sfntRevision: 0x00010000
LayerCount: 2
Layer: 0 1 "Back" 1
Layer: 1 1 "Fore" 0
XUID: [1021 505 1586014403 589]
StyleMap: 0x0000
FSType: 0
OS2Version: 4
OS2_WeightWidthSlopeOnly: 0
OS2_UseTypoMetrics: 1
CreationTime: 1701143167
ModificationTime: 1702365573
PfmFamily: 17
TTFWeight: 400
TTFWidth: 5
LineGap: 92
VLineGap: 0
Panose: 2 0 5 9 0 0 0 0 0 0
OS2TypoAscent: 1024
OS2TypoAOffset: 0
OS2TypoDescent: 0
OS2TypoDOffset: 0
OS2TypoLinegap: 92
OS2WinAscent: 977
OS2WinAOffset: 0
OS2WinDescent: 0
OS2WinDOffset: 0
HheadAscent: 977
HheadAOffset: 0
HheadDescent: 0
HheadDOffset: 0
OS2SubXSize: 665
OS2SubYSize: 716
OS2SubXOff: 0
OS2SubYOff: 143
OS2SupXSize: 665
OS2SupYSize: 716
OS2SupXOff: 0
OS2SupYOff: 491
OS2StrikeYSize: 51
OS2StrikeYPos: 265
OS2Vendor: 'PfEd'
OS2CodePages: 00000001.00000000
OS2UnicodeRanges: 00000000.10000000.00000000.00000000
MarkAttachClasses: 1
DEI: 91125
ShortTable: cvt  2
  34
  648
EndShort
ShortTable: maxp 16
  1
  0
  3
  8
  2
  0
  0
  2
  0
  1
  1
  0
  64
  46
  0
  0
EndShort
LangName: 1033 "" "" "Regular" "FontForge 2.0 : esportIcons : 29-11-2023" "" "Version 001.000"
GaspTable: 1 65535 2 0
Encoding: UnicodeBmp
UnicodeInterp: none
NameList: AGL For New Fonts
DisplaySize: -48
AntiAlias: 1
FitToEm: 0
BeginChars: 65539 82

StartChar: .notdef
Encoding: 65536 -1 0
Width: 1024
GlyphClass: 1
Flags: W
LayerCount: 2
Fore
SplineSet
34 0 m 1,0,-1
 34 682 l 1,1,-1
 306 682 l 1,2,-1
 306 0 l 1,3,-1
 34 0 l 1,0,-1
68 34 m 1,4,-1
 272 34 l 1,5,-1
 272 648 l 1,6,-1
 68 648 l 1,7,-1
 68 34 l 1,4,-1
EndSplineSet
EndChar

StartChar: uniE000
Encoding: 57344 57344 3
Width: 1024
Flags: H
LayerCount: 2
Fore
SplineSet
299.51953125 885.120117188 m 2
 554.240234375 885.120117188 l 2
 617.303095696 884.135300313 617.303095696 884.135300313 660.48046875 839.040039062 c 0
 670.962115878 827.902601709 670.962115878 827.902601709 684.799804688 805.759765625 c 2
 687.360351562 801.280273438 l 2
 702.953427289 776.776625936 702.953427289 776.776625936 713.599609375 757.120117188 c 1
 764.09015267 754.207343687 764.09015267 754.207343687 802.559570312 725.120117188 c 1
 803.200195312 724.48046875 l 1
 803.83984375 723.83984375 l 2
 810.235356028 718.724604909 810.235356028 718.724604909 815.360351562 713.599609375 c 2
 819.83984375 709.120117188 l 1
 820.48046875 708.48046875 l 1
 821.120117188 707.83984375 l 1
 821.120117188 707.83984375 l 1
 835.845002115 692.296077463 835.845002115 692.296077463 848.639648438 671.360351562 c 2
 851.83984375 666.240234375 l 2
 880.402441267 622.935197521 880.402441267 622.935197521 906.879882812 567.040039062 c 0
 932.763079153 512.285663097 932.763079153 512.285663097 948.48046875 461.440429688 c 0
 956.482072644 438.232969957 956.482072644 438.232969957 963.200195312 405.759765625 c 1
 963.200195312 405.120117188 l 2
 963.840332031 401.600097656 963.840332031 401.600097656 965.120117188 393.919921875 c 0
 966.399902344 386.239746094 966.399902344 386.239746094 967.040039062 382.719726562 c 0
 967.359619001 381.440918901 967.359619001 381.440918901 967.679687546 378.880858819 c 0
 967.999756092 376.320798736 967.999756092 376.320798736 968.3203125 375.040039062 c 2
 968.3203125 374.400390625 l 1
 969.599609375 366.080078125 l 2
 972.502766811 347.213983714 972.502766811 347.213983714 970.240234375 315.51953125 c 0
 968.280423676 264.576412257 968.280423676 264.576412257 941.440429688 228.48046875 c 0
 916.968337027 196.87009895 916.968337027 196.87009895 880.639648438 186.879882812 c 0
 856.500617617 179.83984375 856.500617617 179.83984375 833.280273438 179.83984375 c 0
 821.759765625 179.83984375 821.759765625 179.83984375 803.83984375 182.400390625 c 0
 772.016440217 188.016117341 772.016440217 188.016117341 743.040039062 208 c 1
 743.040039062 208 l 1
 724.407352352 221.043165007 724.407352352 221.043165007 692.48046875 251.51953125 c 2
 688.639648438 255.360351562 l 1
 688 256 l 1
 674.559570312 269.440429688 l 2
 650.06262383 295.052032263 650.06262383 295.052032263 631.6796875 307.83984375 c 0
 608.935307381 325.125794753 608.935307381 325.125794753 590.719726562 328.959960938 c 2
 590.080078125 328.959960938 l 2
 580.694553007 331.51953125 580.694553007 331.51953125 564.48046875 331.51953125 c 2
 562.559570312 331.51953125 l 1
 555.51953125 331.51953125 l 1
 555.51953125 331.51953125 l 1
 555.51953125 331.51953125 l 1
 534.400390625 331.51953125 l 2
 514.650759324 331.51953125 514.650759324 331.51953125 494.080078125 320 c 0
 473.250238367 308.84156268 473.250238367 308.84156268 445.440429688 282.240234375 c 1
 444.16015625 281.599609375 l 1
 443.51953125 280.959960938 l 1
 439.6796875 277.120117188 l 1
 439.6796875 277.120117188 l 1
 433.94180217 271.377851792 433.94180217 271.377851792 433.919921875 271.360351562 c 2
 433.280273438 270.719726562 l 2
 399.22601201 238.288628362 399.22601201 238.288628362 389.759765625 230.400390625 c 0
 349.824490264 197.453102907 349.824490264 197.453102907 309.759765625 189.440429688 c 1
 309.120117188 189.440429688 l 1
 308.48046875 189.440429688 l 1
 282.318557742 184.595412317 282.318557742 184.595412317 256 187.51953125 c 2
 255.360351562 187.51953125 l 1
 252.799804688 187.51953125 l 1
 227.592890965 192.563478279 227.592890965 192.563478279 216.959960938 197.120117188 c 0
 182.12317864 210.301718869 182.12317864 210.301718869 160.639648438 244.48046875 c 0
 149.186140691 261.997416823 149.186140691 261.997416823 142.080078125 291.83984375 c 0
 139.519670607 307.198382821 139.519670607 307.198382821 138.879882812 315.51953125 c 2
 138.879882812 325.120117188 l 2
 138.183796496 337.656047254 138.183796496 337.656047254 139.51953125 359.040039062 c 2
 139.51953125 359.6796875 l 2
 139.51953125 361.919799805 139.51953125 361.919799805 139.83984375 364.799926758 c 0
 140.16015625 367.680053711 140.16015625 367.680053711 140.16015625 369.280273438 c 1
 138.240234375 369.280273438 138.240234375 369.280273438 135.6796875 370.559570312 c 2
 135.040039062 370.559570312 l 2
 134.720214844 370.559570312 134.720214844 370.559570312 134.080078125 370.879882812 c 0
 133.439941406 371.200195312 133.439941406 371.200195312 133.120117188 371.200195312 c 2
 131.83984375 371.83984375 l 2
 128.00292671 373.120117188 128.00292671 373.120117188 126.719726562 373.120117188 c 2
 125.440429688 373.759765625 l 2
 91.7361842687 388.014909849 91.7361842687 388.014909849 73.599609375 418.559570312 c 0
 61.5991103458 436.161116091 61.5991103458 436.161116091 57.599609375 460.16015625 c 0
 52.194955567 481.178559843 52.194955567 481.178559843 53.759765625 520.3203125 c 2
 53.759765625 521.599609375 l 2
 54.8155400403 545.444739742 54.8155400403 545.444739742 60.7998046875 570.240234375 c 0
 67.1479092894 600.164048286 67.1479092894 600.164048286 77.4404296875 631.040039062 c 0
 89.9849218392 668.673515518 89.9849218392 668.673515518 109.440429688 711.6796875 c 0
 128.186678263 751.149039874 128.186678263 751.149039874 148.48046875 785.280273438 c 0
 164.078680887 812.878800441 164.078680887 812.878800441 184.3203125 838.400390625 c 2
 184.959960938 839.040039062 l 1
 185.599609375 839.6796875 l 2
 201.722507305 858.489507303 201.722507305 858.489507303 229.120117188 871.6796875 c 0
 260.76569713 886.064840153 260.76569713 886.064840153 299.51953125 885.120117188 c 2
633.599609375 766.719726562 m 2
 629.120117188 772.48046875 l 2
 619.520996094 788.479003906 619.520996094 788.479003906 612.48046875 795.51953125 c 0
 589.079551108 820.792922221 589.079551108 820.792922221 552.3203125 821.759765625 c 2
 298.240234375 821.759765625 l 2
 273.681366211 821.759765625 273.681366211 821.759765625 256 813.440429688 c 0
 239.812758524 804.869517071 239.812758524 804.869517071 234.240234375 797.440429688 c 0
 221.016957977 780.737176036 221.016957977 780.737176036 204.16015625 752.639648438 c 0
 186.718901676 724.402633657 186.718901676 724.402633657 168.3203125 685.440429688 c 0
 152.704129722 651.606911367 152.704129722 651.606911367 138.879882812 611.200195312 c 0
 130.240234375 584.3203125 130.240234375 584.3203125 123.51953125 557.440429688 c 0
 118.575115951 533.061781541 118.575115951 533.061781541 117.759765625 518.400390625 c 0
 116.621261365 486.504889599 116.621261365 486.504889599 119.6796875 474.879882812 c 2
 119.6796875 474.240234375 l 2
 123.155300953 458.539207032 123.155300953 458.539207032 128.639648438 449.919921875 c 0
 135.896476556 438.12740317 135.896476556 438.12740317 146.559570312 433.280273438 c 1
 148.48046875 433.280273438 l 1
 152.3203125 432 l 1
 156.708346672 450.284219704 156.708346672 450.284219704 166.400390625 479.360351562 c 0
 182.191424571 524.762021503 182.191424571 524.762021503 202.879882812 568.959960938 c 0
 223.024749895 611.264642897 223.024749895 611.264642897 246.400390625 649.599609375 c 0
 268.253843907 684.567357766 268.253843907 684.567357766 288 707.83984375 c 0
 304.595878087 727.928959587 304.595878087 727.928959587 336.639648438 742.400390625 c 0
 371.766924045 758.988063983 371.766924045 758.988063983 414.719726562 757.120117188 c 2
 640 757.120117188 l 1
 637.43417754 760.328129473 637.43417754 760.328129473 633.599609375 766.719726562 c 2
288 707.83984375 m 1
 312.3203125 687.360351562 l 1
 288 707.83984375 l 1
362.879882812 684.16015625 m 0
 343.850469625 675.509943042 343.850469625 675.509943042 336.639648438 666.240234375 c 0
 322.124510349 649.830896286 322.124510349 649.830896286 300.799804688 616.3203125 c 0
 278.720214844 579.83984375 278.720214844 579.83984375 260.48046875 541.440429688 c 0
 239.148028396 495.57763585 239.148028396 495.57763585 227.200195312 458.879882812 c 0
 214.402448125 419.209600258 214.402448125 419.209600258 209.919921875 398.719726562 c 1
 209.919921875 398.080078125 l 1
 204.48741914 374.538772401 204.48741914 374.538772401 203.51953125 355.200195312 c 0
 202.879882812 344.959960938 202.879882812 344.959960938 202.879882812 327.040039062 c 2
 202.879882812 326.400390625 l 1
 202.879882812 325.120117188 l 1
 202.879882812 321.919921875 l 2
 204.016241104 311.687492557 204.016241104 311.687492557 205.440429688 305.280273438 c 0
 208.418137182 290.390221361 208.418137182 290.390221361 215.040039062 279.040039062 c 0
 223.916717399 263.950769404 223.916717399 263.950769404 240 257.919921875 c 0
 249.763716566 254.370095114 249.763716566 254.370095114 264.959960938 251.51953125 c 0
 280.154127351 249.350118934 280.154127351 249.350118934 295.6796875 252.799804688 c 0
 319.236859552 257.511526661 319.236859552 257.511526661 347.51953125 280.3203125 c 0
 365.446933984 295.685541204 365.446933984 295.685541204 387.83984375 318.080078125 c 0
 388.266963295 318.506546573 388.266963295 318.506546573 389.120189507 319.360206923 c 0
 389.546585636 319.786820011 389.546585636 319.786820011 389.759765625 320 c 0
 396.174821092 326.412608841 396.174821092 326.412608841 400 329.599609375 c 0
 434.146184327 362.323850111 434.146184327 362.323850111 462.719726562 376.959960938 c 0
 499.706987302 396.426393097 499.706987302 396.426393097 535.040039062 395.51953125 c 2
 535.6796875 395.51953125 l 1
 551.040039062 395.51953125 l 1
 551.040039062 395.51953125 l 1
 551.040039062 395.51953125 l 1
 551.040039062 395.51953125 l 1
 551.040039062 395.51953125 l 1
 561.919921875 395.51953125 l 1
 564.48046875 395.51953125 l 2
 584.004637741 395.51953125 584.004637741 395.51953125 604.16015625 391.6796875 c 0
 637.759277344 383.999511719 637.759277344 383.999511719 667.51953125 362.879882812 c 0
 691.525937153 345.843688477 691.525937153 345.843688477 719.360351562 316.799804688 c 2
 732.16015625 304 l 1
 735.360351562 300.799804688 l 2
 765.012098497 272.436579895 765.012098497 272.436579895 777.599609375 263.6796875 c 0
 798.392452826 250.448009135 798.392452826 250.448009135 814.080078125 247.6796875 c 2
 814.719726562 247.6796875 l 2
 824.325198294 245.759765625 824.325198294 245.759765625 832.639648438 245.759765625 c 0
 847.743125024 245.759765625 847.743125024 245.759765625 862.080078125 250.240234375 c 1
 862.719726562 250.240234375 l 1
 879.269782841 254.837550169 879.269782841 254.837550169 890.240234375 268.799804688 c 0
 904.468162698 288.109468281 904.468162698 288.109468281 906.240234375 320 c 2
 906.240234375 320.639648438 l 2
 908.081214425 343.383276666 908.081214425 343.383276666 906.240234375 359.040039062 c 2
 906.240234375 359.6796875 l 1
 905.599609375 367.360351562 l 2
 904.3203125 375.040039062 904.3203125 375.040039062 904.3203125 378.240234375 c 1
 904.3203125 378.240234375 l 1
 903.294530296 387.462892055 903.294530296 387.462892055 901.759765625 393.599609375 c 0
 895.010965478 423.970926415 895.010965478 423.970926415 888.959960938 442.879882812 c 1
 888.959960938 443.51953125 l 1
 875.07286649 490.452354711 875.07286649 490.452354711 850.559570312 541.440429688 c 0
 824.923440214 594.685162832 824.923440214 594.685162832 800 632.959960938 c 2
 796.16015625 638.719726562 l 2
 785.789921947 655.311468538 785.789921947 655.311468538 777.599609375 664.3203125 c 2
 776.3203125 665.599609375 l 1
 773.759765625 667.51953125 l 2
 771.844231028 669.435796688 771.844231028 669.435796688 764.16015625 675.83984375 c 0
 739.73869785 694.400390625 739.73869785 694.400390625 705.280273438 694.400390625 c 2
 413.440429688 694.400390625 l 2
 383.315918079 693.448361209 383.315918079 693.448361209 362.879882812 684.16015625 c 0
399.360351562 612.48046875 m 2
 426.879882812 584.959960938 l 1
 454.400390625 612.48046875 l 2
 460.639892578 618.719970703 460.639892578 618.719970703 469.440063477 618.719970703 c 0
 478.240234375 618.719970703 478.240234375 618.719970703 484.48046875 612.48046875 c 0
 490.719970703 606.240234375 490.719970703 606.240234375 490.719970703 597.440063477 c 0
 490.719970703 588.639892578 490.719970703 588.639892578 484.48046875 582.400390625 c 2
 456.959960938 554.879882812 l 1
 484.48046875 526.719726562 l 2
 490.719970703 520.480224609 490.719970703 520.480224609 490.719970703 511.680053711 c 0
 490.719970703 502.879882812 490.719970703 502.879882812 484.48046875 496.639648438 c 0
 478.240234375 490.400146484 478.240234375 490.400146484 469.440063477 490.400146484 c 0
 460.639892578 490.400146484 460.639892578 490.400146484 454.400390625 496.639648438 c 2
 426.879882812 524.799804688 l 1
 398.719726562 497.280273438 l 2
 392.480224609 491.040039062 392.480224609 491.040039062 383.680053711 491.040039062 c 0
 374.879882812 491.040039062 374.879882812 491.040039062 368.639648438 497.280273438 c 0
 362.400146484 503.519775391 362.400146484 503.519775391 362.400146484 512.319946289 c 0
 362.400146484 521.120117188 362.400146484 521.120117188 368.639648438 527.360351562 c 2
 396.799804688 554.879882812 l 1
 369.280273438 582.400390625 l 2
 363.040039062 588.639892578 363.040039062 588.639892578 363.040039062 597.440063477 c 0
 363.040039062 606.240234375 363.040039062 606.240234375 369.280273438 612.48046875 c 0
 375.519775391 618.719970703 375.519775391 618.719970703 384.319946289 618.719970703 c 0
 393.120117188 618.719970703 393.120117188 618.719970703 399.360351562 612.48046875 c 2
661.120117188 545.280273438 m 0
 661.120117188 532.42979861 661.120117188 532.42979861 670.184453703 523.494684461 c 0
 679.248790219 514.559570312 679.248790219 514.559570312 691.83984375 514.559570312 c 0
 704.799953296 514.559570312 704.799953296 514.559570312 713.679761804 523.439771568 c 0
 722.559570312 532.319972823 722.559570312 532.319972823 722.559570312 545.280273438 c 0
 722.559570312 558.239915932 722.559570312 558.239915932 713.679724653 567.119957966 c 0
 704.799878993 576 704.799878993 576 691.83984375 576 c 0
 678.879808507 576 678.879808507 576 669.999962847 567.119957966 c 0
 661.120117188 558.239915932 661.120117188 558.239915932 661.120117188 545.280273438 c 0
691.83984375 618.879882812 m 0
 722.55990858 618.879882812 722.55990858 618.879882812 744.000169134 597.440016414 c 0
 765.440429688 576.000150015 765.440429688 576.000150015 765.440429688 545.280273438 c 0
 765.440429688 514.560302734 765.440429688 514.560302734 744.00012207 493.119995117 c 0
 722.559814453 471.6796875 722.559814453 471.6796875 691.83984375 471.6796875 c 0
 661.119967172 471.6796875 661.119967172 471.6796875 639.680100774 493.119948054 c 0
 618.240234375 514.560208607 618.240234375 514.560208607 618.240234375 545.280273438 c 0
 618.240234375 575.890124481 618.240234375 575.890124481 639.864530539 597.385003647 c 0
 661.488826704 618.879882812 661.488826704 618.879882812 691.83984375 618.879882812 c 0
EndSplineSet
EndChar

StartChar: uniE001
Encoding: 57345 57345 4
Width: 1024
Flags: H
LayerCount: 2
Fore
SplineSet
374.400390625 854.400390625 m 0
 384.000244141 844.799804688 384.000244141 844.799804688 384.000244141 831.67980957 c 0
 384.000244141 818.559814453 384.000244141 818.559814453 374.400390625 808.959960938 c 2
 301.440429688 736 l 1
 864 736 l 2
 877 736 877 736 886.5 726.5 c 0
 896 717 896 717 896 704 c 0
 896 691 896 691 886.5 681.5 c 0
 877 672 877 672 864 672 c 2
 301.440429688 672 l 1
 375.040039062 598.400390625 l 2
 384.639892578 588.799804688 384.639892578 588.799804688 384.639892578 575.67980957 c 0
 384.639892578 562.559814453 384.639892578 562.559814453 375.040039062 552.959960938 c 0
 365.440185547 543.360107422 365.440185547 543.360107422 352.32019043 543.360107422 c 0
 339.200195312 543.360107422 339.200195312 543.360107422 329.599609375 552.959960938 c 2
 201.599609375 680.959960938 l 2
 191.999755859 690.559814453 191.999755859 690.559814453 191.999755859 703.67980957 c 0
 191.999755859 716.799804688 191.999755859 716.799804688 201.599609375 726.400390625 c 2
 329.599609375 854.400390625 l 2
 338.719726562 864.000244141 338.719726562 864.000244141 352 864.000244141 c 0
 365.280273438 864.000244141 365.280273438 864.000244141 374.400390625 854.400390625 c 0
681.599609375 470.400390625 m 0
 691.200195312 480.000244141 691.200195312 480.000244141 704.32019043 480.000244141 c 0
 717.440185547 480.000244141 717.440185547 480.000244141 727.040039062 470.400390625 c 2
 855.040039062 342.400390625 l 2
 864.639892578 332.799804688 864.639892578 332.799804688 864.639892578 319.67980957 c 0
 864.639892578 306.559814453 864.639892578 306.559814453 855.040039062 296.959960938 c 2
 727.040039062 168.959960938 l 2
 717.440185547 159.360107422 717.440185547 159.360107422 704.32019043 159.360107422 c 0
 691.200195312 159.360107422 691.200195312 159.360107422 681.599609375 168.959960938 c 0
 671.999755859 178.559814453 671.999755859 178.559814453 671.999755859 191.67980957 c 0
 671.999755859 204.799804688 671.999755859 204.799804688 681.599609375 214.400390625 c 2
 755.200195312 288 l 1
 192 288 l 2
 179 288 179 288 169.5 297.5 c 0
 160 307 160 307 160 320 c 0
 160 333 160 333 169.5 342.5 c 0
 179 352 179 352 192 352 c 2
 754.559570312 352 l 1
 680.959960938 425.599609375 l 2
 671.789203664 434.671617129 671.789203664 434.671617129 671.919799805 448 c 0
 672.050395945 461.328382871 672.050395945 461.328382871 681.599609375 470.400390625 c 0
EndSplineSet
EndChar

StartChar: uniE002
Encoding: 57346 57346 5
Width: 1024
Flags: H
LayerCount: 2
Fore
SplineSet
288 896 m 2
 832 896 l 2
 857.848723217 896 857.848723217 896 877.440429688 877.440429688 c 0
 896 857.848723217 896 857.848723217 896 832 c 2
 896 288 l 2
 896 260.144282462 896 260.144282462 877.440429688 242.559570312 c 0
 857.848723217 224 857.848723217 224 832 224 c 2
 640 224 l 2
 627 224 627 224 617.5 233.5 c 0
 608 243 608 243 608 256 c 0
 608 269 608 269 617.5 278.5 c 0
 627 288 627 288 640 288 c 2
 832 288 l 1
 832 832 l 1
 288 832 l 1
 288 640 l 2
 288 627 288 627 278.5 617.5 c 0
 269 608 269 608 256 608 c 0
 243 608 243 608 233.5 617.5 c 0
 224 627 224 627 224 640 c 2
 224 832 l 2
 224 857.848723217 224 857.848723217 242.559570312 877.440429688 c 0
 262.151276783 896 262.151276783 896 288 896 c 2
471.040039062 470.400390625 m 1
 476.160854373 463.997906164 476.160854373 463.997906164 477.440429688 460.16015625 c 0
 480 455.041015625 480 455.041015625 480 448 c 2
 480 208 l 2
 480 195 480 195 470.5 185.5 c 0
 461 176 461 176 448 176 c 0
 435 176 435 176 425.5 185.5 c 0
 416 195 416 195 416 208 c 2
 416 370.559570312 l 1
 182.400390625 136.959960938 l 2
 172.799804688 127.360107422 172.799804688 127.360107422 159.67980957 127.360107422 c 0
 146.559814453 127.360107422 146.559814453 127.360107422 136.959960938 136.959960938 c 0
 127.360107422 146.559814453 127.360107422 146.559814453 127.360107422 159.67980957 c 0
 127.360107422 172.799804688 127.360107422 172.799804688 136.959960938 182.400390625 c 2
 370.559570312 416 l 1
 208 416 l 2
 195 416 195 416 185.5 425.5 c 0
 176 435 176 435 176 448 c 0
 176 461 176 461 185.5 470.5 c 0
 195 480 195 480 208 480 c 2
 448 480 l 2
 460.372721354 480 460.372721354 480 471.040039062 470.400390625 c 1
EndSplineSet
EndChar

StartChar: uniE003
Encoding: 57347 57347 6
Width: 1024
Flags: H
LayerCount: 2
Fore
SplineSet
886.400390625 886.400390625 m 0
 890.238149848 882.561459925 890.238149848 882.561459925 893.440429688 876.16015625 c 0
 896 871.041015625 896 871.041015625 896 864 c 1
 896 864 l 1
 896 624 l 2
 896 611 896 611 886.5 601.5 c 0
 877 592 877 592 864 592 c 0
 851 592 851 592 841.5 601.5 c 0
 832 611 832 611 832 624 c 2
 832 786.559570312 l 1
 598.400390625 553.599609375 l 2
 588.799804688 543.999755859 588.799804688 543.999755859 575.67980957 543.999755859 c 0
 562.559814453 543.999755859 562.559814453 543.999755859 552.959960938 553.599609375 c 0
 543.360107422 563.200195312 543.360107422 563.200195312 543.360107422 576.32019043 c 0
 543.360107422 589.440185547 543.360107422 589.440185547 552.959960938 599.040039062 c 2
 786.559570312 832 l 1
 624 832 l 2
 611 832 611 832 601.5 841.5 c 0
 592 851 592 851 592 864 c 0
 592 877 592 877 601.5 886.5 c 0
 611 896 611 896 624 896 c 2
 864 896 l 2
 871.041015625 896 871.041015625 896 876.16015625 893.440429688 c 0
 882.442180293 891.345889118 882.442180293 891.345889118 886.400390625 886.400390625 c 0
192 768 m 2
 448 768 l 2
 461 768 461 768 470.5 758.5 c 0
 480 749 480 749 480 736 c 0
 480 723 480 723 470.5 713.5 c 0
 461 704 461 704 448 704 c 2
 192 704 l 1
 192 192 l 1
 704 192 l 1
 704 448 l 2
 704 461 704 461 713.5 470.5 c 0
 723 480 723 480 736 480 c 0
 749 480 749 480 758.5 470.5 c 0
 768 461 768 461 768 448 c 2
 768 192 l 2
 768 164.144282462 768 164.144282462 749.440429688 146.559570312 c 0
 729.848723217 128 729.848723217 128 704 128 c 2
 192 128 l 2
 166.151276783 128 166.151276783 128 146.559570312 146.559570312 c 0
 128 166.151276783 128 166.151276783 128 192 c 2
 128 704 l 2
 128 729.848723217 128 729.848723217 146.559570312 749.440429688 c 0
 166.151276783 768 166.151276783 768 192 768 c 2
EndSplineSet
EndChar

StartChar: uniE004
Encoding: 57348 57348 7
Width: 1024
Flags: H
LayerCount: 2
Fore
SplineSet
544 960 m 2
 544 926.080078125 l 1
 665.969287323 913.595263744 665.969287323 913.595263744 748.664819443 821.012390599 c 0
 831.360351562 728.429517453 831.360351562 728.429517453 831.360351562 604.16015625 c 2
 831.360351562 576.639648438 l 2
 831.360351562 409.920722107 831.360351562 409.920722107 883.200195312 320.639648438 c 0
 891.51953125 305.041885274 891.51953125 305.041885274 891.51953125 288.639648438 c 0
 891.51953125 270.506618868 891.51953125 270.506618868 883.200195312 256.639648438 c 0
 876.159476068 242.559552828 876.159476068 242.559552828 860.16015625 232.959960938 c 0
 845.225368868 224 845.225368868 224 828.16015625 224 c 2
 672 224 l 1
 672 157.439453125 672 157.439453125 625.280273438 110.719726562 c 0
 578.560546875 64 578.560546875 64 512 64 c 0
 446.178566764 64 446.178566764 64 398.719726562 109.440429688 c 0
 352 156.158639474 352 156.158639474 352 222.719726562 c 1
 196.48046875 222.719726562 l 2
 177.67044402 223.765702338 177.67044402 223.765702338 164.48046875 231.6796875 c 0
 150.679035326 239.961109102 150.679035326 239.961109102 141.440429688 255.360351562 c 0
 133.120117188 270.959945664 133.120117188 270.959945664 133.120117188 287.360351562 c 0
 133.120117188 305.49410437 133.120117188 305.49410437 141.440429688 319.360351562 c 0
 193.280273438 408.639227977 193.280273438 408.639227977 193.280273438 575.360351562 c 2
 193.280273438 577.280273438 l 1
 193.280273438 577.919921875 l 1
 193.280273438 579.200195312 l 1
 193.280273438 583.040039062 l 2
 193.628319129 584.781330255 193.628319129 584.781330255 193.955840825 589.205123299 c 0
 194.283362521 593.628916343 194.283362521 593.628916343 194.559570312 595.83984375 c 0
 195.74253186 615.930353806 195.74253186 615.930353806 198.400390625 638.080078125 c 0
 200.937277081 659.221658846 200.937277081 659.221658846 205.440429688 687.360351562 c 0
 212.101977459 719.342287871 212.101977459 719.342287871 216.959960938 730.879882812 c 0
 242.156645427 789.996489177 242.156645427 789.996489177 286.719726562 834.559570312 c 0
 332.480807834 880.320651584 332.480807834 880.320651584 391.040039062 904.3203125 c 0
 436.34395635 922.441264937 436.34395635 922.441264937 480 926.080078125 c 1
 480 960 l 2
 480 973 480 973 489.5 982.5 c 0
 499 992 499 992 512 992 c 0
 525 992 525 992 534.5 982.5 c 0
 544 973 544 973 544 960 c 2
511.360351562 864 m 2
 461.441113289 864 461.441113289 864 415.360351562 844.799804688 c 0
 367.777784578 825.378862843 367.777784578 825.378862843 332.16015625 789.759765625 c 0
 295.459280488 753.058889863 295.459280488 753.058889863 276.48046875 706.559570312 c 0
 272.641392307 697.923844583 272.641392307 697.923844583 268.799804688 675.83984375 c 0
 266.49658218 663.169923068 266.49658218 663.169923068 262.400390625 630.400390625 c 0
 261.305281479 621.638960429 261.305281479 621.638960429 259.829522788 607.702935069 c 0
 258.353764098 593.766909709 258.353764098 593.766909709 257.919921875 590.080078125 c 0
 256.639648438 579.832026777 256.639648438 579.832026777 256.639648438 577.919921875 c 2
 256.639648438 574.719726562 l 2
 256.639648438 393.737650843 256.639648438 393.737650843 195.83984375 288 c 1
 828.16015625 288 l 1
 767.360351562 391.489155248 767.360351562 391.489155248 767.360351562 576 c 2
 767.360351562 604.16015625 l 2
 767.360351562 710.778763488 767.360351562 710.778763488 693.171411463 786.909542127 c 0
 618.982471364 863.040320766 618.982471364 863.040320766 513.919921875 864 c 2
 512.639648438 864 l 1
 511.360351562 864 l 2
416 224 m 1
 416 184.3203125 416 184.3203125 444.16015625 156.16015625 c 0
 472.3203125 128 472.3203125 128 512 128 c 0
 551.6796875 128 551.6796875 128 579.83984375 156.16015625 c 0
 608 184.3203125 608 184.3203125 608 224 c 1
 416 224 l 1
832 928 m 0
 832 968 832 968 860 996 c 0
 888 1024 888 1024 928 1024 c 0
 968 1024 968 1024 996 996 c 0
 1024 968 1024 968 1024 928 c 0
 1024 888 1024 888 996 860 c 0
 968 832 968 832 928 832 c 0
 888 832 888 832 860 860 c 0
 832 888 832 888 832 928 c 0
EndSplineSet
EndChar

StartChar: uniE005
Encoding: 57349 57349 8
Width: 1024
Flags: H
LayerCount: 2
Fore
SplineSet
544 960 m 2
 544 926.080078125 l 1
 665.969287323 913.595263744 665.969287323 913.595263744 748.664819443 821.012390599 c 0
 831.360351562 728.429517453 831.360351562 728.429517453 831.360351562 604.16015625 c 2
 831.360351562 576.639648438 l 2
 831.360351562 409.920722107 831.360351562 409.920722107 883.200195312 320.639648438 c 0
 891.51953125 305.041885274 891.51953125 305.041885274 891.51953125 288.639648438 c 0
 891.51953125 270.506618868 891.51953125 270.506618868 883.200195312 256.639648438 c 0
 876.159476068 242.559552828 876.159476068 242.559552828 860.16015625 232.959960938 c 0
 845.225368868 224 845.225368868 224 828.16015625 224 c 2
 672 224 l 1
 672 157.439453125 672 157.439453125 625.280273438 110.719726562 c 0
 578.560546875 64 578.560546875 64 512 64 c 0
 446.178566764 64 446.178566764 64 398.719726562 109.440429688 c 0
 352 156.158639474 352 156.158639474 352 222.719726562 c 1
 196.48046875 222.719726562 l 2
 177.67044402 223.765702338 177.67044402 223.765702338 164.48046875 231.6796875 c 0
 150.679035326 239.961109102 150.679035326 239.961109102 141.440429688 255.360351562 c 0
 133.120117188 270.959945664 133.120117188 270.959945664 133.120117188 287.360351562 c 0
 133.120117188 305.49410437 133.120117188 305.49410437 141.440429688 319.360351562 c 0
 193.280273438 408.639227977 193.280273438 408.639227977 193.280273438 575.360351562 c 2
 193.280273438 577.280273438 l 1
 193.280273438 577.919921875 l 1
 193.280273438 579.200195312 l 1
 193.280273438 583.040039062 l 2
 193.628319129 584.781330255 193.628319129 584.781330255 193.955840825 589.205123299 c 0
 194.283362521 593.628916343 194.283362521 593.628916343 194.559570312 595.83984375 c 0
 195.74253186 615.930353806 195.74253186 615.930353806 198.400390625 638.080078125 c 0
 200.937277081 659.221658846 200.937277081 659.221658846 205.440429688 687.360351562 c 0
 212.101977459 719.342287871 212.101977459 719.342287871 216.959960938 730.879882812 c 0
 242.156645427 789.996489177 242.156645427 789.996489177 286.719726562 834.559570312 c 0
 332.480807834 880.320651584 332.480807834 880.320651584 391.040039062 904.3203125 c 0
 436.34395635 922.441264937 436.34395635 922.441264937 480 926.080078125 c 1
 480 960 l 2
 480 973 480 973 489.5 982.5 c 0
 499 992 499 992 512 992 c 0
 525 992 525 992 534.5 982.5 c 0
 544 973 544 973 544 960 c 2
511.360351562 864 m 2
 461.441113289 864 461.441113289 864 415.360351562 844.799804688 c 0
 367.777784578 825.378862843 367.777784578 825.378862843 332.16015625 789.759765625 c 0
 295.459280488 753.058889863 295.459280488 753.058889863 276.48046875 706.559570312 c 0
 272.641392307 697.923844583 272.641392307 697.923844583 268.799804688 675.83984375 c 0
 266.49658218 663.169923068 266.49658218 663.169923068 262.400390625 630.400390625 c 0
 261.305281479 621.638960429 261.305281479 621.638960429 259.829522788 607.702935069 c 0
 258.353764098 593.766909709 258.353764098 593.766909709 257.919921875 590.080078125 c 0
 256.639648438 579.832026777 256.639648438 579.832026777 256.639648438 577.919921875 c 2
 256.639648438 574.719726562 l 2
 256.639648438 393.737650843 256.639648438 393.737650843 195.83984375 288 c 1
 828.16015625 288 l 1
 767.360351562 391.489155248 767.360351562 391.489155248 767.360351562 576 c 2
 767.360351562 604.16015625 l 2
 767.360351562 710.778763488 767.360351562 710.778763488 693.171411463 786.909542127 c 0
 618.982471364 863.040320766 618.982471364 863.040320766 513.919921875 864 c 2
 512.639648438 864 l 1
 511.360351562 864 l 2
416 224 m 1
 416 184.3203125 416 184.3203125 444.16015625 156.16015625 c 0
 472.3203125 128 472.3203125 128 512 128 c 0
 551.6796875 128 551.6796875 128 579.83984375 156.16015625 c 0
 608 184.3203125 608 184.3203125 608 224 c 1
 416 224 l 1
EndSplineSet
EndChar

StartChar: uniE006
Encoding: 57350 57350 9
Width: 1024
Flags: H
LayerCount: 2
Fore
SplineSet
905.599609375 911.360351562 m 2
 920.516475962 911.360351562 920.516475962 911.360351562 931.378809034 899.980651782 c 0
 942.241142105 888.600952001 942.241142105 888.600952001 942.719726562 872.3203125 c 0
 942.719726562 856.5206686 942.719726562 856.5206686 931.939213581 845.220295237 c 0
 921.158700599 833.919921875 921.158700599 833.919921875 906.240234375 833.919921875 c 2
 882.559570312 833.919921875 l 2
 873.599609375 833.919921875 873.599609375 833.919921875 873.599609375 824.959960938 c 2
 873.599609375 165.759765625 l 2
 873.599609375 146.073452691 873.599609375 146.073452691 859.836977637 128.155899726 c 0
 846.074345898 110.238346762 846.074345898 110.238346762 826.879882812 104.959960938 c 1
 826.240234375 104.959960938 l 2
 815.431206597 101.831054688 815.431206597 101.831054688 802.951226128 100.551025391 c 0
 790.47124566 99.2709960938 790.47124566 99.2709960938 783.39577908 99.5554199219 c 2
 776.3203125 99.83984375 l 2
 759.855092114 99.83984375 759.855092114 99.83984375 735.114365914 108.357200425 c 0
 710.373639715 116.874557099 710.373639715 116.874557099 700.799804688 127.360351562 c 0
 689.066107842 140.16015625 689.066107842 140.16015625 671.360351562 140.16015625 c 0
 654.720703125 140.16015625 654.720703125 140.16015625 643.200195312 128.639648438 c 0
 641.919921875 127.361326636 641.919921875 127.361326636 641.919921875 127.360351562 c 0
 619.626688635 103.040039062 619.626688635 103.040039062 588.16015625 103.040039062 c 2
 582.400390625 103.040039062 l 2
 551.541598984 103.040039062 551.541598984 103.040039062 529.919921875 126.719726562 c 0
 518.187716917 139.51953125 518.187716917 139.51953125 500.48046875 139.51953125 c 0
 483.83984375 139.51953125 483.83984375 139.51953125 472.3203125 128 c 0
 471.040039062 126.721678199 471.040039062 126.721678199 471.040039062 126.719726562 c 0
 448.746283623 102.400390625 448.746283623 102.400390625 417.280273438 102.400390625 c 2
 411.51953125 102.400390625 l 2
 380.661716171 102.400390625 380.661716171 102.400390625 359.040039062 126.080078125 c 0
 347.306342217 138.879882812 347.306342217 138.879882812 329.599609375 138.879882812 c 0
 312.959960938 138.879882812 312.959960938 138.879882812 301.440429688 127.360351562 c 0
 300.555417068 126.080078125 300.555417068 126.080078125 300.16015625 126.080078125 c 0
 272.000598441 102.187356721 272.000598441 102.187356721 227.83984375 97.2802734375 c 1
 225.280273438 97.2802734375 l 2
 200.533251802 94.7549413321 200.533251802 94.7549413321 177.938787501 103.617868528 c 0
 155.3443232 112.480795723 155.3443232 112.480795723 143.360351562 131.83984375 c 0
 136.496573172 143.278698702 136.496573172 143.278698702 135.6796875 155.51953125 c 2
 135.6796875 825.599609375 l 2
 135.6796875 834.559570312 135.6796875 834.559570312 126.719726562 834.559570312 c 2
 103.040039062 834.559570312 l 2
 87.751463876 834.559570312 87.751463876 834.559570312 77.1555170943 845.801645074 c 0
 66.5595703125 857.043719835 66.5595703125 857.043719835 66.5595703125 872.959960938 c 0
 66.5595703125 888.759509258 66.5595703125 888.759509258 77.340525273 900.05993041 c 0
 88.1214802336 911.360351562 88.1214802336 911.360351562 103.040039062 911.360351562 c 2
 905.599609375 911.360351562 l 2
793.599609375 231.6796875 m 2
 793.599609375 813.440429688 l 2
 793.599609375 822.080078125 793.599609375 822.080078125 787.6796875 828 c 0
 781.759765625 833.919921875 781.759765625 833.919921875 773.120117188 833.919921875 c 2
 234.879882812 833.919921875 l 2
 226.240234375 833.919921875 226.240234375 833.919921875 220.3203125 828 c 0
 214.400390625 822.080078125 214.400390625 822.080078125 214.400390625 813.440429688 c 2
 214.400390625 231.6796875 l 2
 214.400390625 223.040039062 214.400390625 223.040039062 220.3203125 217.120117188 c 0
 226.240234375 211.200195312 226.240234375 211.200195312 234.879882812 211.200195312 c 2
 773.120117188 211.200195312 l 2
 781.759765625 211.200195312 781.759765625 211.200195312 787.6796875 217.120117188 c 0
 793.599609375 223.040039062 793.599609375 223.040039062 793.599609375 231.6796875 c 2
310.400390625 567.6796875 m 2
 294.139097621 567.6796875 294.139097621 567.6796875 282.429412092 579.649641204 c 0
 270.719726562 591.619594907 270.719726562 591.619594907 270.719726562 608 c 0
 270.719726562 624.319900173 270.719726562 624.319900173 282.399818251 635.999793836 c 0
 294.079909939 647.6796875 294.079909939 647.6796875 310.400390625 647.6796875 c 2
 504.959960938 647.6796875 l 2
 521.591483046 647.6796875 521.591483046 647.6796875 533.115565742 635.767161459 c 0
 544.639648438 623.854635417 544.639648438 623.854635417 544.639648438 607.360351562 c 0
 544.639648438 591.039870877 544.639648438 591.039870877 532.959754774 579.359779188 c 0
 521.27986111 567.6796875 521.27986111 567.6796875 504.959960938 567.6796875 c 2
 310.400390625 567.6796875 l 2
310.400390625 371.200195312 m 2
 294.079909939 371.200195312 294.079909939 371.200195312 282.399818251 382.880088976 c 0
 270.719726562 394.55998264 270.719726562 394.55998264 270.719726562 410.879882812 c 0
 270.719726562 427.199782985 270.719726562 427.199782985 282.399818251 438.879676649 c 0
 294.079909939 450.559570312 294.079909939 450.559570312 310.400390625 450.559570312 c 2
 664.959960938 450.559570312 l 2
 681.279785156 450.559570312 681.279785156 450.559570312 692.959716797 438.879638672 c 0
 704.639648438 427.199707031 704.639648438 427.199707031 704.639648438 410.879882812 c 0
 704.639648438 394.560058594 704.639648438 394.560058594 692.959716797 382.880126953 c 0
 681.279785156 371.200195312 681.279785156 371.200195312 664.959960938 371.200195312 c 2
 310.400390625 371.200195312 l 2
EndSplineSet
EndChar

StartChar: uniE007
Encoding: 57351 57351 10
Width: 1024
Flags: H
LayerCount: 2
Fore
SplineSet
864 864 m 2
 864 160 l 2
 864 134 864 134 845 115 c 0
 826 96 826 96 800 96 c 2
 224 96 l 2
 198 96 198 96 179 115 c 0
 160 134 160 134 160 160 c 2
 160 864 l 2
 160 890 160 890 179 909 c 0
 198 928 198 928 224 928 c 2
 800 928 l 2
 826 928 826 928 845 909 c 0
 864 890 864 890 864 864 c 2
800 864 m 1
 224 864 l 1
 224 160 l 1
 800 160 l 1
 800 864 l 1
320 800 m 2
 704 800 l 2
 717 800 717 800 726.5 790.5 c 0
 736 781 736 781 736 768 c 2
 736 576 l 2
 736 563 736 563 726.5 553.5 c 0
 717 544 717 544 704 544 c 2
 320 544 l 2
 307 544 307 544 297.5 553.5 c 0
 288 563 288 563 288 576 c 2
 288 768 l 2
 288 781 288 781 297.5 790.5 c 0
 307 800 307 800 320 800 c 2
352 608 m 1
 672 608 l 1
 672 736 l 1
 352 736 l 1
 352 608 l 1
352 391.6796875 m 0
 335.261306415 391.6796875 335.261306415 391.6796875 323.790809458 403.408204757 c 0
 312.3203125 415.136722015 312.3203125 415.136722015 312.3203125 432 c 0
 312.3203125 448.863277985 312.3203125 448.863277985 323.790809458 460.591795243 c 0
 335.261306415 472.3203125 335.261306415 472.3203125 352 472.3203125 c 0
 368.575482944 472.3203125 368.575482944 472.3203125 380.127585222 460.118966467 c 0
 391.6796875 447.917620433 391.6796875 447.917620433 391.6796875 431.360351562 c 0
 391.6796875 414.928298352 391.6796875 414.928298352 380.184862919 403.303992926 c 0
 368.690038337 391.6796875 368.690038337 391.6796875 352 391.6796875 c 0
551.6796875 432 m 0
 551.6796875 415.136722015 551.6796875 415.136722015 540.209190542 403.408204757 c 0
 528.738693585 391.6796875 528.738693585 391.6796875 512 391.6796875 c 0
 495.309961663 391.6796875 495.309961663 391.6796875 483.815137081 403.303992926 c 0
 472.3203125 414.928298352 472.3203125 414.928298352 472.3203125 431.360351562 c 0
 472.3203125 447.917620433 472.3203125 447.917620433 483.872414778 460.118966467 c 0
 495.424517056 472.3203125 495.424517056 472.3203125 512 472.3203125 c 0
 528.738693585 472.3203125 528.738693585 472.3203125 540.209190542 460.591795243 c 0
 551.6796875 448.863277985 551.6796875 448.863277985 551.6796875 432 c 0
672 391.6796875 m 0
 655.261306415 391.6796875 655.261306415 391.6796875 643.790809458 403.408204757 c 0
 632.3203125 415.136722015 632.3203125 415.136722015 632.3203125 432 c 0
 632.3203125 448.629552228 632.3203125 448.629552228 643.911930068 459.834795645 c 0
 655.503547635 471.040039062 655.503547635 471.040039062 672 471.040039062 c 0
 688.319824219 471.040039062 688.319824219 471.040039062 699.999755859 459.360107422 c 0
 711.6796875 447.680175781 711.6796875 447.680175781 711.6796875 431.360351562 c 0
 711.6796875 414.928298352 711.6796875 414.928298352 700.184862919 403.303992926 c 0
 688.690038337 391.6796875 688.690038337 391.6796875 672 391.6796875 c 0
391.6796875 272 m 0
 391.6796875 255.310036772 391.6796875 255.310036772 380.055541176 243.815174636 c 0
 368.431394852 232.3203125 368.431394852 232.3203125 352 232.3203125 c 0
 335.680175781 232.3203125 335.680175781 232.3203125 324.000244141 244.000244141 c 0
 312.3203125 255.680175781 312.3203125 255.680175781 312.3203125 272 c 0
 312.3203125 288.319824219 312.3203125 288.319824219 324.000244141 299.999755859 c 0
 335.680175781 311.6796875 335.680175781 311.6796875 352 311.6796875 c 0
 368.431394852 311.6796875 368.431394852 311.6796875 380.055541176 300.184825364 c 0
 391.6796875 288.689963228 391.6796875 288.689963228 391.6796875 272 c 0
512 231.6796875 m 0
 495.424517056 231.6796875 495.424517056 231.6796875 483.872414778 243.881033533 c 0
 472.3203125 256.082379567 472.3203125 256.082379567 472.3203125 272.639648438 c 0
 472.3203125 289.071701648 472.3203125 289.071701648 483.815137081 300.696007074 c 0
 495.309961663 312.3203125 495.309961663 312.3203125 512 312.3203125 c 0
 528.575482944 312.3203125 528.575482944 312.3203125 540.127585222 300.118966467 c 0
 551.6796875 287.917620433 551.6796875 287.917620433 551.6796875 271.360351562 c 0
 551.6796875 254.928298352 551.6796875 254.928298352 540.184862919 243.303992926 c 0
 528.690038337 231.6796875 528.690038337 231.6796875 512 231.6796875 c 0
711.6796875 272 m 0
 711.6796875 255.310036772 711.6796875 255.310036772 700.055541176 243.815174636 c 0
 688.431394852 232.3203125 688.431394852 232.3203125 672 232.3203125 c 0
 655.680175781 232.3203125 655.680175781 232.3203125 644.000244141 244.000244141 c 0
 632.3203125 255.680175781 632.3203125 255.680175781 632.3203125 272 c 0
 632.3203125 288.319824219 632.3203125 288.319824219 644.000244141 299.999755859 c 0
 655.680175781 311.6796875 655.680175781 311.6796875 672 311.6796875 c 0
 688.431394852 311.6796875 688.431394852 311.6796875 700.055541176 300.184825364 c 0
 711.6796875 288.689963228 711.6796875 288.689963228 711.6796875 272 c 0
EndSplineSet
EndChar

StartChar: uniE008
Encoding: 57352 57352 11
Width: 1024
Flags: H
LayerCount: 2
Fore
SplineSet
736 928 m 2
 736 896 l 1
 832 896 l 2
 858 896 858 896 877 877 c 0
 896 858 896 858 896 832 c 2
 896 672 l 1
 896 192 l 2
 896 166 896 166 877 147 c 0
 858 128 858 128 832 128 c 2
 192 128 l 2
 166 128 166 128 147 147 c 0
 128 166 128 166 128 192 c 2
 128 672 l 1
 128 832 l 2
 128 858 128 858 147 877 c 0
 166 896 166 896 192 896 c 2
 288 896 l 1
 288 928 l 2
 288 941 288 941 297.5 950.5 c 0
 307 960 307 960 320 960 c 0
 333 960 333 960 342.5 950.5 c 0
 352 941 352 941 352 928 c 2
 352 896 l 1
 672 896 l 1
 672 928 l 2
 672 941 672 941 681.5 950.5 c 0
 691 960 691 960 704 960 c 0
 717 960 717 960 726.5 950.5 c 0
 736 941 736 941 736 928 c 2
832 832 m 1
 736 832 l 1
 736 800 l 2
 736 787 736 787 726.5 777.5 c 0
 717 768 717 768 704 768 c 0
 691 768 691 768 681.5 777.5 c 0
 672 787 672 787 672 800 c 2
 672 832 l 1
 352 832 l 1
 352 800 l 2
 352 787 352 787 342.5 777.5 c 0
 333 768 333 768 320 768 c 0
 307 768 307 768 297.5 777.5 c 0
 288 787 288 787 288 800 c 2
 288 832 l 1
 192 832 l 1
 192 704 l 1
 832 704 l 1
 832 832 l 1
192 640 m 1
 192 192 l 1
 832 192 l 1
 832 640 l 1
 192 640 l 1
336 512 m 0
 336 525 336 525 345.5 534.5 c 0
 355 544 355 544 368 544 c 2
 480 544 l 2
 500.366616429 544 500.366616429 544 508.799804688 526.080078125 c 0
 517.428170413 507.745418094 517.428170413 507.745418094 504.959960938 492.16015625 c 2
 469.759765625 448 l 1
 485.309643989 437.309643989 485.309643989 437.309643989 496 421.759765625 c 0
 509.049775562 402.185813442 509.049775562 402.185813442 512 377.599609375 c 0
 514.0198417 352.356980535 514.0198417 352.356980535 504.959960938 331.51953125 c 0
 496.448773737 309.768238495 496.448773737 309.768238495 477.440429688 293.759765625 c 0
 460.022300093 279.091719775 460.022300093 279.091719775 435.200195312 273.919921875 c 0
 411.176222272 268.914736571 411.176222272 268.914736571 388.48046875 276.48046875 c 0
 365.892121923 283.067839015 365.892121923 283.067839015 348.16015625 300.799804688 c 0
 338.672773017 310.518044647 338.672773017 310.518044647 338.800170898 323.520019531 c 0
 338.927568779 336.521994415 338.927568779 336.521994415 348.16015625 346.240234375 c 0
 357.878397244 355.727616625 357.878397244 355.727616625 370.879882812 355.600219727 c 0
 383.881368381 355.472822829 383.881368381 355.472822829 393.599609375 346.240234375 c 0
 398.850300024 340.99087876 398.850300024 340.99087876 407.040039062 337.919921875 c 0
 415.999267764 335.6796875 415.999267764 335.6796875 422.400390625 337.280273438 c 0
 431.539639084 339.564213819 431.539639084 339.564213819 436.48046875 343.6796875 c 0
 442.529290965 348.720885465 442.529290965 348.720885465 445.440429688 356.48046875 c 0
 449.144675964 362.037544812 449.144675964 362.037544812 448 371.200195312 c 0
 447.078767327 378.574276082 447.078767327 378.574276082 442.879882812 385.919921875 c 0
 438.467411402 392.097651149 438.467411402 392.097651149 431.360351562 396.16015625 c 0
 423.680175781 399.999511719 423.680175781 399.999511719 416 400 c 0
 395.633383571 400 395.633383571 400 387.200195312 417.919921875 c 0
 378.880275178 436.640138894 378.880275178 436.640138894 391.040039062 451.83984375 c 2
 413.440429688 480 l 1
 368 480 l 2
 355 480 355 480 345.5 489.5 c 0
 336 499 336 499 336 512 c 0
672 512 m 2
 672 304 l 2
 672 291 672 291 662.5 281.5 c 0
 653 272 653 272 640 272 c 0
 627 272 627 272 617.5 281.5 c 0
 608 291 608 291 608 304 c 2
 608 448 l 1
 595.200195312 438.400390625 l 2
 584.584754981 430.311417748 584.584754981 430.311417748 571.600219727 432.239746094 c 0
 558.615684472 434.16807444 558.615684472 434.16807444 550.400390625 444.799804688 c 0
 542.311417748 455.415245019 542.311417748 455.415245019 544.239746094 468.399780273 c 0
 546.16807444 481.384315528 546.16807444 481.384315528 556.799804688 489.599609375 c 2
 620.799804688 537.599609375 l 2
 636.467284535 549.088457124 636.467284535 549.088457124 654.080078125 540.799804688 c 0
 672 531.313071071 672 531.313071071 672 512 c 2
EndSplineSet
EndChar

StartChar: uniE009
Encoding: 57353 57353 12
Width: 1024
Flags: H
LayerCount: 2
Fore
SplineSet
736 928 m 2
 736 896 l 1
 832 896 l 2
 858 896 858 896 877 877 c 0
 896 858 896 858 896 832 c 2
 896 672 l 1
 896 192 l 2
 896 166 896 166 877 147 c 0
 858 128 858 128 832 128 c 2
 192 128 l 2
 166 128 166 128 147 147 c 0
 128 166 128 166 128 192 c 2
 128 672 l 1
 128 832 l 2
 128 858 128 858 147 877 c 0
 166 896 166 896 192 896 c 2
 288 896 l 1
 288 928 l 2
 288 941 288 941 297.5 950.5 c 0
 307 960 307 960 320 960 c 0
 333 960 333 960 342.5 950.5 c 0
 352 941 352 941 352 928 c 2
 352 896 l 1
 672 896 l 1
 672 928 l 2
 672 941 672 941 681.5 950.5 c 0
 691 960 691 960 704 960 c 0
 717 960 717 960 726.5 950.5 c 0
 736 941 736 941 736 928 c 2
832 704 m 1
 832 832 l 1
 736 832 l 1
 736 800 l 2
 736 787 736 787 726.5 777.5 c 0
 717 768 717 768 704 768 c 0
 691 768 691 768 681.5 777.5 c 0
 672 787 672 787 672 800 c 2
 672 832 l 1
 352 832 l 1
 352 800 l 2
 352 787 352 787 342.5 777.5 c 0
 333 768 333 768 320 768 c 0
 307 768 307 768 297.5 777.5 c 0
 288 787 288 787 288 800 c 2
 288 832 l 1
 192 832 l 1
 192 704 l 1
 832 704 l 1
192 640 m 1
 192 192 l 1
 832 192 l 1
 832 640 l 1
 192 640 l 1
EndSplineSet
EndChar

StartChar: uniE00A
Encoding: 57354 57354 13
Width: 1024
Flags: H
LayerCount: 2
Fore
SplineSet
307.83984375 761.599609375 m 2
 512 557.440429688 l 1
 715.51953125 761.599609375 l 2
 725.120117188 771.200195312 725.120117188 771.200195312 738.240112305 771.200195312 c 0
 751.360107422 771.200195312 751.360107422 771.200195312 760.959960938 761.599609375 c 0
 770.559814453 751.999755859 770.559814453 751.999755859 770.559814453 738.879882812 c 0
 770.559814453 725.760009766 770.559814453 725.760009766 760.959960938 716.16015625 c 2
 534.400390625 489.599609375 l 2
 524.799804688 479.999755859 524.799804688 479.999755859 511.67980957 479.999755859 c 0
 498.559814453 479.999755859 498.559814453 479.999755859 488.959960938 489.599609375 c 2
 262.400390625 716.16015625 l 2
 252.799804688 725.760009766 252.799804688 725.760009766 252.799804688 738.879882812 c 0
 252.799804688 751.999755859 252.799804688 751.999755859 262.400390625 761.599609375 c 0
 272.000244141 771.200195312 272.000244141 771.200195312 285.120117188 771.200195312 c 0
 298.239990234 771.200195312 298.239990234 771.200195312 307.83984375 761.599609375 c 2
307.83984375 534.400390625 m 2
 512 330.879882812 l 1
 715.51953125 534.400390625 l 2
 725.120117188 544.000244141 725.120117188 544.000244141 738.240112305 544.000244141 c 0
 751.360107422 544.000244141 751.360107422 544.000244141 760.959960938 534.400390625 c 0
 770.559814453 524.799804688 770.559814453 524.799804688 770.559814453 511.67980957 c 0
 770.559814453 498.559814453 770.559814453 498.559814453 760.959960938 488.959960938 c 2
 534.400390625 262.400390625 l 2
 524.799804688 252.799804688 524.799804688 252.799804688 511.67980957 252.799804688 c 0
 498.559814453 252.799804688 498.559814453 252.799804688 488.959960938 262.400390625 c 2
 262.400390625 488.959960938 l 2
 252.799804688 498.559814453 252.799804688 498.559814453 252.799804688 511.67980957 c 0
 252.799804688 524.799804688 252.799804688 524.799804688 262.400390625 534.400390625 c 0
 272.000244141 544.000244141 272.000244141 544.000244141 285.120117188 544.000244141 c 0
 298.239990234 544.000244141 298.239990234 544.000244141 307.83984375 534.400390625 c 2
EndSplineSet
EndChar

StartChar: uniE00B
Encoding: 57355 57355 14
Width: 1024
Flags: H
LayerCount: 2
Fore
SplineSet
505.599609375 790.400390625 m 2
 732.799804688 563.83984375 l 2
 742.399658203 554.239990234 742.399658203 554.239990234 742.399658203 541.120117188 c 0
 742.399658203 528.000244141 742.399658203 528.000244141 732.799804688 518.400390625 c 0
 723.199951172 508.799804688 723.199951172 508.799804688 710.080078125 508.799804688 c 0
 696.960205078 508.799804688 696.960205078 508.799804688 687.360351562 518.400390625 c 2
 483.200195312 722.559570312 l 1
 279.040039062 518.400390625 l 2
 269.440185547 508.799804688 269.440185547 508.799804688 256.32019043 508.799804688 c 0
 243.200195312 508.799804688 243.200195312 508.799804688 233.599609375 518.400390625 c 0
 223.999755859 528.000244141 223.999755859 528.000244141 223.999755859 541.120117188 c 0
 223.999755859 554.239990234 223.999755859 554.239990234 233.599609375 563.83984375 c 2
 460.16015625 790.400390625 l 2
 469.760009766 800.000244141 469.760009766 800.000244141 482.879882812 800.000244141 c 0
 495.999755859 800.000244141 495.999755859 800.000244141 505.599609375 790.400390625 c 2
732.16015625 337.280273438 m 2
 741.231165128 327.732111426 741.231165128 327.732111426 741.360229492 314.560058594 c 0
 741.489293856 301.388005761 741.489293856 301.388005761 732.799804688 291.83984375 c 0
 723.199951172 282.239990234 723.199951172 282.239990234 710.080078125 282.239990234 c 0
 696.960205078 282.239990234 696.960205078 282.239990234 687.360351562 291.83984375 c 2
 483.200195312 496 l 1
 279.040039062 291.83984375 l 2
 269.440185547 282.239990234 269.440185547 282.239990234 256.32019043 282.239990234 c 0
 243.200195312 282.239990234 243.200195312 282.239990234 233.599609375 291.83984375 c 0
 223.999755859 301.439697266 223.999755859 301.439697266 223.999755859 314.560058594 c 0
 223.999755859 327.680419922 223.999755859 327.680419922 233.599609375 337.280273438 c 2
 460.16015625 563.83984375 l 2
 469.760009766 573.439697266 469.760009766 573.439697266 482.879882812 573.439697266 c 0
 495.999755859 573.439697266 495.999755859 573.439697266 505.599609375 563.83984375 c 2
 732.16015625 337.280273438 l 2
EndSplineSet
EndChar

StartChar: uniE00C
Encoding: 57356 57356 15
Width: 1024
Flags: H
LayerCount: 2
Fore
SplineSet
262.400390625 625.280273438 m 0
 272.000244141 634.880126953 272.000244141 634.880126953 285.120117188 634.880126953 c 0
 298.239990234 634.880126953 298.239990234 634.880126953 307.83984375 625.280273438 c 2
 512 421.120117188 l 1
 716.16015625 625.280273438 l 2
 725.760009766 634.880126953 725.760009766 634.880126953 738.879882812 634.880126953 c 0
 751.999755859 634.880126953 751.999755859 634.880126953 761.599609375 625.280273438 c 0
 771.200195312 615.680419922 771.200195312 615.680419922 771.200195312 602.560058594 c 0
 771.200195312 589.439697266 771.200195312 589.439697266 761.599609375 579.83984375 c 2
 535.040039062 353.280273438 l 2
 525.440185547 343.680419922 525.440185547 343.680419922 512.32019043 343.680419922 c 0
 499.200195312 343.680419922 499.200195312 343.680419922 489.599609375 353.280273438 c 2
 262.400390625 579.83984375 l 2
 253.280273438 589.439697266 253.280273438 589.439697266 253.280273438 602.799926758 c 0
 253.280273438 616.16015625 253.280273438 616.16015625 262.400390625 625.280273438 c 0
EndSplineSet
EndChar

StartChar: uniE00D
Encoding: 57357 57357 16
Width: 1024
Flags: H
LayerCount: 2
Fore
SplineSet
633.599609375 790.400390625 m 0
 643.200195312 780.799804688 643.200195312 780.799804688 643.200195312 767.67980957 c 0
 643.200195312 754.559814453 643.200195312 754.559814453 633.599609375 744.959960938 c 2
 429.440429688 541.440429688 l 1
 633.599609375 337.280273438 l 2
 643.200195312 327.680419922 643.200195312 327.680419922 643.200195312 314.560058594 c 0
 643.200195312 301.439697266 643.200195312 301.439697266 633.599609375 291.83984375 c 0
 623.999755859 282.239990234 623.999755859 282.239990234 610.879882812 282.239990234 c 0
 597.760009766 282.239990234 597.760009766 282.239990234 588.16015625 291.83984375 c 2
 361.599609375 518.400390625 l 2
 351.999755859 528.000244141 351.999755859 528.000244141 351.999755859 541.120117188 c 0
 351.999755859 554.239990234 351.999755859 554.239990234 361.599609375 563.83984375 c 2
 588.16015625 790.400390625 l 2
 597.280273438 800.000244141 597.280273438 800.000244141 610.640014648 800.000244141 c 0
 623.999755859 800.000244141 623.999755859 800.000244141 633.599609375 790.400390625 c 0
EndSplineSet
EndChar

StartChar: uniE00E
Encoding: 57358 57358 17
Width: 1024
Flags: H
LayerCount: 2
Fore
SplineSet
398.719726562 761.599609375 m 0
 408.319580078 771.200195312 408.319580078 771.200195312 421.439941406 771.200195312 c 0
 434.560302734 771.200195312 434.560302734 771.200195312 444.16015625 761.599609375 c 2
 670.719726562 535.040039062 l 2
 680.319580078 525.440185547 680.319580078 525.440185547 680.319580078 512.32019043 c 0
 680.319580078 499.200195312 680.319580078 499.200195312 670.719726562 489.599609375 c 2
 444.16015625 262.400390625 l 2
 434.560302734 252.799804688 434.560302734 252.799804688 421.439941406 252.799804688 c 0
 408.319580078 252.799804688 408.319580078 252.799804688 398.719726562 262.400390625 c 0
 389.119873047 272.000244141 389.119873047 272.000244141 389.119873047 285.120117188 c 0
 389.119873047 298.239990234 389.119873047 298.239990234 398.719726562 307.83984375 c 2
 602.879882812 512 l 1
 398.719726562 716.16015625 l 2
 389.119873047 725.280273438 389.119873047 725.280273438 389.119873047 738.640014648 c 0
 389.119873047 751.999755859 389.119873047 751.999755859 398.719726562 761.599609375 c 0
EndSplineSet
EndChar

StartChar: uniE00F
Encoding: 57359 57359 18
Width: 1024
Flags: H
LayerCount: 2
Fore
SplineSet
489.599609375 670.719726562 m 2
 499.200195312 680.319580078 499.200195312 680.319580078 512.32019043 680.319580078 c 0
 525.440185547 680.319580078 525.440185547 680.319580078 535.040039062 670.719726562 c 2
 761.599609375 444.16015625 l 2
 771.200195312 434.560302734 771.200195312 434.560302734 771.200195312 421.439941406 c 0
 771.200195312 408.319580078 771.200195312 408.319580078 761.599609375 398.719726562 c 0
 751.999755859 389.119873047 751.999755859 389.119873047 738.879882812 389.119873047 c 0
 725.760009766 389.119873047 725.760009766 389.119873047 716.16015625 398.719726562 c 2
 512 602.879882812 l 1
 307.83984375 398.719726562 l 2
 298.239990234 389.119873047 298.239990234 389.119873047 285.120117188 389.119873047 c 0
 272.000244141 389.119873047 272.000244141 389.119873047 262.400390625 398.719726562 c 0
 252.799804688 408.319580078 252.799804688 408.319580078 252.799804688 421.439941406 c 0
 252.799804688 434.560302734 252.799804688 434.560302734 262.400390625 444.16015625 c 2
 489.599609375 670.719726562 l 2
EndSplineSet
EndChar

StartChar: uniE010
Encoding: 57360 57360 19
Width: 1024
Flags: H
LayerCount: 2
Fore
SplineSet
592 864 m 2
 592 877 592 877 601.5 886.5 c 0
 611 896 611 896 624 896 c 2
 848 896 l 2
 861 896 861 896 870.5 886.5 c 0
 880 877 880 877 880 864 c 2
 880 224 l 1
 912 224 l 2
 925 224 925 224 934.5 214.5 c 0
 944 205 944 205 944 192 c 0
 944 179 944 179 934.5 169.5 c 0
 925 160 925 160 912 160 c 2
 848 160 l 1
 624 160 l 1
 400 160 l 1
 176 160 l 1
 112 160 l 2
 99 160 99 160 89.5 169.5 c 0
 80 179 80 179 80 192 c 0
 80 205 80 205 89.5 214.5 c 0
 99 224 99 224 112 224 c 2
 144 224 l 1
 144 480 l 2
 144 493 144 493 153.5 502.5 c 0
 163 512 163 512 176 512 c 2
 368 512 l 1
 368 672 l 2
 368 685 368 685 377.5 694.5 c 0
 387 704 387 704 400 704 c 2
 592 704 l 1
 592 864 l 2
368 448 m 1
 208 448 l 1
 208 224 l 1
 368 224 l 1
 368 448 l 1
816 832 m 1
 656 832 l 1
 656 672 l 1
 656 224 l 1
 816 224 l 1
 816 832 l 1
592 640 m 1
 432 640 l 1
 432 480 l 1
 432 224 l 1
 592 224 l 1
 592 640 l 1
EndSplineSet
EndChar

StartChar: uniE011
Encoding: 57361 57361 20
Width: 1024
Flags: H
LayerCount: 2
Fore
SplineSet
886.400390625 758.400390625 m 0
 896.000244141 748.799804688 896.000244141 748.799804688 896.000244141 735.67980957 c 0
 896.000244141 722.559814453 896.000244141 722.559814453 886.400390625 712.959960938 c 2
 438.400390625 264.959960938 l 2
 428.799804688 255.360107422 428.799804688 255.360107422 415.67980957 255.360107422 c 0
 402.559814453 255.360107422 402.559814453 255.360107422 392.959960938 264.959960938 c 2
 168.959960938 488.959960938 l 2
 159.360107422 498.559814453 159.360107422 498.559814453 159.360107422 511.67980957 c 0
 159.360107422 524.799804688 159.360107422 524.799804688 168.959960938 534.400390625 c 0
 178.559814453 544.000244141 178.559814453 544.000244141 191.67980957 544.000244141 c 0
 204.799804688 544.000244141 204.799804688 544.000244141 214.400390625 534.400390625 c 2
 416 332.799804688 l 1
 841.599609375 758.400390625 l 2
 850.719726562 768.000244141 850.719726562 768.000244141 864 768.000244141 c 0
 877.280273438 768.000244141 877.280273438 768.000244141 886.400390625 758.400390625 c 0
EndSplineSet
EndChar

StartChar: uniE012
Encoding: 57362 57362 21
Width: 1024
Flags: H
LayerCount: 2
Fore
SplineSet
160 512 m 0
 160 366 160 366 263 263 c 0
 366 160 366 160 512 160 c 0
 658 160 658 160 761 263 c 0
 864 366 864 366 864 512 c 0
 864 658 864 658 761 761 c 0
 658 864 658 864 512 864 c 0
 366 864 366 864 263 761 c 0
 160 658 160 658 160 512 c 0
512 928 m 0
 684 928 684 928 806 806 c 0
 928 684 928 684 928 512 c 0
 928 340 928 340 806 218 c 0
 684 96 684 96 512 96 c 0
 340 96 340 96 218 218 c 0
 96 340 96 340 96 512 c 0
 96 684 96 684 218 806 c 0
 340 928 340 928 512 928 c 0
710.400390625 584.959960938 m 2
 474.879882812 360.959960938 l 2
 465.759765625 352.3203125 465.759765625 352.3203125 452.799804688 352.3203125 c 0
 439.83984375 352.3203125 439.83984375 352.3203125 430.719726562 360.959960938 c 2
 313.599609375 472.959960938 l 2
 304.049898357 482.032441413 304.049898357 482.032441413 303.919799805 495.439941406 c 0
 303.789701252 508.847441399 303.789701252 508.847441399 312.959960938 518.400390625 c 0
 322.032441413 527.950101643 322.032441413 527.950101643 335.439941406 528.080200195 c 0
 348.847441399 528.210298748 348.847441399 528.210298748 358.400390625 519.040039062 c 2
 453.120117188 428.16015625 l 1
 666.240234375 631.6796875 l 2
 675.850707545 640.788626418 675.850707545 640.788626418 689.199829102 640.400024414 c 0
 702.548950658 640.01142241 702.548950658 640.01142241 711.6796875 630.400390625 c 0
 720.788624152 620.78918288 720.788624152 620.78918288 720.400024414 607.439941406 c 0
 720.011424676 594.090699932 720.011424676 594.090699932 710.400390625 584.959960938 c 2
EndSplineSet
EndChar

StartChar: uniE013
Encoding: 57363 57363 22
Width: 1024
Flags: H
LayerCount: 2
Fore
SplineSet
614.400390625 665.599609375 m 2
 263.040039062 313.599609375 l 2
 253.440185547 303.999755859 253.440185547 303.999755859 240.32019043 303.999755859 c 0
 227.200195312 303.999755859 227.200195312 303.999755859 217.599609375 313.599609375 c 2
 40.3203125 489.599609375 l 2
 30.7197265625 499.200195312 30.7197265625 499.200195312 30.7197265625 512.32019043 c 0
 30.7197265625 525.440185547 30.7197265625 525.440185547 40.3203125 535.040039062 c 0
 49.9201660156 544.639892578 49.9201660156 544.639892578 63.0400390625 544.639892578 c 0
 76.1599121094 544.639892578 76.1599121094 544.639892578 85.759765625 535.040039062 c 2
 239.360351562 381.440429688 l 1
 568.959960938 711.040039062 l 2
 578.559814453 720.639892578 578.559814453 720.639892578 591.67980957 720.639892578 c 0
 604.799804688 720.639892578 604.799804688 720.639892578 614.400390625 711.040039062 c 0
 624.000244141 701.440185547 624.000244141 701.440185547 624.000244141 688.32019043 c 0
 624.000244141 675.200195312 624.000244141 675.200195312 614.400390625 665.599609375 c 2
982.400390625 665.599609375 m 2
 630.400390625 313.599609375 l 2
 620.799804688 303.999755859 620.799804688 303.999755859 607.67980957 303.999755859 c 0
 594.559814453 303.999755859 594.559814453 303.999755859 584.959960938 313.599609375 c 2
 491.51953125 407.040039062 l 2
 481.919677734 416.639892578 481.919677734 416.639892578 481.919677734 429.759887695 c 0
 481.919677734 442.879882812 481.919677734 442.879882812 491.51953125 452.48046875 c 0
 501.120117188 462.080322266 501.120117188 462.080322266 514.240112305 462.080322266 c 0
 527.360107422 462.080322266 527.360107422 462.080322266 536.959960938 452.48046875 c 2
 608 381.440429688 l 1
 936.959960938 711.040039062 l 2
 946.559814453 720.639892578 946.559814453 720.639892578 959.67980957 720.639892578 c 0
 972.799804688 720.639892578 972.799804688 720.639892578 982.400390625 711.040039062 c 0
 992.000244141 701.440185547 992.000244141 701.440185547 992.000244141 688.32019043 c 0
 992.000244141 675.200195312 992.000244141 675.200195312 982.400390625 665.599609375 c 2
EndSplineSet
EndChar

StartChar: uniE014
Encoding: 57364 57364 23
Width: 1024
Flags: H
LayerCount: 2
Fore
SplineSet
192 896 m 2
 832 896 l 2
 858 896 858 896 877 877 c 0
 896 858 896 858 896 832 c 2
 896 192 l 2
 896 166 896 166 877 147 c 0
 858 128 858 128 832 128 c 2
 192 128 l 2
 166 128 166 128 147 147 c 0
 128 166 128 166 128 192 c 2
 128 832 l 2
 128 858 128 858 147 877 c 0
 166 896 166 896 192 896 c 2
192 832 m 1
 192 192 l 1
 832 192 l 1
 832 832 l 1
 192 832 l 1
710.400390625 584.959960938 m 2
 474.879882812 360.959960938 l 2
 465.759765625 352.3203125 465.759765625 352.3203125 452.799804688 352.3203125 c 0
 439.83984375 352.3203125 439.83984375 352.3203125 430.719726562 360.959960938 c 2
 313.599609375 472.959960938 l 2
 304.049898357 482.032441413 304.049898357 482.032441413 303.919799805 495.439941406 c 0
 303.789701252 508.847441399 303.789701252 508.847441399 312.959960938 518.400390625 c 0
 322.032441413 527.950101643 322.032441413 527.950101643 335.439941406 528.080200195 c 0
 348.847441399 528.210298748 348.847441399 528.210298748 358.400390625 519.040039062 c 2
 453.120117188 428.16015625 l 1
 666.240234375 631.6796875 l 2
 675.850707545 640.788626418 675.850707545 640.788626418 689.199829102 640.400024414 c 0
 702.548950658 640.01142241 702.548950658 640.01142241 711.6796875 630.400390625 c 0
 720.788624152 620.78918288 720.788624152 620.78918288 720.400024414 607.439941406 c 0
 720.011424676 594.090699932 720.011424676 594.090699932 710.400390625 584.959960938 c 2
EndSplineSet
EndChar

StartChar: uniE015
Encoding: 57365 57365 24
Width: 1024
Flags: H
LayerCount: 2
Fore
SplineSet
128 832 m 2
 128 858 128 858 147 877 c 0
 166 896 166 896 192 896 c 2
 832 896 l 2
 858 896 858 896 877 877 c 0
 896 858 896 858 896 832 c 2
 896 192 l 2
 896 166 896 166 877 147 c 0
 858 128 858 128 832 128 c 2
 192 128 l 2
 166 128 166 128 147 147 c 0
 128 166 128 166 128 192 c 2
 128 832 l 2
832 832 m 1
 192 832 l 1
 192 192 l 1
 832 192 l 1
 832 832 l 1
EndSplineSet
EndChar

StartChar: uniE016
Encoding: 57366 57366 25
Width: 1024
Flags: H
LayerCount: 2
Fore
SplineSet
160 512 m 0
 160 366 160 366 263 263 c 0
 366 160 366 160 512 160 c 0
 658 160 658 160 761 263 c 0
 864 366 864 366 864 512 c 0
 864 658 864 658 761 761 c 0
 658 864 658 864 512 864 c 0
 366 864 366 864 263 761 c 0
 160 658 160 658 160 512 c 0
512 928 m 0
 684 928 684 928 806 806 c 0
 928 684 928 684 928 512 c 0
 928 340 928 340 806 218 c 0
 684 96 684 96 512 96 c 0
 340 96 340 96 218 218 c 0
 96 340 96 340 96 512 c 0
 96 684 96 684 218 806 c 0
 340 928 340 928 512 928 c 0
544 736 m 2
 544 544 l 1
 736 544 l 2
 749 544 749 544 758.5 534.5 c 0
 768 525 768 525 768 512 c 0
 768 499 768 499 758.5 489.5 c 0
 749 480 749 480 736 480 c 2
 512 480 l 2
 499 480 499 480 489.5 489.5 c 0
 480 499 480 499 480 512 c 2
 480 736 l 2
 480 749 480 749 489.5 758.5 c 0
 499 768 499 768 512 768 c 0
 525 768 525 768 534.5 758.5 c 0
 544 749 544 749 544 736 c 2
EndSplineSet
EndChar

StartChar: uniE017
Encoding: 57367 57367 26
Width: 1024
Flags: H
LayerCount: 2
Fore
SplineSet
389.120117188 807.6796875 m 0
 299.700380936 770.340747699 299.700380936 770.340747699 245.759765625 689.919921875 c 0
 192 609.770218867 192 609.770218867 192 512 c 0
 192 414.229781133 192 414.229781133 245.759765625 334.080078125 c 0
 298.348413845 254.223792301 298.348413845 254.223792301 389.120117188 216.3203125 c 0
 479.646564134 178.928399098 479.646564134 178.928399098 574.080078125 198.400390625 c 0
 668.790481944 216.950638194 668.790481944 216.950638194 737.919921875 286.080078125 c 0
 747.638163624 295.312667296 747.638163624 295.312667296 760.639770508 295.440063477 c 0
 773.641377392 295.567459658 773.641377392 295.567459658 783.360351562 286.080078125 c 0
 792.960205078 276.480224609 792.960205078 276.480224609 792.960205078 263.360229492 c 0
 792.960205078 250.240234375 792.960205078 250.240234375 783.360351562 240.639648438 c 0
 701.033888805 158.314681138 701.033888805 158.314681138 586.879882812 135.6796875 c 0
 472.805727688 113.255235054 472.805727688 113.255235054 364.799804688 157.440429688 c 0
 257.362938762 201.794947326 257.362938762 201.794947326 192.639648438 298.879882812 c 0
 128 394.861234878 128 394.861234878 128 512 c 0
 128 629.138765122 128 629.138765122 192.639648438 725.120117188 c 0
 256.833123879 821.41033035 256.833123879 821.41033035 364.799804688 866.559570312 c 0
 473.117266956 911.856373406 473.117266956 911.856373406 586.879882812 888.3203125 c 0
 701.033888805 865.685318862 701.033888805 865.685318862 783.360351562 783.360351562 c 2
 864.639648438 702.080078125 l 1
 864.639648438 785.280273438 l 2
 864.639648438 798.720214844 864.639648438 798.720214844 873.919677734 808.000244141 c 0
 883.199707031 817.280273438 883.199707031 817.280273438 896.639648438 817.280273438 c 0
 910.079589844 817.280273438 910.079589844 817.280273438 919.359619141 808.000244141 c 0
 928.639648438 798.720214844 928.639648438 798.720214844 928.639648438 785.280273438 c 2
 928.639648438 625.919921875 l 1
 928.639648438 625.280273438 l 2
 928.639648438 611.840332031 928.639648438 611.840332031 919.359619141 602.560302734 c 0
 910.079589844 593.280273438 910.079589844 593.280273438 896.639648438 593.280273438 c 2
 896 593.280273438 l 1
 736.639648438 593.280273438 l 2
 723.199707031 593.280273438 723.199707031 593.280273438 713.919677734 602.560302734 c 0
 704.639648438 611.840332031 704.639648438 611.840332031 704.639648438 625.280273438 c 0
 704.639648438 638.720214844 704.639648438 638.720214844 713.919677734 648.000244141 c 0
 723.199707031 657.280273438 723.199707031 657.280273438 736.639648438 657.280273438 c 2
 819.200195312 657.280273438 l 1
 737.919921875 737.919921875 l 2
 668.790481944 807.049361806 668.790481944 807.049361806 574.080078125 825.599609375 c 0
 479.646564134 845.071600902 479.646564134 845.071600902 389.120117188 807.6796875 c 0
544 704 m 2
 544 530.559570312 l 1
 694.400390625 443.51953125 l 2
 705.927746054 436.794996276 705.927746054 436.794996276 709.279907227 424.159912109 c 0
 712.632068399 411.524827942 712.632068399 411.524827942 705.919921875 400 c 0
 699.693941991 388.506051925 699.693941991 388.506051925 686.799804688 385.119750977 c 0
 673.905667384 381.733450029 673.905667384 381.733450029 662.400390625 388.48046875 c 2
 496.639648438 483.83984375 l 2
 493.759765625 484.80078125 493.759765625 484.80078125 492.16015625 486.400390625 c 0
 480.85738151 496.571853154 480.85738151 496.571853154 480 509.440429688 c 2
 480 512.639648438 l 1
 480 704 l 2
 480 717 480 717 489.5 726.5 c 0
 499 736 499 736 512 736 c 0
 525 736 525 736 534.5 726.5 c 0
 544 717 544 717 544 704 c 2
EndSplineSet
EndChar

StartChar: uniE018
Encoding: 57368 57368 27
Width: 1024
Flags: H
LayerCount: 2
Fore
SplineSet
659.200195312 866.559570312 m 0
 765.721374443 822.583087213 765.721374443 822.583087213 831.360351562 725.120117188 c 0
 896 629.138765122 896 629.138765122 896 512 c 0
 896 395.841597151 896 395.841597151 831.360351562 298.879882812 c 0
 766.267640009 201.240815482 766.267640009 201.240815482 659.200195312 157.440429688 c 0
 550.882733044 112.143626594 550.882733044 112.143626594 437.120117188 135.6796875 c 0
 322.966111195 158.314681138 322.966111195 158.314681138 240.639648438 240.639648438 c 0
 231.039794922 250.240234375 231.039794922 250.240234375 231.039794922 263.360229492 c 0
 231.039794922 276.480224609 231.039794922 276.480224609 240.639648438 286.080078125 c 0
 250.240234375 295.679931641 250.240234375 295.679931641 263.360229492 295.679931641 c 0
 276.480224609 295.679931641 276.480224609 295.679931641 286.080078125 286.080078125 c 0
 355.209518056 216.950638194 355.209518056 216.950638194 449.919921875 198.400390625 c 0
 544.353435866 178.928399098 544.353435866 178.928399098 634.879882812 216.3203125 c 0
 724.299619064 253.659252301 724.299619064 253.659252301 778.240234375 334.080078125 c 0
 832 414.229781133 832 414.229781133 832 512 c 0
 832 609.770218867 832 609.770218867 778.240234375 689.919921875 c 0
 725.651586155 769.776207699 725.651586155 769.776207699 634.879882812 807.6796875 c 0
 544.901720371 844.845132202 544.901720371 844.845132202 449.919921875 826.240234375 c 0
 355.207005809 807.688004851 355.207005809 807.688004851 286.080078125 738.559570312 c 2
 204.799804688 657.280273438 l 1
 150.400390625 602.879882812 l 2
 140.799316332 593.280273438 140.799316332 593.280273438 128 593.280273438 c 0
 114.561035231 593.280273438 114.561035231 593.280273438 104.959960938 602.879882812 c 0
 99.2001953125 607.680175781 99.2001953125 607.680175781 97.2802734375 614.400390625 c 0
 95.3603515625 619.197998606 95.3603515625 619.197998606 95.3603515625 624.639648438 c 0
 95.3603515625 785.280273438 l 2
 95.3603515625 798.720214844 95.3603515625 798.720214844 104.640380859 808.000244141 c 0
 113.920410156 817.280273438 113.920410156 817.280273438 127.360351562 817.280273438 c 0
 140.800292969 817.280273438 140.800292969 817.280273438 150.080322266 808.000244141 c 0
 159.360351562 798.720214844 159.360351562 798.720214844 159.360351562 785.280273438 c 2
 159.360351562 702.080078125 l 1
 240.639648438 783.360351562 l 2
 322.966111195 865.685318862 322.966111195 865.685318862 437.120117188 888.3203125 c 0
 550.882733044 911.856373406 550.882733044 911.856373406 659.200195312 866.559570312 c 0
544 704 m 2
 544 530.559570312 l 1
 694.400390625 443.51953125 l 2
 705.927746054 436.794996276 705.927746054 436.794996276 709.279907227 424.159912109 c 0
 712.632068399 411.524827942 712.632068399 411.524827942 705.919921875 400 c 0
 699.693941991 388.506051925 699.693941991 388.506051925 686.799804688 385.119750977 c 0
 673.905667384 381.733450029 673.905667384 381.733450029 662.400390625 388.48046875 c 2
 496.639648438 483.83984375 l 2
 494.077142465 485.123052848 494.077142465 485.123052848 492.799804688 486.400390625 c 0
 487.894042845 489.670482637 487.894042845 489.670482637 484.48046875 495.360351562 c 0
 481.221138982 500.248103144 481.221138982 500.248103144 480 508.799804688 c 2
 480 512.639648438 l 1
 480 704 l 2
 480 717 480 717 489.5 726.5 c 0
 499 736 499 736 512 736 c 0
 525 736 525 736 534.5 726.5 c 0
 544 717 544 717 544 704 c 2
EndSplineSet
EndChar

StartChar: uniE019
Encoding: 57369 57369 28
Width: 1024
Flags: H
LayerCount: 2
Fore
SplineSet
769.280273438 723.83984375 m 2
 557.440429688 512 l 1
 769.280273438 300.16015625 l 2
 778.880126953 290.560302734 778.880126953 290.560302734 778.880126953 277.439941406 c 0
 778.880126953 264.319580078 778.880126953 264.319580078 769.280273438 254.719726562 c 0
 759.680419922 245.119873047 759.680419922 245.119873047 746.560058594 245.119873047 c 0
 733.439697266 245.119873047 733.439697266 245.119873047 723.83984375 254.719726562 c 2
 512 466.559570312 l 1
 300.16015625 254.719726562 l 2
 290.560302734 245.119873047 290.560302734 245.119873047 277.439941406 245.119873047 c 0
 264.319580078 245.119873047 264.319580078 245.119873047 254.719726562 254.719726562 c 0
 245.119873047 264.319580078 245.119873047 264.319580078 245.119873047 277.439941406 c 0
 245.119873047 290.560302734 245.119873047 290.560302734 254.719726562 300.16015625 c 2
 466.559570312 512 l 1
 254.719726562 723.83984375 l 2
 245.119873047 733.439697266 245.119873047 733.439697266 245.119873047 746.560058594 c 0
 245.119873047 759.680419922 245.119873047 759.680419922 254.719726562 769.280273438 c 0
 264.319580078 778.880126953 264.319580078 778.880126953 277.439941406 778.880126953 c 0
 290.560302734 778.880126953 290.560302734 778.880126953 300.16015625 769.280273438 c 2
 512 557.440429688 l 1
 723.83984375 769.280273438 l 2
 733.439697266 778.880126953 733.439697266 778.880126953 746.560058594 778.880126953 c 0
 759.680419922 778.880126953 759.680419922 778.880126953 769.280273438 769.280273438 c 0
 778.880126953 759.680419922 778.880126953 759.680419922 778.880126953 746.560058594 c 0
 778.880126953 733.439697266 778.880126953 733.439697266 769.280273438 723.83984375 c 2
EndSplineSet
EndChar

StartChar: uniE01A
Encoding: 57370 57370 29
Width: 1024
Flags: H
LayerCount: 2
Fore
SplineSet
231.040039062 714.879882812 m 0
 178.899601077 690.639195725 178.899601077 690.639195725 153.449800539 662.620050984 c 0
 128 634.600906242 128 634.600906242 128 608 c 0
 128 581.399093758 128 581.399093758 153.449800539 553.379949016 c 0
 178.899601077 525.360804275 178.899601077 525.360804275 231.040039062 501.120117188 c 0
 347.904945314 448 347.904945314 448 512 448 c 0
 676.095054686 448 676.095054686 448 792.959960938 501.120117188 c 0
 845.100398923 525.360804275 845.100398923 525.360804275 870.550199461 553.379949016 c 0
 896 581.399093758 896 581.399093758 896 608 c 0
 896 634.600906242 896 634.600906242 870.550199461 662.620050984 c 0
 845.100398923 690.639195725 845.100398923 690.639195725 792.959960938 714.879882812 c 0
 676.095054686 768 676.095054686 768 512 768 c 0
 347.904945314 768 347.904945314 768 231.040039062 714.879882812 c 0
896 490.240234375 m 1
 863.204039094 463.231622822 863.204039094 463.231622822 819.83984375 443.51953125 c 0
 811.727668423 439.464062553 811.727668423 439.464062553 800 435.200195312 c 1
 800 312.3203125 l 1
 801.919921875 312.959960938 l 1
 849.998611156 336.774420944 849.998611156 336.774420944 872.999305578 364.203075607 c 0
 896 391.63173027 896 391.63173027 896 416 c 2
 896 490.240234375 l 1
544 384.639648438 m 1
 544 256.639648438 l 1
 652.870970315 260.362533842 652.870970315 260.362533842 736 286.719726562 c 1
 736 412.799804688 l 1
 648.569598365 388.513417308 648.569598365 388.513417308 544 384.639648438 c 1
512 192 m 0
 319.602502323 192 319.602502323 192 193.919921875 255.360351562 c 0
 134.432254107 285.104185447 134.432254107 285.104185447 99.2161270534 326.556423923 c 0
 64 368.0086624 64 368.0086624 64 416 c 2
 64 608 l 2
 64 659.685632397 64 659.685632397 102.626655885 701.846063279 c 0
 141.253311771 744.006494161 141.253311771 744.006494161 204.16015625 773.120117188 c 0
 334.316931066 832 334.316931066 832 512 832 c 0
 689.683068934 832 689.683068934 832 819.83984375 773.120117188 c 0
 882.746688229 744.006494161 882.746688229 744.006494161 921.373344115 701.846063279 c 0
 960 659.685632397 960 659.685632397 960 608 c 2
 960 416 l 2
 960 368.0086624 960 368.0086624 924.783872947 326.556423923 c 0
 889.567745893 285.104185447 889.567745893 285.104185447 830.080078125 255.360351562 c 0
 704.397497677 192 704.397497677 192 512 192 c 0
480 256.639648438 m 1
 480 384.639648438 l 1
 375.430401635 388.513417308 375.430401635 388.513417308 288 412.799804688 c 1
 288 286.719726562 l 1
 371.129029685 260.362533842 371.129029685 260.362533842 480 256.639648438 c 1
224 311.6796875 m 1
 224 435.200195312 l 1
 212.272331577 439.464062553 212.272331577 439.464062553 204.16015625 443.51953125 c 0
 160.795960906 463.231622822 160.795960906 463.231622822 128 490.240234375 c 1
 128 416 l 2
 128 391.665935637 128 391.665935637 150.985480764 364.132573667 c 0
 173.970961528 336.599211696 173.970961528 336.599211696 222.080078125 312.3203125 c 0
 222.399902344 312.3203125 222.399902344 312.3203125 223.040039062 312 c 0
 223.680175781 311.6796875 223.680175781 311.6796875 224 311.6796875 c 1
EndSplineSet
EndChar

StartChar: uniE01B
Encoding: 57371 57371 30
Width: 1024
Flags: H
LayerCount: 2
Fore
SplineSet
170.879882812 760.959960938 m 0
 132.178009312 743.166167758 132.178009312 743.166167758 114.089004656 723.723557727 c 0
 96 704.280947697 96 704.280947697 96 688 c 0
 96 671.719052303 96 671.719052303 114.089004656 652.276442273 c 0
 132.178009312 632.833832242 132.178009312 632.833832242 170.879882812 615.040039062 c 0
 211.695387295 596.672672807 211.695387295 596.672672807 261.120117188 587.51953125 c 0
 262.400390625 587.51953125 262.400390625 587.51953125 263.6796875 586.879882812 c 0
 320.057673676 576 320.057673676 576 384 576 c 0
 447.942326324 576 447.942326324 576 504.3203125 586.879882812 c 0
 504.560058594 586.879882812 504.560058594 586.879882812 505.359863281 587.199707031 c 0
 506.159667969 587.51953125 506.159667969 587.51953125 506.879882812 587.51953125 c 0
 555.822855596 597.489293635 555.822855596 597.489293635 597.120117188 615.040039062 c 0
 635.878057927 632.414358681 635.878057927 632.414358681 653.939028964 651.826837328 c 0
 672 671.239315975 672 671.239315975 672 688 c 0
 672 704.633407345 672 704.633407345 653.998527939 723.859543068 c 0
 635.997055877 743.085678792 635.997055877 743.085678792 597.120117188 760.959960938 c 0
 509.542464399 800 509.542464399 800 384 800 c 0
 258.457535601 800 258.457535601 800 170.879882812 760.959960938 c 0
480 518.400390625 m 1
 436.116589387 512 436.116589387 512 384 512 c 0
 331.883410613 512 331.883410613 512 288 518.400390625 c 1
 288 423.040039062 l 1
 335.26401116 416 335.26401116 416 384 416 c 0
 432.73598884 416 432.73598884 416 480 423.040039062 c 1
 480 518.400390625 l 1
544 436.48046875 m 1
 571.761684289 443.882266677 571.761684289 443.882266677 597.120117188 455.040039062 c 0
 635.821990688 472.833832242 635.821990688 472.833832242 653.910995344 492.276442273 c 0
 672 511.719052303 672 511.719052303 672 528 c 2
 672 584.3203125 l 1
 651.974773929 569.518942922 651.974773929 569.518942922 623.360351562 556.799804688 c 0
 586.969787445 541.063425648 586.969787445 541.063425648 544 530.559570312 c 1
 544 436.48046875 l 1
480 337.919921875 m 1
 452.058554597 344.906044573 452.058554597 344.906044573 428.799804688 353.280273438 c 1
 399.38279017 352 399.38279017 352 384 352 c 0
 362.240234375 352 362.240234375 352 352 352.639648438 c 1
 352 336 l 2
 352 319.719052303 352 319.719052303 370.089004656 300.276442273 c 0
 388.178009312 280.833832242 388.178009312 280.833832242 426.879882812 263.040039062 c 0
 452.238315711 251.882266677 452.238315711 251.882266677 480 244.48046875 c 1
 480 337.919921875 l 1
544 231.040039062 m 1
 591.26401116 224 591.26401116 224 640 224 c 0
 688.73598884 224 688.73598884 224 736 231.040039062 c 1
 736 326.400390625 l 1
 692.116589387 320 692.116589387 320 640 320 c 0
 587.883410613 320 587.883410613 320 544 326.400390625 c 1
 544 231.040039062 l 1
224 530.559570312 m 1
 181.030212555 541.063425648 181.030212555 541.063425648 144.639648438 556.799804688 c 0
 119.489672671 567.978993079 119.489672671 567.978993079 96 584.3203125 c 1
 96 528 l 2
 96 511.719052303 96 511.719052303 114.089004656 492.276442273 c 0
 132.178009312 472.833832242 132.178009312 472.833832242 170.879882812 455.040039062 c 0
 196.238315711 443.882266677 196.238315711 443.882266677 224 436.48046875 c 1
 224 530.559570312 l 1
144.639648438 819.200195312 m 0
 244.421596553 864 244.421596553 864 384 864 c 0
 523.578403447 864 523.578403447 864 623.360351562 819.200195312 c 0
 673.183453786 796.938602716 673.183453786 796.938602716 704.591726893 763.582486528 c 0
 736 730.226370339 736 730.226370339 736 688 c 2
 736 665.599609375 l 1
 835.301101204 652.819230152 835.301101204 652.819230152 901.759765625 615.6796875 c 0
 992 566.458229181 992 566.458229181 992 496 c 2
 992 336 l 2
 992 293.773629661 992 293.773629661 960.591726893 260.417513472 c 0
 929.183453786 227.061397284 929.183453786 227.061397284 879.360351562 204.799804688 c 0
 779.578403447 160 779.578403447 160 640 160 c 0
 500.421596553 160 500.421596553 160 400.639648438 204.799804688 c 0
 350.816546214 227.061397284 350.816546214 227.061397284 319.408273107 260.417513472 c 0
 288 293.773629661 288 293.773629661 288 336 c 2
 288 358.400390625 l 1
 207.64026809 368.799868371 207.64026809 368.799868371 144.639648438 396.799804688 c 0
 94.8165462141 419.061397284 94.8165462141 419.061397284 63.408273107 452.417513472 c 0
 32 485.773629661 32 485.773629661 32 528 c 2
 32 688 l 2
 32 730.226370339 32 730.226370339 63.408273107 763.582486528 c 0
 94.8165462141 796.938602716 94.8165462141 796.938602716 144.639648438 819.200195312 c 0
928 392.3203125 m 1
 904.510327329 375.978993079 904.510327329 375.978993079 879.360351562 364.799804688 c 0
 844.566633034 348.814122056 844.566633034 348.814122056 800 337.919921875 c 1
 800 243.83984375 l 1
 834.98096053 254.333598147 834.98096053 254.333598147 853.120117188 263.040039062 c 0
 891.878057927 280.414358681 891.878057927 280.414358681 909.939028964 299.826837328 c 0
 928 319.239315975 928 319.239315975 928 336 c 2
 928 392.3203125 l 1
640 384 m 0
 703.942326324 384 703.942326324 384 760.3203125 394.879882812 c 0
 760.959960938 394.879882812 760.959960938 394.879882812 761.919921875 395.199707031 c 0
 762.879882812 395.51953125 762.879882812 395.51953125 763.51953125 395.51953125 c 0
 817.98640752 406.823740579 817.98640752 406.823740579 853.120117188 423.040039062 c 0
 891.878057927 440.414358681 891.878057927 440.414358681 909.939028964 459.826837328 c 0
 928 479.239315975 928 479.239315975 928 496 c 0
 928 528.640299479 928 528.640299479 871.6796875 559.360351562 c 0
 818.422961059 588.500216997 818.422961059 588.500216997 736 600.959960938 c 1
 736 528 l 2
 736 485.773629661 736 485.773629661 704.591726893 452.417513472 c 0
 673.183453786 419.061397284 673.183453786 419.061397284 623.360351562 396.799804688 c 0
 614.414069955 392.965823294 614.414069955 392.965823294 595.200195312 385.280273438 c 1
 624.61720983 384 624.61720983 384 640 384 c 0
EndSplineSet
EndChar

StartChar: uniE01C
Encoding: 57372 57372 31
Width: 1024
Flags: H
LayerCount: 2
Fore
SplineSet
285.440429688 767.360351562 m 0
 224 661.428910664 224 661.428910664 224 512 c 0
 224 362.571089336 224 362.571089336 285.440429688 256.639648438 c 0
 313.193439375 209.130222476 313.193439375 209.130222476 347.168957312 184.565111238 c 0
 381.14447525 160 381.14447525 160 416 160 c 0
 450.85552475 160 450.85552475 160 484.831042688 184.565111238 c 0
 518.806560625 209.130222476 518.806560625 209.130222476 546.559570312 256.639648438 c 0
 547.519713741 258.55944717 547.519713741 258.55944717 549.759704248 262.399535527 c 0
 551.999694754 266.239623884 551.999694754 266.239623884 552.959960938 268.16015625 c 0
 553.279785156 269.120117188 553.279785156 269.120117188 554.239746094 270.720214844 c 0
 555.199707031 272.3203125 555.199707031 272.3203125 555.51953125 273.280273438 c 0
 608 375.092510939 608 375.092510939 608 512 c 0
 608 648.095820634 608 648.095820634 556.16015625 750.719726562 c 0
 555.520019531 751.6796875 555.520019531 751.6796875 554.560058594 753.279785156 c 0
 553.600097656 754.879882812 553.600097656 754.879882812 552.959960938 755.83984375 c 0
 551.999694754 757.760376116 551.999694754 757.760376116 549.759704248 761.600464473 c 0
 547.519713741 765.44055283 547.519713741 765.44055283 546.559570312 767.360351562 c 0
 518.806560625 814.869777524 518.806560625 814.869777524 484.831042688 839.434888762 c 0
 450.85552475 864 450.85552475 864 416 864 c 0
 381.14447525 864 381.14447525 864 347.168957312 839.434888762 c 0
 313.193439375 814.869777524 313.193439375 814.869777524 285.440429688 767.360351562 c 0
601.599609375 224 m 1
 579.487197828 186.811641338 579.487197828 186.811641338 553.599609375 160 c 1
 608 160 l 2
 667.127619031 160 667.127619031 160 716.799804688 224 c 1
 601.599609375 224 l 1
755.200195312 288 m 1
 793.677266545 372.044504265 793.677266545 372.044504265 799.360351562 480 c 1
 671.360351562 480 l 1
 666.625732361 376.791947501 666.625732361 376.791947501 632.3203125 288 c 1
 755.200195312 288 l 1
671.360351562 544 m 1
 799.360351562 544 l 1
 793.677266545 651.955495735 793.677266545 651.955495735 755.200195312 736 c 1
 632.3203125 736 l 1
 666.625732361 647.208052499 666.625732361 647.208052499 671.360351562 544 c 1
794.240234375 224.639648438 m 0
 759.897777406 165.551202952 759.897777406 165.551202952 712.065941608 130.775601476 c 0
 664.23410581 96 664.23410581 96 608 96 c 2
 416 96 l 2
 359.920709903 96 359.920709903 96 312.087416158 130.89880439 c 0
 264.254122413 165.797608779 264.254122413 165.797608779 229.759765625 224.639648438 c 0
 160 344.668585446 160 344.668585446 160 512 c 0
 160 679.331414554 160 679.331414554 229.759765625 799.360351562 c 0
 264.102222594 858.448797048 264.102222594 858.448797048 311.934058392 893.224398524 c 0
 359.76589419 928 359.76589419 928 416 928 c 2
 608 928 l 2
 664.23410581 928 664.23410581 928 712.065941608 893.224398524 c 0
 759.897777406 858.448797048 759.897777406 858.448797048 794.240234375 799.360351562 c 0
 864 679.331414554 864 679.331414554 864 512 c 0
 864 344.668585446 864 344.668585446 794.240234375 224.639648438 c 0
716.799804688 800 m 1
 667.127619031 864 667.127619031 864 608 864 c 2
 553.599609375 864 l 1
 579.487197828 837.188358662 579.487197828 837.188358662 601.599609375 800 c 1
 716.799804688 800 l 1
EndSplineSet
EndChar

StartChar: uniE01D
Encoding: 57373 57373 32
Width: 1024
Flags: H
LayerCount: 2
Fore
SplineSet
288 896 m 2
 864 896 l 2
 877 896 877 896 886.5 886.5 c 0
 896 877 896 877 896 864 c 2
 896 288 l 2
 896 275 896 275 886.5 265.5 c 0
 877 256 877 256 864 256 c 0
 851 256 851 256 841.5 265.5 c 0
 832 275 832 275 832 288 c 2
 832 832 l 1
 288 832 l 2
 275 832 275 832 265.5 841.5 c 0
 256 851 256 851 256 864 c 0
 256 877 256 877 265.5 886.5 c 0
 275 896 275 896 288 896 c 2
160 768 m 2
 736 768 l 2
 749 768 749 768 758.5 758.5 c 0
 768 749 768 749 768 736 c 2
 768 160 l 2
 768 147 768 147 758.5 137.5 c 0
 749 128 749 128 736 128 c 2
 160 128 l 2
 147 128 147 128 137.5 137.5 c 0
 128 147 128 147 128 160 c 2
 128 736 l 2
 128 749 128 749 137.5 758.5 c 0
 147 768 147 768 160 768 c 2
192 192 m 1
 704 192 l 1
 704 704 l 1
 192 704 l 1
 192 192 l 1
EndSplineSet
EndChar

StartChar: uniE01E
Encoding: 57374 57374 33
Width: 1024
Flags: H
LayerCount: 2
Fore
SplineSet
512 864 m 0
 366 864 366 864 263 761 c 0
 160 658 160 658 160 512 c 0
 160 366 160 366 263 263 c 0
 366 160 366 160 512 160 c 0
 658 160 658 160 761 263 c 0
 864 366 864 366 864 512 c 0
 864 658 864 658 761 761 c 0
 658 864 658 864 512 864 c 0
96 512 m 0
 96 684 96 684 218 806 c 0
 340 928 340 928 512 928 c 0
 684 928 684 928 806 806 c 0
 928 684 928 684 928 512 c 0
 928 340 928 340 806 218 c 0
 684 96 684 96 512 96 c 0
 340 96 340 96 218 218 c 0
 96 340 96 340 96 512 c 0
544 736 m 2
 544 704 l 1
 608 704 l 2
 621 704 621 704 630.5 694.5 c 0
 640 685 640 685 640 672 c 0
 640 659 640 659 630.5 649.5 c 0
 621 640 621 640 608 640 c 2
 512 640 l 1
 464 640 l 2
 444.16015625 640 444.16015625 640 430.080078125 625.919921875 c 0
 416 611.83984375 416 611.83984375 416 592 c 0
 416 572.16015625 416 572.16015625 430.080078125 558.080078125 c 0
 444.16015625 544 444.16015625 544 464 544 c 2
 560 544 l 2
 606.720703125 544 606.720703125 544 639.360351562 511.360351562 c 0
 672 478.720703125 672 478.720703125 672 432 c 0
 672 385.279296875 672 385.279296875 639.360351562 352.639648438 c 0
 606.720703125 320 606.720703125 320 560 320 c 2
 544 320 l 1
 544 288 l 2
 544 275 544 275 534.5 265.5 c 0
 525 256 525 256 512 256 c 0
 499 256 499 256 489.5 265.5 c 0
 480 275 480 275 480 288 c 2
 480 320 l 1
 416 320 l 2
 403 320 403 320 393.5 329.5 c 0
 384 339 384 339 384 352 c 0
 384 365 384 365 393.5 374.5 c 0
 403 384 403 384 416 384 c 2
 512 384 l 1
 560 384 l 2
 579.83984375 384 579.83984375 384 593.919921875 398.080078125 c 0
 608 412.16015625 608 412.16015625 608 432 c 0
 608 451.83984375 608 451.83984375 593.919921875 465.919921875 c 0
 579.83984375 480 579.83984375 480 560 480 c 2
 464 480 l 2
 417.279296875 480 417.279296875 480 384.639648438 512.639648438 c 0
 352 545.279296875 352 545.279296875 352 592 c 0
 352 638.720703125 352 638.720703125 384.639648438 671.360351562 c 0
 417.279296875 704 417.279296875 704 464 704 c 2
 480 704 l 1
 480 736 l 2
 480 749 480 749 489.5 758.5 c 0
 499 768 499 768 512 768 c 0
 525 768 525 768 534.5 758.5 c 0
 544 749 544 749 544 736 c 2
EndSplineSet
EndChar

StartChar: uniE01F
Encoding: 57375 57375 34
Width: 1024
Flags: H
LayerCount: 2
Fore
SplineSet
544 928 m 2
 544 864 l 1
 576 864 l 2
 613.289952235 864 613.289952235 864 649.599609375 849.280273438 c 0
 684.708798387 834.650576613 684.708798387 834.650576613 711.6796875 807.6796875 c 0
 738.650576613 780.708798387 738.650576613 780.708798387 753.280273438 745.599609375 c 0
 768 709.289952235 768 709.289952235 768 672 c 0
 768 659 768 659 758.5 649.5 c 0
 749 640 749 640 736 640 c 0
 723 640 723 640 713.5 649.5 c 0
 704 659 704 659 704 672 c 0
 704 698.238574085 704 698.238574085 694.400390625 721.280273438 c 0
 684.342135596 745.417630029 684.342135596 745.417630029 666.879882812 762.879882812 c 0
 647.686768161 781.063401407 647.686768161 781.063401407 625.280273438 790.400390625 c 0
 601.279052623 800 601.279052623 800 576 800 c 2
 544 800 l 1
 544 544 l 1
 608 544 l 2
 687.359375 544 687.359375 544 743.6796875 487.6796875 c 0
 800 431.359375 800 431.359375 800 352 c 0
 800 272.640625 800 272.640625 743.6796875 216.3203125 c 0
 687.359375 160 687.359375 160 608 160 c 2
 544 160 l 1
 544 96 l 2
 544 83 544 83 534.5 73.5 c 0
 525 64 525 64 512 64 c 0
 499 64 499 64 489.5 73.5 c 0
 480 83 480 83 480 96 c 2
 480 160 l 1
 416 160 l 2
 336.640625 160 336.640625 160 280.3203125 216.3203125 c 0
 224 272.640625 224 272.640625 224 352 c 0
 224 365 224 365 233.5 374.5 c 0
 243 384 243 384 256 384 c 0
 269 384 269 384 278.5 374.5 c 0
 288 365 288 365 288 352 c 0
 288 298.527888206 288 298.527888206 325.759765625 261.759765625 c 0
 362.527888206 224 362.527888206 224 416 224 c 2
 480 224 l 1
 480 480 l 1
 432 480 l 2
 352.640625 480 352.640625 480 296.3203125 536.3203125 c 0
 240 592.640625 240 592.640625 240 672 c 0
 240 751.359375 240 751.359375 296.3203125 807.6796875 c 0
 352.640625 864 352.640625 864 432 864 c 2
 480 864 l 1
 480 928 l 2
 480 941 480 941 489.5 950.5 c 0
 499 960 499 960 512 960 c 0
 525 960 525 960 534.5 950.5 c 0
 544 941 544 941 544 928 c 2
480 800 m 1
 432 800 l 2
 378.527888206 800 378.527888206 800 341.759765625 762.240234375 c 0
 304 725.472111794 304 725.472111794 304 672 c 0
 304 618.527888206 304 618.527888206 341.759765625 581.759765625 c 0
 378.527888206 544 378.527888206 544 432 544 c 2
 480 544 l 1
 480 800 l 1
544 480 m 1
 544 224 l 1
 608 224 l 2
 661.472111794 224 661.472111794 224 698.240234375 261.759765625 c 0
 736 300.541075553 736 300.541075553 736 352 c 0
 736 405.472111794 736 405.472111794 698.240234375 442.240234375 c 0
 661.472111794 480 661.472111794 480 608 480 c 2
 544 480 l 1
EndSplineSet
EndChar

StartChar: uniE020
Encoding: 57376 57376 35
Width: 1024
Flags: H
LayerCount: 2
Fore
SplineSet
864 320 m 2
 864 384 l 1
 160 384 l 1
 160 320 l 2
 160 307 160 307 169.5 297.5 c 0
 179 288 179 288 192 288 c 2
 512 288 l 1
 832 288 l 2
 845 288 845 288 854.5 297.5 c 0
 864 307 864 307 864 320 c 2
544 224 m 1
 544 160 l 1
 640 160 l 2
 653 160 653 160 662.5 150.5 c 0
 672 141 672 141 672 128 c 0
 672 115 672 115 662.5 105.5 c 0
 653 96 653 96 640 96 c 2
 512 96 l 1
 384 96 l 2
 371 96 371 96 361.5 105.5 c 0
 352 115 352 115 352 128 c 0
 352 141 352 141 361.5 150.5 c 0
 371 160 371 160 384 160 c 2
 480 160 l 1
 480 224 l 1
 192 224 l 2
 152 224 152 224 124 252 c 0
 96 280 96 280 96 320 c 2
 96 416 l 1
 96 768 l 2
 96 808 96 808 124 836 c 0
 152 864 152 864 192 864 c 2
 832 864 l 2
 872 864 872 864 900 836 c 0
 928 808 928 808 928 768 c 2
 928 416 l 1
 928 320 l 2
 928 280 928 280 900 252 c 0
 872 224 872 224 832 224 c 2
 544 224 l 1
160 768 m 2
 160 448 l 1
 864 448 l 1
 864 768 l 2
 864 781 864 781 854.5 790.5 c 0
 845 800 845 800 832 800 c 2
 192 800 l 2
 179 800 179 800 169.5 790.5 c 0
 160 781 160 781 160 768 c 2
EndSplineSet
EndChar

StartChar: uniE021
Encoding: 57377 57377 36
Width: 1024
Flags: H
LayerCount: 2
Fore
SplineSet
245.120117188 554.879882812 m 2
 309.120117188 554.879882812 l 2
 322.560058594 554.879882812 322.560058594 554.879882812 331.840087891 545.599853516 c 0
 341.120117188 536.319824219 341.120117188 536.319824219 341.120117188 522.879882812 c 2
 341.120117188 458.879882812 l 2
 341.120117188 445.439941406 341.120117188 445.439941406 331.840087891 436.159912109 c 0
 322.560058594 426.879882812 322.560058594 426.879882812 309.120117188 426.879882812 c 2
 245.120117188 426.879882812 l 2
 231.680175781 426.879882812 231.680175781 426.879882812 222.400146484 436.159912109 c 0
 213.120117188 445.439941406 213.120117188 445.439941406 213.120117188 458.879882812 c 2
 213.120117188 522.879882812 l 2
 213.120117188 535.840087891 213.120117188 535.840087891 222.640014648 545.359985352 c 0
 232.159912109 554.879882812 232.159912109 554.879882812 245.120117188 554.879882812 c 2
501.120117188 554.879882812 m 2
 565.120117188 554.879882812 l 2
 578.560058594 554.879882812 578.560058594 554.879882812 587.840087891 545.599853516 c 0
 597.120117188 536.319824219 597.120117188 536.319824219 597.120117188 522.879882812 c 2
 597.120117188 458.879882812 l 2
 597.120117188 445.439941406 597.120117188 445.439941406 587.840087891 436.159912109 c 0
 578.560058594 426.879882812 578.560058594 426.879882812 565.120117188 426.879882812 c 2
 501.120117188 426.879882812 l 2
 487.680175781 426.879882812 487.680175781 426.879882812 478.400146484 436.159912109 c 0
 469.120117188 445.439941406 469.120117188 445.439941406 469.120117188 458.879882812 c 2
 469.120117188 522.879882812 l 2
 469.120117188 535.840087891 469.120117188 535.840087891 478.640014648 545.359985352 c 0
 488.159912109 554.879882812 488.159912109 554.879882812 501.120117188 554.879882812 c 2
757.120117188 554.879882812 m 2
 821.120117188 554.879882812 l 2
 834.560058594 554.879882812 834.560058594 554.879882812 843.840087891 545.599853516 c 0
 853.120117188 536.319824219 853.120117188 536.319824219 853.120117188 522.879882812 c 2
 853.120117188 458.879882812 l 2
 853.120117188 445.439941406 853.120117188 445.439941406 843.840087891 436.159912109 c 0
 834.560058594 426.879882812 834.560058594 426.879882812 821.120117188 426.879882812 c 2
 757.120117188 426.879882812 l 2
 743.680175781 426.879882812 743.680175781 426.879882812 734.400146484 436.159912109 c 0
 725.120117188 445.439941406 725.120117188 445.439941406 725.120117188 458.879882812 c 2
 725.120117188 522.879882812 l 2
 725.120117188 535.840087891 725.120117188 535.840087891 734.640014648 545.359985352 c 0
 744.159912109 554.879882812 744.159912109 554.879882812 757.120117188 554.879882812 c 2
EndSplineSet
EndChar

StartChar: uniE022
Encoding: 57378 57378 37
Width: 1024
Flags: H
LayerCount: 2
Fore
SplineSet
512 704 m 0
 486 704 486 704 467 723 c 0
 448 742 448 742 448 768 c 0
 448 794 448 794 467 813 c 0
 486 832 486 832 512 832 c 0
 538 832 538 832 557 813 c 0
 576 794 576 794 576 768 c 0
 576 742 576 742 557 723 c 0
 538 704 538 704 512 704 c 0
512 448 m 0
 486 448 486 448 467 467 c 0
 448 486 448 486 448 512 c 0
 448 538 448 538 467 557 c 0
 486 576 486 576 512 576 c 0
 538 576 538 576 557 557 c 0
 576 538 576 538 576 512 c 0
 576 486 576 486 557 467 c 0
 538 448 538 448 512 448 c 0
576 256 m 0
 576 230 576 230 557 211 c 0
 538 192 538 192 512 192 c 0
 486 192 486 192 467 211 c 0
 448 230 448 230 448 256 c 0
 448 282 448 282 467 301 c 0
 486 320 486 320 512 320 c 0
 538 320 538 320 557 301 c 0
 576 282 576 282 576 256 c 0
EndSplineSet
EndChar

StartChar: uniE023
Encoding: 57379 57379 38
Width: 1024
Flags: H
LayerCount: 2
Fore
SplineSet
128 832 m 2
 896 832 l 2
 909 832 909 832 918.5 822.5 c 0
 928 813 928 813 928 800 c 2
 928 256 l 2
 928 228.144282462 928 228.144282462 909.440429688 210.559570312 c 0
 889.848723217 192 889.848723217 192 864 192 c 2
 160 192 l 2
 134.151276783 192 134.151276783 192 114.559570312 210.559570312 c 0
 96 230.151276783 96 230.151276783 96 256 c 2
 96 800 l 2
 96 813 96 813 105.5 822.5 c 0
 115 832 115 832 128 832 c 2
160 714.879882812 m 1
 160 256 l 1
 864 256 l 1
 864 727.040039062 l 1
 533.759765625 424.3203125 l 2
 524.639648438 415.679931641 524.639648438 415.679931641 512.239868164 415.679931641 c 0
 499.840087891 415.679931641 499.840087891 415.679931641 490.240234375 424.3203125 c 2
 160 714.879882812 l 1
813.440429688 768 m 1
 196.48046875 768 l 1
 512 491.51953125 l 1
 813.440429688 768 l 1
EndSplineSet
EndChar

StartChar: uniE024
Encoding: 57380 57380 39
Width: 1024
Flags: H
LayerCount: 2
Fore
SplineSet
529.919921875 890.879882812 m 2
 913.919921875 634.879882812 l 2
 928 624.823561074 928 624.823561074 928 608 c 2
 928 192 l 2
 928 164.144282462 928 164.144282462 909.440429688 146.559570312 c 0
 889.848723217 128 889.848723217 128 864 128 c 2
 160 128 l 2
 134.151276783 128 134.151276783 128 114.559570312 146.559570312 c 0
 96 166.151276783 96 166.151276783 96 192 c 2
 96 608 l 2
 96 625.067230914 96 625.067230914 110.719726562 634.879882812 c 2
 494.719726562 890.879882812 l 2
 511.786783854 902.61328125 511.786783854 902.61328125 529.919921875 890.879882812 c 2
160 552.3203125 m 1
 160 192 l 1
 864 192 l 1
 864 549.120117188 l 1
 600.3203125 357.759765625 l 2
 592.640136719 352 592.640136719 352 581.759765625 352 c 2
 442.240234375 352 l 2
 431.359863281 352 431.359863281 352 423.6796875 357.759765625 c 2
 160 552.3203125 l 1
837.120117188 608.639648438 m 1
 512 825.599609375 l 1
 189.440429688 610.559570312 l 1
 452.48046875 416 l 1
 572.16015625 416 l 1
 837.120117188 608.639648438 l 1
EndSplineSet
EndChar

StartChar: uniE025
Encoding: 57381 57381 40
Width: 1024
Flags: H
LayerCount: 2
Fore
SplineSet
989.440429688 524.799804688 m 1
 994.396547788 511.911779627 994.396547788 511.911779627 988.799804688 497.919921875 c 1
 988.799804688 497.919921875 l 1
 988.799804688 497.919921875 l 1
 988.16015625 497.280273438 l 2
 988.16015625 496.884614942 988.16015625 496.884614942 987.578216919 495.943262997 c 0
 987.124475892 495.209286146 987.124475892 495.209286146 986.879882812 494.719726562 c 0
 986.499787229 493.959825324 986.499787229 493.959825324 985.647107212 492.112233119 c 0
 984.794427195 490.264640914 984.794427195 490.264640914 983.84605685 488.36791011 c 0
 982.897686505 486.471179306 982.897686505 486.471179306 981.759765625 484.48046875 c 0
 969.929034993 462.505795764 969.929034993 462.505795764 961.919921875 449.919921875 c 0
 924.960723859 391.840606672 924.960723859 391.840606672 878.719726562 345.599609375 c 0
 726.399414062 192 726.399414062 192 512 192 c 0
 296.351793321 192 296.351793321 192 145.280273438 346.879882812 c 0
 96.8684386803 395.29046555 96.8684386803 395.29046555 62.080078125 451.200195312 c 0
 54.0765732758 463.777256121 54.0765732758 463.777256121 42.240234375 485.759765625 c 0
 41.1023468989 487.75085172 41.1023468989 487.75085172 40.1538916787 489.64799013 c 0
 39.2054364586 491.54512854 39.2054364586 491.54512854 38.3529442588 493.392374454 c 0
 37.5004520589 495.239620368 37.5004520589 495.239620368 37.1201171875 496 c 0
 36.8004760975 496.31964109 36.8004760975 496.31964109 36.4804076684 497.279602237 c 0
 36.1603392392 498.239563383 36.1603392392 498.239563383 35.83984375 498.559570312 c 2
 35.2001953125 499.200195312 l 1
 35.2001953125 499.200195312 l 1
 35.2001953125 499.200195312 l 1
 29.1448750729 512.319542495 29.1448750729 512.319542495 35.2001953125 525.440429688 c 1
 35.2001953125 525.440429688 l 1
 35.2001953125 525.440429688 l 1
 35.2001953125 526.080078125 l 2
 35.5518847626 526.431767575 35.5518847626 526.431767575 35.8825505988 527.58897189 c 0
 36.213216435 528.746176204 36.213216435 528.746176204 36.48046875 529.280273438 c 0
 36.8602767568 530.040179381 36.8602767568 530.040179381 37.8549701004 531.887767924 c 0
 38.849663444 533.735356466 38.849663444 533.735356466 39.7980246913 535.632088847 c 0
 40.7463859385 537.528821228 40.7463859385 537.528821228 41.599609375 539.51953125 c 0
 49.9219105979 554.974196991 49.9219105979 554.974196991 62.080078125 574.080078125 c 0
 99.0392761405 632.159393328 99.0392761405 632.159393328 145.280273438 678.400390625 c 0
 297.600585938 832 297.600585938 832 512 832 c 0
 726.394122579 832 726.394122579 832 879.360351562 677.759765625 c 0
 927.77327192 629.346845267 927.77327192 629.346845267 962.559570312 573.440429688 c 0
 970.558261959 560.870932558 970.558261959 560.870932558 982.400390625 538.879882812 c 0
 982.423706561 538.839077701 982.423706561 538.839077701 987.51953125 528.639648438 c 0
 987.840026739 528.319641508 987.840026739 528.319641508 988.160095168 527.359680362 c 0
 988.480163598 526.399719215 988.480163598 526.399719215 988.799804688 526.080078125 c 2
 989.440429688 524.799804688 l 1
 989.440429688 524.799804688 l 1
 989.440429688 524.799804688 l 1
908.16015625 483.83984375 m 0
 918.156044291 500.197381719 918.156044291 500.197381719 923.51953125 512 c 1
 920.014391301 519.713233789 920.014391301 519.713233789 907.51953125 540.16015625 c 0
 875.51790358 591.361979233 875.51790358 591.361979233 833.280273438 633.599609375 c 0
 697.600585938 768 697.600585938 768 512 768 c 0
 327.0390625 768 327.0390625 768 190.080078125 633.599609375 c 0
 147.83984375 591.359375 147.83984375 591.359375 115.83984375 540.16015625 c 0
 109.877485179 530.403193556 109.877485179 530.403193556 99.83984375 512 c 1
 109.877485179 493.596806444 109.877485179 493.596806444 115.83984375 483.83984375 c 0
 148.982078082 432.138039105 148.982078082 432.138039105 190.719726562 390.400390625 c 0
 326.399414062 256 326.399414062 256 512 256 c 0
 696.9609375 256 696.9609375 256 833.919921875 390.400390625 c 0
 876.16015625 432.640625 876.16015625 432.640625 908.16015625 483.83984375 c 0
512 704 m 0
 592 704 592 704 648 648 c 0
 704 592 704 592 704 512 c 0
 704 432 704 432 648 376 c 0
 592 320 592 320 512 320 c 0
 432 320 432 320 376 376 c 0
 320 432 320 432 320 512 c 0
 320 592 320 592 376 648 c 0
 432 704 432 704 512 704 c 0
512 384 m 0
 565 384 565 384 602.5 421.5 c 0
 640 459 640 459 640 512 c 0
 640 565 640 565 602.5 602.5 c 0
 565 640 565 640 512 640 c 0
 459 640 459 640 421.5 602.5 c 0
 384 565 384 565 384 512 c 0
 384 459 384 459 421.5 421.5 c 0
 459 384 459 384 512 384 c 0
EndSplineSet
EndChar

StartChar: uniE026
Encoding: 57382 57382 41
Width: 1024
Flags: H
LayerCount: 2
Fore
SplineSet
913.280273438 494.080078125 m 1
 914.559570312 495.360351562 l 1
 914.559570312 496 l 1
 913.280273438 494.080078125 l 1
990.080078125 525.440429688 m 2
 999.21508715 508.183347531 999.21508715 508.183347531 988.799804688 491.51953125 c 2
 967.6796875 460.16015625 l 2
 967.327900379 459.456044928 967.327900379 459.456044928 966.170758945 457.967931277 c 0
 965.013617511 456.479817626 965.013617511 456.479817626 964.48046875 455.6796875 c 0
 904.457935642 368.376833997 904.457935642 368.376833997 855.040039062 323.83984375 c 0
 845.038994517 315.107705759 845.038994517 315.107705759 831.599853516 315.760131836 c 0
 818.160712514 316.412557913 818.160712514 316.412557913 809.599609375 326.400390625 c 0
 800.867459357 336.400699161 800.867459357 336.400699161 801.519897461 349.840087891 c 0
 802.172335565 363.27947662 802.172335565 363.27947662 812.16015625 371.83984375 c 0
 857.783036208 412.322918491 857.783036208 412.322918491 911.360351562 491.51953125 c 0
 911.680175781 492.159667969 911.680175781 492.159667969 912.640136719 493.439941406 c 0
 913.600097656 494.720214844 913.600097656 494.720214844 913.919921875 495.360351562 c 2
 914.559570312 496 l 1
 914.559570312 495.360351562 l 1
 915.200195312 496 l 1
 924.799804688 510.719726562 l 1
 920.3203125 518.400390625 l 1
 913.919921875 529.280273438 l 1
 913.919921875 529.280273438 l 1
 897.790424289 556.321178522 897.790424289 556.321178522 877.887593466 582.638584815 c 0
 857.984762643 608.955991109 857.984762643 608.955991109 820.821023721 644.313485497 c 0
 783.6572848 679.670979886 783.6572848 679.670979886 741.777452841 705.497959815 c 0
 699.897620883 731.324939745 699.897620883 731.324939745 638.938148721 749.662469872 c 0
 577.97867656 768 577.97867656 768 511.360351562 768 c 0
 470.489198214 768 470.489198214 768 433.919921875 761.599609375 c 0
 420.556661711 759.213885108 420.556661711 759.213885108 409.644110893 767.008479309 c 0
 398.731560074 774.803073509 398.731560074 774.803073509 396.799804688 787.83984375 c 0
 394.864419896 800.906090937 394.864419896 800.906090937 402.604493695 811.742312361 c 0
 410.344567493 822.578533784 410.344567493 822.578533784 423.6796875 824.959960938 c 0
 468.933574168 832 468.933574168 832 511.360351562 832 c 0
 587.919453207 832 587.919453207 832 657.839784995 810.884440471 c 0
 727.760116782 789.768880943 727.760116782 789.768880943 775.268613443 760.433418904 c 0
 822.777110103 731.097956865 822.777110103 731.097956865 865.127753745 690.625956096 c 0
 907.478397387 650.153955328 907.478397387 650.153955328 929.411113443 621.128450154 c 0
 951.343829499 592.10294498 951.343829499 592.10294498 969.599609375 561.919921875 c 1
 969.599609375 561.280273438 l 1
 990.080078125 525.440429688 l 2
606.080078125 598.400390625 m 0
 578.418231493 628.922151423 578.418231493 628.922151423 535.6796875 638.080078125 c 0
 522.71128821 640.481877858 522.71128821 640.481877858 515.196433147 651.365379244 c 0
 507.681578085 662.24888063 507.681578085 662.24888063 510.080078125 675.200195312 c 0
 512.481841948 688.169133626 512.481841948 688.169133626 523.365265125 695.683736986 c 0
 534.248688303 703.198340346 534.248688303 703.198340346 547.200195312 700.799804688 c 0
 609.605755416 689.099227126 609.605755416 689.099227126 653.440429688 641.280273438 c 0
 696.807783972 593.967971337 696.807783972 593.967971337 702.719726562 529.919921875 c 0
 703.683889414 516.906297423 703.683889414 516.906297423 695.175022225 506.85039924 c 0
 686.666155035 496.794501057 686.666155035 496.794501057 673.280273438 495.360351562 c 0
 660.435687257 493.933255974 660.435687257 493.933255974 650.30446376 502.505524796 c 0
 640.173240263 511.077793618 640.173240263 511.077793618 638.719726562 524.16015625 c 0
 634.758084013 566.754237535 634.758084013 566.754237535 606.080078125 598.400390625 c 0
751.360351562 295.6796875 m 2
 855.6796875 182.400390625 l 2
 864.719128176 172.243423519 864.719128176 172.243423519 864.079711914 159.200073242 c 0
 863.440295652 146.156722965 863.440295652 146.156722965 853.759765625 136.959960938 c 0
 843.603534509 127.920516505 843.603534509 127.920516505 830.560302734 128.559936523 c 0
 817.517070959 129.199356541 817.517070959 129.199356541 808.3203125 138.879882812 c 2
 720 235.51953125 l 1
 620.374119225 191.027193218 620.374119225 191.027193218 511.360351562 192 c 0
 441.535321878 192 441.535321878 192 377.185828526 209.537969436 c 0
 312.836335175 227.075938871 312.836335175 227.075938871 266.987140224 252.613858689 c 0
 221.137945272 278.151778508 221.137945272 278.151778508 179.860906651 313.555985061 c 0
 138.583868031 348.960191613 138.583868031 348.960191613 114.206358974 377.828514939 c 0
 89.8288499163 406.696838266 89.8288499163 406.696838266 69.1201171875 437.759765625 c 2
 35.2001953125 489.599609375 l 2
 25.6005859375 505.600585938 25.6005859375 505.600585938 33.2802734375 520.959960938 c 2
 48.6396484375 554.240234375 l 2
 49.9228575354 556.802740348 49.9228575354 556.802740348 51.2001953125 558.080078125 c 2
 71.6796875 590.080078125 l 1
 72.3203125 590.719726562 l 1
 142.155676521 694.790570327 142.155676521 694.790570327 244.48046875 757.759765625 c 1
 167.6796875 842.240234375 l 2
 158.640243068 852.396465491 158.640243068 852.396465491 159.279663086 865.439697266 c 0
 159.919083104 878.482929041 159.919083104 878.482929041 169.599609375 887.6796875 c 0
 179.756576481 896.719128176 179.756576481 896.719128176 192.799926758 896.079711914 c 0
 205.843277035 895.440295652 205.843277035 895.440295652 215.040039062 885.759765625 c 2
 318.719726562 771.83984375 l 2
 318.719726562 771.520141602 318.719726562 771.520141602 319.040039062 771.200073242 c 0
 426.879882812 652.799804688 l 1
 427.51953125 652.16015625 l 1
 750.080078125 296.959960938 l 2
 750.324338405 296.715700658 750.324338405 296.715700658 751.360351562 295.6796875 c 2
387.200195312 541.440429688 m 0
 377.476817618 503.521630404 377.476817618 503.521630404 392.3203125 465.919921875 c 0
 405.683233343 429.648512538 405.683233343 429.648512538 439.040039062 406.400390625 c 0
 471.178373151 384 471.178373151 384 511.360351562 384 c 0
 543.060894086 384 543.060894086 384 571.51953125 398.719726562 c 1
 404.48046875 582.400390625 l 1
 391.895935741 563.039116132 391.895935741 563.039116132 387.200195312 541.440429688 c 0
512 256 m 0
 595.44496699 255.030243371 595.44496699 255.030243371 673.919921875 285.440429688 c 1
 615.040039062 350.080078125 l 1
 568.464481985 320 568.464481985 320 511.360351562 320 c 0
 451.015756554 320 451.015756554 320 402.559570312 353.919921875 c 0
 354.186567613 386.813209416 354.186567613 386.813209416 332.16015625 442.879882812 c 0
 310.992589178 499.324677663 310.992589178 499.324677663 324.48046875 556.16015625 c 0
 333.941368297 596.845056179 333.941368297 596.845056179 360.3203125 631.040039062 c 1
 288.639648438 709.759765625 l 1
 192.731815177 654.398807399 192.731815177 654.398807399 125.440429688 555.51953125 c 2
 105.599609375 524.799804688 l 1
 98.5595703125 509.440429688 l 1
 122.879882812 472.959960938 l 2
 141.673537741 444.993090606 141.673537741 444.993090606 163.499504103 419.277226169 c 0
 185.325470464 393.561361733 185.325470464 393.561361733 221.72887871 362.428953518 c 0
 258.132286955 331.296545303 258.132286955 331.296545303 298.411550978 308.931007419 c 0
 338.690815001 286.565469536 338.690815001 286.565469536 394.88740996 271.282734768 c 0
 451.084004919 256 451.084004919 256 512 256 c 0
EndSplineSet
EndChar

StartChar: uniE027
Encoding: 57383 57383 42
Width: 1024
Flags: H
LayerCount: 2
Fore
SplineSet
451.83984375 906.240234375 m 2
 461.706233613 933.371865589 461.706233613 933.371865589 486.853116807 943.786458333 c 0
 512 954.201051078 512 954.201051078 537.146883193 943.786458333 c 0
 562.293766387 933.371865589 562.293766387 933.371865589 572.16015625 906.240234375 c 2
 657.280273438 672.639648438 l 1
 905.599609375 663.6796875 l 2
 934.292962639 662.754141018 934.292962639 662.754141018 951.98067553 642.074842474 c 0
 969.668388421 621.39554393 969.668388421 621.39554393 967.592566658 594.191759088 c 0
 965.516744895 566.987974247 965.516744895 566.987974247 942.719726562 549.120117188 c 2
 746.879882812 396.799804688 l 1
 815.360351562 158.080078125 l 2
 823.372964864 130.3437111 823.372964864 130.3437111 808.486111111 106.690538194 c 0
 793.599257358 83.0373652891 793.599257358 83.0373652891 768.90093316 78.0562065972 c 0
 744.202608961 73.0750479053 744.202608961 73.0750479053 718.080078125 87.6796875 c 2
 512 225.919921875 l 1
 305.919921875 87.0400390625 l 2
 279.797394999 72.7434276795 279.797394999 72.7434276795 255.09906684 77.8429904514 c 0
 230.400738681 82.9425532233 230.400738681 82.9425532233 215.513888889 106.477322049 c 0
 200.627039096 130.012090874 200.627039096 130.012090874 208.639648438 157.440429688 c 2
 277.120117188 396.799804688 l 1
 81.2802734375 549.759765625 l 2
 58.7673405551 567.338318377 58.7673405551 567.338318377 56.6821683063 594.385646675 c 0
 54.5969960575 621.432974974 54.5969960575 621.432974974 72.1710217979 642.094171033 c 0
 89.7450475382 662.755367093 89.7450475382 662.755367093 118.400390625 663.6796875 c 2
 366.719726562 672.639648438 l 1
 451.83984375 906.240234375 l 2
EndSplineSet
EndChar

StartChar: uniE028
Encoding: 57384 57384 43
Width: 1024
Flags: H
LayerCount: 2
Fore
SplineSet
451.83984375 906.240234375 m 2
 461.706233613 933.371865589 461.706233613 933.371865589 486.853116807 943.786458333 c 0
 512 954.201051078 512 954.201051078 537.146883193 943.786458333 c 0
 562.293766387 933.371865589 562.293766387 933.371865589 572.16015625 906.240234375 c 2
 657.280273438 672.639648438 l 1
 905.599609375 663.6796875 l 2
 934.292962639 662.754141018 934.292962639 662.754141018 951.98067553 642.074842474 c 0
 969.668388421 621.39554393 969.668388421 621.39554393 967.592566658 594.191759088 c 0
 965.516744895 566.987974247 965.516744895 566.987974247 942.719726562 549.120117188 c 2
 746.879882812 396.799804688 l 1
 815.360351562 158.080078125 l 2
 823.372964864 130.3437111 823.372964864 130.3437111 808.486111111 106.690538194 c 0
 793.599257358 83.0373652891 793.599257358 83.0373652891 768.90093316 78.0562065972 c 0
 744.202608961 73.0750479053 744.202608961 73.0750479053 718.080078125 87.6796875 c 2
 512 225.919921875 l 1
 305.919921875 87.0400390625 l 2
 279.797394999 72.7434276795 279.797394999 72.7434276795 255.09906684 77.8429904514 c 0
 230.400738681 82.9425532233 230.400738681 82.9425532233 215.513888889 106.477322049 c 0
 200.627039096 130.012090874 200.627039096 130.012090874 208.639648438 157.440429688 c 2
 277.120117188 396.799804688 l 1
 81.2802734375 549.759765625 l 2
 58.7673405551 567.338318377 58.7673405551 567.338318377 56.6821683063 594.385646675 c 0
 54.5969960575 621.432974974 54.5969960575 621.432974974 72.1710217979 642.094171033 c 0
 89.7450475382 662.755367093 89.7450475382 662.755367093 118.400390625 663.6796875 c 2
 366.719726562 672.639648438 l 1
 451.83984375 906.240234375 l 2
512 883.83984375 m 1
 426.879882812 650.879882812 l 2
 420.183004499 632.702328859 420.183004499 632.702328859 404.365175743 621.152775736 c 0
 388.547346988 609.603222613 388.547346988 609.603222613 369.280273438 608.639648438 c 2
 120.959960938 599.6796875 l 1
 316.799804688 446.719726562 l 2
 332.180529627 434.703810226 332.180529627 434.703810226 338.326903151 416.139515167 c 0
 344.473276675 397.575220107 344.473276675 397.575220107 339.200195312 378.879882812 c 2
 270.719726562 140.16015625 l 1
 476.799804688 279.040039062 l 2
 493.119628906 290.079833984 493.119628906 290.079833984 512.639770508 290.079833984 c 0
 532.159912109 290.079833984 532.159912109 290.079833984 548.48046875 279.040039062 c 2
 754.559570312 140.16015625 l 1
 686.080078125 378.879882812 l 2
 680.753801062 397.763821702 680.753801062 397.763821702 686.762998886 416.291704102 c 0
 692.772196709 434.819586501 692.772196709 434.819586501 708.48046875 446.719726562 c 2
 904.3203125 599.6796875 l 1
 656 608.639648438 l 2
 636.37375642 609.118800495 636.37375642 609.118800495 620.75642062 620.61327708 c 0
 605.13908482 632.107753666 605.13908482 632.107753666 598.400390625 650.879882812 c 2
 512 883.83984375 l 1
EndSplineSet
EndChar

StartChar: uniE029
Encoding: 57385 57385 44
Width: 1024
Flags: H
LayerCount: 2
Fore
SplineSet
876.799804688 857.599609375 m 1
 885.866373698 857.599609375 885.866373698 857.599609375 890.933186849 849.999679567 c 0
 896 842.399749759 896 842.399749759 896 832 c 2
 896 345.599609375 l 2
 896 332.801757962 896 332.801757962 883.200195312 320 c 0
 788.817315009 251.358024255 788.817315009 251.358024255 678.400390625 262.400390625 c 0
 648.533809361 265.386775315 648.533809361 265.386775315 614.399912111 275.413597124 c 0
 580.266014861 285.440418932 580.266014861 285.440418932 558.933746743 294.186663293 c 0
 537.601478625 302.932907654 537.601478625 302.932907654 499.200195312 320 c 0
 401.527958361 363.40877913 401.527958361 363.40877913 339.200195312 371.200195312 c 0
 258.558988266 382.719363264 258.558988266 382.719363264 192 332.799804688 c 1
 192 160 l 2
 192 146 192 146 183 137 c 0
 174 128 174 128 160 128 c 0
 146 128 146 128 137 137 c 0
 128 146 128 146 128 160 c 2
 128 832 l 1
 128 838.400390625 l 1
 128 844.799804688 l 1
 134.400390625 851.200195312 l 1
 140.799804688 857.599609375 l 1
 235.181828835 926.240962462 235.181828835 926.240962462 345.599609375 915.200195312 c 0
 368.034428778 912.956576441 368.034428778 912.956576441 393.675428727 906.747241504 c 0
 419.316428676 900.537906567 419.316428676 900.537906567 436.424119613 894.852810376 c 0
 453.531810549 889.167714185 453.531810549 889.167714185 482.675672868 878.747272021 c 0
 511.819535186 868.326829858 511.819535186 868.326829858 524.799804688 864 c 0
 529.756769945 861.796960357 529.756769945 861.796960357 545.7108125 854.635595697 c 0
 561.664855054 847.474231036 561.664855054 847.474231036 567.301676819 845.014642341 c 0
 572.938498584 842.555053645 572.938498584 842.555053645 586.835858276 836.7356018 c 0
 600.733217968 830.916149955 600.733217968 830.916149955 607.601603577 828.614556891 c 0
 614.469989185 826.312963828 614.469989185 826.312963828 626.460720947 822.435461419 c 0
 638.451452709 818.557959011 638.451452709 818.557959011 646.701457093 817.0143982 c 0
 654.951461476 815.470837389 654.951461476 815.470837389 665.185620239 814.135321038 c 0
 675.419779002 812.799804688 675.419779002 812.799804688 684.799804688 812.799804688 c 0
 773.022874228 801.772972692 773.022874228 801.772972692 844.799804688 857.599609375 c 0
 855.467013883 868.266818571 855.467013883 868.266818571 876.799804688 857.599609375 c 1
832 371.200195312 m 1
 832 768 l 1
 760.318359366 732.15986329 760.318359366 732.15986329 678.400390625 742.400390625 c 0
 648.533809361 745.386775315 648.533809361 745.386775315 614.399912111 755.413597124 c 0
 580.266014861 765.440418932 580.266014861 765.440418932 558.933746743 774.186663293 c 0
 537.601478625 782.932907654 537.601478625 782.932907654 499.200195312 800 c 0
 401.527958361 843.40877913 401.527958361 843.40877913 339.200195312 851.200195312 c 0
 258.558988266 862.719363264 258.558988266 862.719363264 192 812.799804688 c 1
 192 409.599609375 l 1
 263.678515616 445.43955076 263.678515616 445.43955076 345.599609375 435.200195312 c 0
 368.034428778 432.956576441 368.034428778 432.956576441 393.675428727 426.747241504 c 0
 419.316428676 420.537906567 419.316428676 420.537906567 436.424119613 414.852810376 c 0
 453.531810549 409.167714185 453.531810549 409.167714185 482.675672868 398.747272021 c 0
 511.819535186 388.326829858 511.819535186 388.326829858 524.799804688 384 c 0
 622.472041639 340.59122087 622.472041639 340.59122087 684.799804688 332.799804688 c 0
 765.441011734 321.280636736 765.441011734 321.280636736 832 371.200195312 c 1
EndSplineSet
EndChar

StartChar: uniE02A
Encoding: 57386 57386 45
Width: 1024
Flags: H
LayerCount: 2
Fore
SplineSet
168.3203125 864 m 2
 855.6796875 864 l 2
 873.472734327 864 873.472734327 864 890.879882812 853.759765625 c 0
 906.742300434 842.854542601 906.742300434 842.854542601 914.559570312 826.240234375 c 0
 922.000624927 809.497506684 922.000624927 809.497506684 919.040039062 789.759765625 c 0
 916.108670622 771.193438145 916.108670622 771.193438145 903.040039062 757.120117188 c 2
 648.3203125 476.799804688 l 1
 640 240.639648438 l 2
 640 224.959533656 640 224.959533656 632.3203125 210.559570312 c 0
 624.640136719 196.16015625 624.640136719 196.16015625 611.200195312 187.51953125 c 2
 494.080078125 112.639648438 l 2
 493.43917356 112 493.43917356 112 492.799804688 112 c 0
 487.170937094 107.777812404 487.170937094 107.777812404 480 103.6796875 c 0
 471.999816906 98.8800659063 471.999816906 98.8800659063 469.120117188 97.919921875 c 0
 458.879882812 92.7998046875 458.879882812 92.7998046875 450.559570312 92.7998046875 c 0
 432.695171245 91.8078428878 432.695171245 91.8078428878 417.280273438 100.48046875 c 0
 402.285963383 107.976193841 402.285963383 107.976193841 392.959960938 123.51953125 c 0
 384 137.4592738 384 137.4592738 384 154.879882812 c 2
 375.6796875 476.799804688 l 1
 120.959960938 756.48046875 l 2
 109.07972195 770.187364201 109.07972195 770.187364201 104.959960938 789.759765625 c 0
 102.009122943 808.44940688 102.009122943 808.44940688 110.080078125 825.599609375 c 0
 117.907740862 843.212223778 117.907740862 843.212223778 133.759765625 853.120117188 c 0
 149.585324117 864 149.585324117 864 168.3203125 864 c 2
168.3203125 800 m 1
 431.360351562 510.719726562 l 2
 439.6796875 501.361068664 439.6796875 501.361068664 439.6796875 490.240234375 c 2
 448 158.719726562 l 1
 452.478517114 161.706163966 452.478517114 161.706163966 453.120117188 161.919921875 c 0
 453.439697266 162.239501953 453.439697266 162.239501953 454.079834356 162.559570498 c 0
 454.719971446 162.879639043 454.719971446 162.879639043 455.040039062 163.200195312 c 0
 456.321287574 164.481443824 456.321287574 164.481443824 458.879882812 165.759765625 c 2
 459.51953125 165.759765625 l 1
 576 241.280273438 l 1
 576 242.559570312 l 1
 584.3203125 490.240234375 l 2
 584.3203125 501.361068664 584.3203125 501.361068664 592.639648438 510.719726562 c 2
 855.6796875 800 l 1
 168.3203125 800 l 1
EndSplineSet
EndChar

StartChar: uniE02B
Encoding: 57387 57387 46
Width: 1024
Flags: H
LayerCount: 2
Fore
SplineSet
64 704 m 0
 64 717 64 717 73.5 726.5 c 0
 83 736 83 736 96 736 c 2
 928 736 l 2
 941 736 941 736 950.5 726.5 c 0
 960 717 960 717 960 704 c 0
 960 691 960 691 950.5 681.5 c 0
 941 672 941 672 928 672 c 2
 96 672 l 2
 83 672 83 672 73.5 681.5 c 0
 64 691 64 691 64 704 c 0
224 512 m 0
 224 525 224 525 233.5 534.5 c 0
 243 544 243 544 256 544 c 2
 768 544 l 2
 781 544 781 544 790.5 534.5 c 0
 800 525 800 525 800 512 c 0
 800 499 800 499 790.5 489.5 c 0
 781 480 781 480 768 480 c 2
 256 480 l 2
 243 480 243 480 233.5 489.5 c 0
 224 499 224 499 224 512 c 0
416 352 m 2
 608 352 l 2
 621 352 621 352 630.5 342.5 c 0
 640 333 640 333 640 320 c 0
 640 307 640 307 630.5 297.5 c 0
 621 288 621 288 608 288 c 2
 416 288 l 2
 403 288 403 288 393.5 297.5 c 0
 384 307 384 307 384 320 c 0
 384 333 384 333 393.5 342.5 c 0
 403 352 403 352 416 352 c 2
EndSplineSet
EndChar

StartChar: uniE02C
Encoding: 57388 57388 47
Width: 1024
Flags: H
LayerCount: 2
Fore
SplineSet
579.83984375 862.719726562 m 0
 569.599880647 852.479763459 569.599880647 852.479763459 561.280273438 827.51953125 c 0
 554.956454622 806.96802471 554.956454622 806.96802471 549.120117188 773.120117188 c 0
 546.30791772 754.371643933 546.30791772 754.371643933 545.280273438 737.919921875 c 1
 561.730663948 738.947580987 561.730663948 738.947580987 580.48046875 741.759765625 c 0
 612.519730268 746.18002049 612.519730268 746.18002049 634.879882812 753.919921875 c 0
 659.83865022 762.239040845 659.83865022 762.239040845 670.080078125 772.48046875 c 0
 688.639648438 791.038548573 688.639648438 791.038548573 688.639648438 817.919921875 c 0
 688.639648438 843.768645092 688.639648438 843.768645092 670.080078125 863.360351562 c 0
 651.519017204 881.919921875 651.519017204 881.919921875 624.639648438 881.919921875 c 0
 598.016617179 880.896499991 598.016617179 880.896499991 579.83984375 862.719726562 c 0
753.280273438 817.280273438 m 0
 753.280273438 771.752370007 753.280273438 771.752370007 724.48046875 736 c 1
 864 736 l 2
 890 736 890 736 909 717 c 0
 928 698 928 698 928 672 c 2
 928 544 l 2
 928 518 928 518 909 499 c 0
 890 480 890 480 864 480 c 1
 864 224 l 2
 864 198.151276783 864 198.151276783 845.440429688 178.559570312 c 0
 827.855717538 160 827.855717538 160 800 160 c 2
 512 160 l 1
 224 160 l 2
 198.151276783 160 198.151276783 160 178.559570312 178.559570312 c 0
 160 198.151276783 160 198.151276783 160 224 c 2
 160 480 l 1
 134 480 134 480 115 499 c 0
 96 518 96 518 96 544 c 2
 96 672 l 2
 96 698 96 698 115 717 c 0
 134 736 134 736 160 736 c 2
 299.51953125 736 l 1
 270.719726562 771.752370007 270.719726562 771.752370007 270.719726562 817.280273438 c 0
 270.719726562 870.399414062 270.719726562 870.399414062 308.48046875 908.16015625 c 0
 345.600585938 945.280273438 345.600585938 945.280273438 398.719726562 945.280273438 c 0
 451.84038344 945.280273438 451.84038344 945.280273438 489.599609375 907.51953125 c 0
 502.402017953 894.717122672 502.402017953 894.717122672 512 875.51953125 c 1
 521.597982047 894.717122672 521.597982047 894.717122672 534.400390625 907.51953125 c 0
 572.15961656 945.280273438 572.15961656 945.280273438 625.280273438 945.280273438 c 0
 678.399414062 945.280273438 678.399414062 945.280273438 716.16015625 907.51953125 c 0
 753.280273438 870.400904591 753.280273438 870.400904591 753.280273438 817.280273438 c 0
544 224 m 1
 800 224 l 1
 800 480 l 1
 544 480 l 1
 544 224 l 1
480 480 m 1
 224 480 l 1
 224 224 l 1
 480 224 l 1
 480 480 l 1
544 544 m 1
 832 544 l 1
 864 544 l 1
 864 672 l 1
 544 672 l 1
 544 544 l 1
480 672 m 1
 160 672 l 1
 160 544 l 1
 192 544 l 1
 480 544 l 1
 480 672 l 1
474.879882812 773.120117188 m 0
 469.043545378 806.96802471 469.043545378 806.96802471 462.719726562 827.51953125 c 0
 454.400119353 852.479763459 454.400119353 852.479763459 444.16015625 862.719726562 c 0
 424.569079732 881.280273438 424.569079732 881.280273438 398.719726562 881.280273438 c 0
 371.840820312 881.280273438 371.840820312 881.280273438 353.280273438 862.719726562 c 0
 334.719726562 843.128650044 334.719726562 843.128650044 334.719726562 817.280273438 c 0
 334.719726562 790.400390625 334.719726562 790.400390625 353.280273438 771.83984375 c 0
 363.520236541 761.599880647 363.520236541 761.599880647 388.48046875 753.280273438 c 0
 410.842414623 745.538438899 410.842414623 745.538438899 442.879882812 741.120117188 c 0
 454.865109103 739.322378965 454.865109103 739.322378965 478.719726562 737.919921875 c 1
 477.69208228 754.371643933 477.69208228 754.371643933 474.879882812 773.120117188 c 0
EndSplineSet
EndChar

StartChar: uniE02D
Encoding: 57389 57389 48
Width: 1024
Flags: H
LayerCount: 2
Fore
SplineSet
400 846.080078125 m 1
 334.555946086 824.105763177 334.555946086 824.105763177 282.155137948 778.683658999 c 0
 229.75432981 733.261554822 229.75432981 733.261554822 198.400390625 672 c 1
 334.719726562 672 l 1
 346.493852726 733.584760371 346.493852726 733.584760371 369.280273438 788.48046875 c 0
 382.720214844 820.159179688 382.720214844 820.159179688 400 846.080078125 c 1
325.120117188 608 m 1
 173.440429688 608 l 1
 160.000488281 561.920410156 160.000488281 561.920410156 160 512 c 0
 160 462.079589844 160 462.079589844 173.440429688 416 c 1
 325.120117188 416 l 1
 320 465.149687631 320 465.149687631 320 512 c 0
 320 558.850312369 320 558.850312369 325.120117188 608 c 1
389.759765625 416 m 1
 634.240234375 416 l 1
 640 461.120117188 640 461.120117188 640 512 c 0
 640 559.87371083 640 559.87371083 634.879882812 608 c 1
 389.759765625 608 l 1
 384 562.879882812 384 562.879882812 384 512 c 0
 384 461.120117188 384 461.120117188 389.759765625 416 c 1
334.719726562 352 m 1
 198.400390625 352 l 1
 229.75432981 290.738445178 229.75432981 290.738445178 282.155137948 245.316341001 c 0
 334.555946086 199.894236823 334.555946086 199.894236823 400 177.919921875 c 1
 384.242507398 200.6811898 384.242507398 200.6811898 369.280273438 234.879882812 c 0
 346.351370381 291.160495878 346.351370381 291.160495878 334.719726562 352 c 1
624 177.919921875 m 1
 689.665260676 199.968511976 689.665260676 199.968511976 742.009967589 245.219752881 c 0
 794.354674503 290.470993786 794.354674503 290.470993786 825.599609375 352 c 1
 689.280273438 352 l 1
 677.506147274 290.415239629 677.506147274 290.415239629 654.719726562 235.51953125 c 0
 641.279785156 203.840820312 641.279785156 203.840820312 624 177.919921875 c 1
624 352 m 1
 624 351.360351562 l 1
 400 351.360351562 l 1
 410.405004997 300.280711273 410.405004997 300.280711273 428.16015625 259.83984375 c 0
 447.359165744 215.041224881 447.359165744 215.041224881 472.3203125 190.080078125 c 0
 492.16015625 170.240234375 492.16015625 170.240234375 512 170.240234375 c 0
 532.053073452 170.240234375 532.053073452 170.240234375 551.6796875 190.719726562 c 0
 575.885226496 213.917278526 575.885226496 213.917278526 595.83984375 260.48046875 c 0
 613.594245654 300.918124489 613.594245654 300.918124489 624 352 c 1
698.879882812 416 m 1
 850.559570312 416 l 1
 863.999511719 462.079589844 863.999511719 462.079589844 864 512 c 0
 864 561.920410156 864 561.920410156 850.559570312 608 c 1
 698.879882812 608 l 1
 704 558.850312369 704 558.850312369 704 512 c 0
 704 465.149687631 704 465.149687631 698.879882812 416 c 1
689.280273438 672 m 1
 825.599609375 672 l 1
 794.24567019 733.261554822 794.24567019 733.261554822 741.844862052 778.683658999 c 0
 689.444053914 824.105763177 689.444053914 824.105763177 624 846.080078125 c 1
 639.757492602 823.3188102 639.757492602 823.3188102 654.719726562 789.120117188 c 0
 677.648629619 732.839504122 677.648629619 732.839504122 689.280273438 672 c 1
624 672 m 1
 612.870508735 722.084125937 612.870508735 722.084125937 595.83984375 764.16015625 c 0
 576.640834256 808.958775119 576.640834256 808.958775119 551.6796875 833.919921875 c 0
 531.83984375 853.759765625 531.83984375 853.759765625 512 853.759765625 c 0
 491.946926548 853.759765625 491.946926548 853.759765625 472.3203125 833.280273438 c 0
 448.114773504 810.082721474 448.114773504 810.082721474 428.16015625 763.51953125 c 0
 410.405754346 723.081875511 410.405754346 723.081875511 400 672 c 1
 624 672 l 1
512 928 m 0
 684 928 684 928 806 806 c 0
 928 684 928 684 928 512 c 0
 928 340 928 340 806 218 c 0
 684 96 684 96 512 96 c 0
 340 96 340 96 218 218 c 0
 96 340 96 340 96 512 c 0
 96 684 96 684 218 806 c 0
 340 928 340 928 512 928 c 0
EndSplineSet
EndChar

StartChar: uniE02E
Encoding: 57390 57390 49
Width: 1024
Flags: H
LayerCount: 2
Fore
SplineSet
512 864 m 0
 366 864 366 864 263 761 c 0
 160 658 160 658 160 512 c 0
 160 366 160 366 263 263 c 0
 366 160 366 160 512 160 c 0
 658 160 658 160 761 263 c 0
 864 366 864 366 864 512 c 0
 864 658 864 658 761 761 c 0
 658 864 658 864 512 864 c 0
96 512 m 0
 96 684 96 684 218 806 c 0
 340 928 340 928 512 928 c 0
 684 928 684 928 806 806 c 0
 928 684 928 684 928 512 c 0
 928 340 928 340 806 218 c 0
 684 96 684 96 512 96 c 0
 340 96 340 96 218 218 c 0
 96 340 96 340 96 512 c 0
512 263.6796875 m 0
 495.424517056 263.6796875 495.424517056 263.6796875 483.872414778 275.881033533 c 0
 472.3203125 288.082379567 472.3203125 288.082379567 472.3203125 304.639648438 c 0
 472.3203125 321.071701648 472.3203125 321.071701648 483.815137081 332.696007074 c 0
 495.309961663 344.3203125 495.309961663 344.3203125 512 344.3203125 c 0
 528.575482944 344.3203125 528.575482944 344.3203125 540.127585222 332.118966467 c 0
 551.6796875 319.917620433 551.6796875 319.917620433 551.6796875 303.360351562 c 0
 551.6796875 286.928298352 551.6796875 286.928298352 540.184862919 275.303992926 c 0
 528.690038337 263.6796875 528.690038337 263.6796875 512 263.6796875 c 0
540.16015625 733.440429688 m 0
 581.537205706 724.975898728 581.537205706 724.975898728 613.759765625 693.759765625 c 0
 644.470010757 664.010130869 644.470010757 664.010130869 653.440429688 620.16015625 c 0
 661.419076274 576.269989718 661.419076274 576.269989718 645.120117188 536.959960938 c 0
 628.561885431 497.02461516 628.561885431 497.02461516 592 472.3203125 c 0
 569.176660873 457.434341097 569.176660873 457.434341097 544 451.83984375 c 1
 544 448 l 2
 544 435 544 435 534.5 425.5 c 0
 525 416 525 416 512 416 c 0
 499 416 499 416 489.5 425.5 c 0
 480 435 480 435 480 448 c 2
 480 480 l 2
 480 493.758837794 480 493.758837794 489.599609375 502.400390625 c 0
 498.241162206 512 498.241162206 512 512 512 c 0
 536 512 536 512 556.16015625 525.440429688 c 0
 577.01726427 539.345673553 577.01726427 539.345673553 585.599609375 561.280273438 c 0
 595.068832173 583.057752113 595.068832173 583.057752113 590.080078125 608 c 0
 585.027151684 632.253121753 585.027151684 632.253121753 568.3203125 648.959960938 c 0
 551.613879141 665.666394297 551.613879141 665.666394297 527.360351562 670.719726562 c 0
 502.562503462 674.85348953 502.562503462 674.85348953 481.280273438 665.599609375 c 0
 459.345673553 657.01726427 459.345673553 657.01726427 445.440429688 636.16015625 c 0
 432 616.959751682 432 616.959751682 432 592 c 0
 432 579 432 579 422.5 569.5 c 0
 413 560 413 560 400 560 c 0
 387 560 387 560 377.5 569.5 c 0
 368 579 368 579 368 592 c 0
 368 636.006412506 368 636.006412506 392.3203125 672 c 0
 417.02461516 708.561885431 417.02461516 708.561885431 456.959960938 725.120117188 c 0
 496.269989718 741.419076274 496.269989718 741.419076274 540.16015625 733.440429688 c 0
EndSplineSet
EndChar

StartChar: uniE02F
Encoding: 57391 57391 50
Width: 1024
Flags: H
LayerCount: 2
Fore
SplineSet
469.120117188 899.83984375 m 2
 486.739075315 916.48046875 486.739075315 916.48046875 512 916.48046875 c 0
 537.260924685 916.48046875 537.260924685 916.48046875 554.879882812 899.83984375 c 2
 875.51953125 608.639648438 l 2
 884.992213523 600.115101589 884.992213523 600.115101589 890.240234375 587.51953125 c 0
 896 576 896 576 896 562.559570312 c 2
 896 561.919921875 l 1
 896 192 l 2
 896 166.151276783 896 166.151276783 877.440429688 146.559570312 c 0
 857.848723217 128 857.848723217 128 832 128 c 2
 640 128 l 2
 614.151276783 128 614.151276783 128 594.559570312 146.559570312 c 0
 576 166.151276783 576 166.151276783 576 192 c 2
 576 384 l 1
 448 384 l 1
 448 192 l 2
 448 166.151276783 448 166.151276783 429.440429688 146.559570312 c 0
 409.848723217 128 409.848723217 128 384 128 c 2
 192 128 l 2
 166.151276783 128 166.151276783 128 146.559570312 146.559570312 c 0
 128 166.151276783 128 166.151276783 128 192 c 2
 128 562.559570312 l 2
 128 575.999511719 128 575.999511719 133.759765625 587.51953125 c 0
 139.007786477 600.115101589 139.007786477 600.115101589 148.48046875 608.639648438 c 2
 149.120117188 609.280273438 l 1
 469.120117188 899.83984375 l 2
192 562.559570312 m 1
 192 561.280273438 l 1
 192 192 l 1
 384 192 l 1
 384 384 l 2
 384 409.848723217 384 409.848723217 402.559570312 429.440429688 c 0
 422.151276783 448 422.151276783 448 448 448 c 2
 576 448 l 2
 601.848723217 448 601.848723217 448 621.440429688 429.440429688 c 0
 640 409.848723217 640 409.848723217 640 384 c 2
 640 192 l 1
 832 192 l 1
 832 561.919921875 l 1
 832 562.559570312 l 1
 512 852.48046875 l 1
 512 852.48046875 l 1
 192 562.559570312 l 1
EndSplineSet
EndChar

StartChar: uniE030
Encoding: 57392 57392 51
Width: 1024
Flags: H
LayerCount: 2
Fore
SplineSet
512 864 m 0
 366 864 366 864 263 761 c 0
 160 658 160 658 160 512 c 0
 160 366 160 366 263 263 c 0
 366 160 366 160 512 160 c 0
 658 160 658 160 761 263 c 0
 864 366 864 366 864 512 c 0
 864 658 864 658 761 761 c 0
 658 864 658 864 512 864 c 0
96 512 m 0
 96 684 96 684 218 806 c 0
 340 928 340 928 512 928 c 0
 684 928 684 928 806 806 c 0
 928 684 928 684 928 512 c 0
 928 340 928 340 806 218 c 0
 684 96 684 96 512 96 c 0
 340 96 340 96 218 218 c 0
 96 340 96 340 96 512 c 0
448 544 m 0
 448 557 448 557 457.5 566.5 c 0
 467 576 467 576 480 576 c 2
 512 576 l 2
 525 576 525 576 534.5 566.5 c 0
 544 557 544 557 544 544 c 2
 544 352 l 1
 557 352 557 352 566.5 342.5 c 0
 576 333 576 333 576 320 c 0
 576 307 576 307 566.5 297.5 c 0
 557 288 557 288 544 288 c 2
 512 288 l 2
 499 288 499 288 489.5 297.5 c 0
 480 307 480 307 480 320 c 2
 480 512 l 1
 467 512 467 512 457.5 521.5 c 0
 448 531 448 531 448 544 c 0
544 688 m 0
 544 671.310036772 544 671.310036772 532.375853676 659.815174636 c 0
 520.751707352 648.3203125 520.751707352 648.3203125 504.3203125 648.3203125 c 0
 487.630257041 648.3203125 487.630257041 648.3203125 476.134952739 659.944507369 c 0
 464.639648438 671.568702238 464.639648438 671.568702238 464.639648438 688 c 0
 464.639648438 704.319900173 464.639648438 704.319900173 476.319740126 715.999793836 c 0
 487.999831814 727.6796875 487.999831814 727.6796875 504.3203125 727.6796875 c 0
 520.640136719 728.16015625 520.640136719 728.16015625 532.320068359 716.480224609 c 0
 544 704.800292969 544 704.800292969 544 688 c 0
EndSplineSet
EndChar

StartChar: uniE031
Encoding: 57393 57393 52
Width: 1024
Flags: H
LayerCount: 2
Fore
SplineSet
512 715.51953125 m 2
 502.400146484 706.400146484 502.400146484 706.400146484 489.280151367 706.400146484 c 0
 476.16015625 706.400146484 476.16015625 706.400146484 466.559570312 715.51953125 c 0
 456.959716797 725.120117188 456.959716797 725.120117188 456.959716797 738.240112305 c 0
 456.959716797 751.360107422 456.959716797 751.360107422 466.559570312 760.959960938 c 2
 545.919921875 840.3203125 l 1
 546.559570312 840.959960938 l 2
 607.939806827 897.389959097 607.939806827 897.389959097 691.200195312 895.360351562 c 0
 775.119167678 893.361845245 775.119167678 893.361845245 833.919921875 834.559570312 c 0
 892.747087103 774.735876009 892.747087103 774.735876009 894.719726562 691.83984375 c 0
 896.693160475 608.973682895 896.693160475 608.973682895 840.3203125 546.559570312 c 0
 839.6796875 545.919921875 839.6796875 545.919921875 839.040039062 545.280273438 c 2
 725.759765625 432.639648438 l 2
 697.079052195 403.003446105 697.079052195 403.003446105 658.559570312 387.200195312 c 0
 621.853350045 371.200195312 621.853350045 371.200195312 579.200195312 371.200195312 c 0
 538.838890098 371.200195312 538.838890098 371.200195312 499.83984375 387.200195312 c 0
 461.266838156 404.013914759 461.266838156 404.013914759 432.639648438 432.639648438 c 0
 423.039794922 442.240234375 423.039794922 442.240234375 423.039794922 455.600097656 c 0
 423.039794922 468.959960938 423.039794922 468.959960938 432.639648438 478.080078125 c 0
 442.240234375 487.679931641 442.240234375 487.679931641 455.600097656 487.679931641 c 0
 468.959960938 487.679931641 468.959960938 487.679931641 478.080078125 478.080078125 c 0
 497.148872945 459.009897693 497.148872945 459.009897693 524.799804688 446.719726562 c 0
 552.493777445 435.83984375 552.493777445 435.83984375 579.83984375 435.83984375 c 0
 608.174441508 435.83984375 608.174441508 435.83984375 634.879882812 446.719726562 c 0
 662.254962891 458.452969332 662.254962891 458.452969332 681.599609375 478.719726562 c 2
 794.240234375 590.719726562 l 2
 832.37315858 631.785837864 832.37315858 631.785837864 831.360351562 690.559570312 c 0
 830.371297219 747.868937156 830.371297219 747.868937156 789.120117188 789.120117188 c 0
 747.868937156 830.371297219 747.868937156 830.371297219 690.559570312 831.360351562 c 0
 632.765207978 832.373744879 632.765207978 832.373744879 590.719726562 794.240234375 c 2
 512 715.51953125 l 2
389.120117188 577.280273438 m 0
 361.745037109 565.547030668 361.745037109 565.547030668 342.400390625 545.280273438 c 2
 229.759765625 433.280273438 l 2
 190.296091599 390.78105095 190.296091599 390.78105095 193.280273438 334.080078125 c 0
 194.267783843 276.772813948 194.267783843 276.772813948 235.51953125 235.51953125 c 0
 276.772813948 194.267783843 276.772813948 194.267783843 334.080078125 193.280273438 c 0
 391.874230678 192.26533664 391.874230678 192.26533664 433.919921875 230.400390625 c 2
 512.639648438 309.120117188 l 2
 522.240234375 318.719970703 522.240234375 318.719970703 535.360229492 318.719970703 c 0
 548.480224609 318.719970703 548.480224609 318.719970703 558.080078125 309.120117188 c 0
 567.679931641 299.520263672 567.679931641 299.520263672 567.679931641 286.400268555 c 0
 567.679931641 273.280273438 567.679931641 273.280273438 558.080078125 263.6796875 c 2
 478.719726562 184.3203125 l 2
 478.080078125 183.6796875 478.080078125 183.6796875 477.440429688 183.040039062 c 0
 416.095263211 126.642282586 416.095263211 126.642282586 332.16015625 128.639648438 c 0
 248.241183885 130.638154755 248.241183885 130.638154755 189.440429688 189.440429688 c 0
 130.638154755 248.241183885 130.638154755 248.241183885 128.639648438 332.16015625 c 0
 126.667706241 415.026887466 126.667706241 415.026887466 183.040039062 477.440429688 c 1
 183.6796875 478.080078125 l 1
 296.959960938 590.719726562 l 2
 325.861703619 620.584321665 325.861703619 620.584321665 364.799804688 636.16015625 c 0
 401.506024955 652.16015625 401.506024955 652.16015625 444.16015625 652.16015625 c 0
 483.20078119 652.16015625 483.20078119 652.16015625 524.16015625 636.799804688 c 0
 562.733161844 619.986085241 562.733161844 619.986085241 591.360351562 591.360351562 c 0
 600.960205078 581.759765625 600.960205078 581.759765625 600.960205078 568.399902344 c 0
 600.960205078 555.040039062 600.960205078 555.040039062 591.360351562 545.919921875 c 0
 581.759765625 536.320068359 581.759765625 536.320068359 568.399902344 536.320068359 c 0
 555.040039062 536.320068359 555.040039062 536.320068359 545.919921875 545.919921875 c 0
 526.851127055 564.990102307 526.851127055 564.990102307 499.200195312 577.280273438 c 0
 472.494754008 588.16015625 472.494754008 588.16015625 444.16015625 588.16015625 c 0
 415.825558492 588.16015625 415.825558492 588.16015625 389.120117188 577.280273438 c 0
EndSplineSet
EndChar

StartChar: uniE032
Encoding: 57394 57394 53
Width: 1024
Flags: H
LayerCount: 2
Fore
SplineSet
128 768 m 0
 128 781 128 781 137.5 790.5 c 0
 147 800 147 800 160 800 c 2
 864 800 l 2
 877 800 877 800 886.5 790.5 c 0
 896 781 896 781 896 768 c 0
 896 755 896 755 886.5 745.5 c 0
 877 736 877 736 864 736 c 2
 160 736 l 2
 147 736 147 736 137.5 745.5 c 0
 128 755 128 755 128 768 c 0
128 512 m 0
 128 525 128 525 137.5 534.5 c 0
 147 544 147 544 160 544 c 2
 864 544 l 2
 877 544 877 544 886.5 534.5 c 0
 896 525 896 525 896 512 c 0
 896 499 896 499 886.5 489.5 c 0
 877 480 877 480 864 480 c 2
 160 480 l 2
 147 480 147 480 137.5 489.5 c 0
 128 499 128 499 128 512 c 0
160 288 m 2
 864 288 l 2
 877 288 877 288 886.5 278.5 c 0
 896 269 896 269 896 256 c 0
 896 243 896 243 886.5 233.5 c 0
 877 224 877 224 864 224 c 2
 160 224 l 2
 147 224 147 224 137.5 233.5 c 0
 128 243 128 243 128 256 c 0
 128 269 128 269 137.5 278.5 c 0
 147 288 147 288 160 288 c 2
EndSplineSet
EndChar

StartChar: uniE033
Encoding: 57395 57395 54
Width: 1024
Flags: H
LayerCount: 2
Fore
SplineSet
216.3203125 768 m 0
 216.3203125 751.309961663 216.3203125 751.309961663 204.696007074 739.815137081 c 0
 193.071701648 728.3203125 193.071701648 728.3203125 176.639648438 728.3203125 c 0
 160.082379567 728.3203125 160.082379567 728.3203125 147.881033533 739.872414778 c 0
 135.6796875 751.424517056 135.6796875 751.424517056 135.6796875 768 c 0
 135.6796875 784.738693585 135.6796875 784.738693585 147.408204757 796.209190542 c 0
 159.136722015 807.6796875 159.136722015 807.6796875 176 807.6796875 c 0
 192.863277985 807.6796875 192.863277985 807.6796875 204.591795243 796.209190542 c 0
 216.3203125 784.738693585 216.3203125 784.738693585 216.3203125 768 c 0
352 800 m 2
 864 800 l 2
 877 800 877 800 886.5 790.5 c 0
 896 781 896 781 896 768 c 0
 896 755 896 755 886.5 745.5 c 0
 877 736 877 736 864 736 c 2
 352 736 l 2
 339 736 339 736 329.5 745.5 c 0
 320 755 320 755 320 768 c 0
 320 781 320 781 329.5 790.5 c 0
 339 800 339 800 352 800 c 2
352 544 m 2
 864 544 l 2
 877 544 877 544 886.5 534.5 c 0
 896 525 896 525 896 512 c 0
 896 499 896 499 886.5 489.5 c 0
 877 480 877 480 864 480 c 2
 352 480 l 2
 339 480 339 480 329.5 489.5 c 0
 320 499 320 499 320 512 c 0
 320 525 320 525 329.5 534.5 c 0
 339 544 339 544 352 544 c 2
320 256 m 0
 320 269 320 269 329.5 278.5 c 0
 339 288 339 288 352 288 c 2
 864 288 l 2
 877 288 877 288 886.5 278.5 c 0
 896 269 896 269 896 256 c 0
 896 243 896 243 886.5 233.5 c 0
 877 224 877 224 864 224 c 2
 352 224 l 2
 339 224 339 224 329.5 233.5 c 0
 320 243 320 243 320 256 c 0
176 216.3203125 m 0
 159.136722015 216.3203125 159.136722015 216.3203125 147.408204757 227.790809458 c 0
 135.6796875 239.261306415 135.6796875 239.261306415 135.6796875 256 c 0
 135.6796875 272.631434827 135.6796875 272.631434827 147.592653816 284.155561163 c 0
 159.505620132 295.6796875 159.505620132 295.6796875 176 295.6796875 c 0
 192.319824219 295.6796875 192.319824219 295.6796875 203.999755859 283.999755859 c 0
 215.6796875 272.319824219 215.6796875 272.319824219 215.6796875 256 c 0
 215.6796875 239.568605148 215.6796875 239.568605148 204.184825364 227.944458824 c 0
 192.689963228 216.3203125 192.689963228 216.3203125 176 216.3203125 c 0
216.3203125 512 m 0
 216.3203125 495.309961663 216.3203125 495.309961663 204.696007074 483.815137081 c 0
 193.071701648 472.3203125 193.071701648 472.3203125 176.639648438 472.3203125 c 0
 160.082379567 472.3203125 160.082379567 472.3203125 147.881033533 483.872414778 c 0
 135.6796875 495.424517056 135.6796875 495.424517056 135.6796875 512 c 0
 135.6796875 528.690038337 135.6796875 528.690038337 147.303992926 540.184862919 c 0
 158.928298352 551.6796875 158.928298352 551.6796875 175.360351562 551.6796875 c 0
 191.917620433 551.6796875 191.917620433 551.6796875 204.118966467 540.127585222 c 0
 216.3203125 528.575482944 216.3203125 528.575482944 216.3203125 512 c 0
EndSplineSet
EndChar

StartChar: uniE034
Encoding: 57396 57396 55
Width: 1024
Flags: H
LayerCount: 2
Fore
SplineSet
389.759765625 808.3203125 m 2
 250.879882812 680.3203125 l 2
 241.759765625 671.679931641 241.759765625 671.679931641 229.119750977 671.679931641 c 0
 216.479736328 671.679931641 216.479736328 671.679931641 207.360351562 680.3203125 c 2
 138.240234375 744.3203125 l 2
 128.20021571 753.403965223 128.20021571 753.403965223 127.680053711 766.800170898 c 0
 127.159891712 780.196376574 127.159891712 780.196376574 136.3203125 789.759765625 c 0
 145.403965223 799.79978429 145.403965223 799.79978429 158.800170898 800.319946289 c 0
 172.196376574 800.840108288 172.196376574 800.840108288 181.759765625 791.6796875 c 2
 229.120117188 747.51953125 l 1
 346.240234375 855.6796875 l 2
 356.396465491 864.719131932 356.396465491 864.719131932 369.439697266 864.079711914 c 0
 382.482929041 863.440291896 382.482929041 863.440291896 391.6796875 853.759765625 c 0
 400.719131932 843.603534509 400.719131932 843.603534509 400.079711914 830.560302734 c 0
 399.440291896 817.517070959 399.440291896 817.517070959 389.759765625 808.3203125 c 2
512 800 m 2
 864 800 l 2
 877 800 877 800 886.5 790.5 c 0
 896 781 896 781 896 768 c 0
 896 755 896 755 886.5 745.5 c 0
 877 736 877 736 864 736 c 2
 512 736 l 2
 499 736 499 736 489.5 745.5 c 0
 480 755 480 755 480 768 c 0
 480 781 480 781 489.5 790.5 c 0
 499 800 499 800 512 800 c 2
512 544 m 2
 864 544 l 2
 877 544 877 544 886.5 534.5 c 0
 896 525 896 525 896 512 c 0
 896 499 896 499 886.5 489.5 c 0
 877 480 877 480 864 480 c 2
 512 480 l 2
 499 480 499 480 489.5 489.5 c 0
 480 499 480 499 480 512 c 0
 480 525 480 525 489.5 534.5 c 0
 499 544 499 544 512 544 c 2
480 256 m 0
 480 269 480 269 489.5 278.5 c 0
 499 288 499 288 512 288 c 2
 864 288 l 2
 877 288 877 288 886.5 278.5 c 0
 896 269 896 269 896 256 c 0
 896 243 896 243 886.5 233.5 c 0
 877 224 877 224 864 224 c 2
 512 224 l 2
 499 224 499 224 489.5 233.5 c 0
 480 243 480 243 480 256 c 0
391.6796875 597.759765625 m 0
 400.724835312 588.088689201 400.724835312 588.088689201 400.079711914 574.800170898 c 0
 399.434588516 561.511652596 399.434588516 561.511652596 389.759765625 552.3203125 c 2
 250.879882812 424.3203125 l 2
 241.759765625 415.679931641 241.759765625 415.679931641 229.119750977 415.679931641 c 0
 216.479736328 415.679931641 216.479736328 415.679931641 207.360351562 424.3203125 c 2
 138.240234375 488.3203125 l 2
 128.559708104 497.517070959 128.559708104 497.517070959 127.920288086 510.560302734 c 0
 127.280868068 523.603534509 127.280868068 523.603534509 136.3203125 533.759765625 c 0
 145.517070959 543.440291896 145.517070959 543.440291896 158.560302734 544.079711914 c 0
 171.603534509 544.719131932 171.603534509 544.719131932 181.759765625 535.6796875 c 2
 229.120117188 491.51953125 l 1
 346.240234375 599.6796875 l 2
 355.80189394 608.360271388 355.80189394 608.360271388 369.199829102 607.83984375 c 0
 382.597764263 607.319416112 382.597764263 607.319416112 391.6796875 597.759765625 c 0
389.759765625 296.3203125 m 2
 250.879882812 168.3203125 l 2
 241.759765625 159.679931641 241.759765625 159.679931641 229.119750977 159.679931641 c 0
 216.479736328 159.679931641 216.479736328 159.679931641 207.360351562 168.3203125 c 2
 138.240234375 232.3203125 l 2
 128.20021571 241.403965223 128.20021571 241.403965223 127.680053711 254.800170898 c 0
 127.159891712 268.196376574 127.159891712 268.196376574 136.3203125 277.759765625 c 0
 145.403965223 287.79978429 145.403965223 287.79978429 158.800170898 288.319946289 c 0
 172.196376574 288.840108288 172.196376574 288.840108288 181.759765625 279.6796875 c 2
 229.120117188 235.51953125 l 1
 346.240234375 343.6796875 l 2
 356.396465491 352.719131932 356.396465491 352.719131932 369.439697266 352.079711914 c 0
 382.482929041 351.440291896 382.482929041 351.440291896 391.6796875 341.759765625 c 0
 400.719131932 331.603534509 400.719131932 331.603534509 400.079711914 318.560302734 c 0
 399.440291896 305.517070959 399.440291896 305.517070959 389.759765625 296.3203125 c 2
EndSplineSet
EndChar

StartChar: uniE035
Encoding: 57397 57397 56
Width: 1024
Flags: H
LayerCount: 2
Fore
SplineSet
512 928 m 0
 465.279296875 928 465.279296875 928 432.639648438 895.360351562 c 0
 400 862.720703125 400 862.720703125 400 816 c 2
 400 704 l 1
 624 704 l 1
 624 816 l 2
 624 862.720703125 624 862.720703125 591.360351562 895.360351562 c 0
 558.720703125 928 558.720703125 928 512 928 c 0
336 816 m 2
 336 889.316676761 336 889.316676761 387.83984375 940.16015625 c 0
 438.683323239 992 438.683323239 992 512 992 c 0
 585.316676761 992 585.316676761 992 636.16015625 940.16015625 c 0
 688 889.316676761 688 889.316676761 688 816 c 2
 688 704 l 1
 832 704 l 2
 858 704 858 704 877 685 c 0
 896 666 896 666 896 640 c 2
 896 192 l 2
 896 166 896 166 877 147 c 0
 858 128 858 128 832 128 c 2
 192 128 l 2
 166 128 166 128 147 147 c 0
 128 166 128 166 128 192 c 2
 128 640 l 2
 128 666 128 666 147 685 c 0
 166 704 166 704 192 704 c 2
 336 704 l 1
 336 816 l 2
192 640 m 1
 192 192 l 1
 832 192 l 1
 832 640 l 1
 656 640 l 1
 368 640 l 1
 192 640 l 1
551.6796875 416 m 0
 551.6796875 399.310036772 551.6796875 399.310036772 540.055541176 387.815174636 c 0
 528.431394852 376.3203125 528.431394852 376.3203125 512 376.3203125 c 0
 495.310036772 376.3203125 495.310036772 376.3203125 483.815174636 387.944458824 c 0
 472.3203125 399.568605148 472.3203125 399.568605148 472.3203125 416 c 0
 472.3203125 432.431394852 472.3203125 432.431394852 483.815174636 444.055541176 c 0
 495.310036772 455.6796875 495.310036772 455.6796875 512 455.6796875 c 0
 528.800292969 455.6796875 528.800292969 455.6796875 540.239990234 444.239990234 c 0
 551.6796875 432.800292969 551.6796875 432.800292969 551.6796875 416 c 0
EndSplineSet
EndChar

StartChar: uniE036
Encoding: 57398 57398 57
Width: 1024
Flags: H
LayerCount: 2
Fore
SplineSet
512 928 m 0
 465.279296875 928 465.279296875 928 432.639648438 895.360351562 c 0
 400 862.720703125 400 862.720703125 400 816 c 2
 400 704 l 1
 832 704 l 2
 858 704 858 704 877 685 c 0
 896 666 896 666 896 640 c 2
 896 192 l 2
 896 166 896 166 877 147 c 0
 858 128 858 128 832 128 c 2
 192 128 l 2
 166 128 166 128 147 147 c 0
 128 166 128 166 128 192 c 2
 128 640 l 2
 128 666 128 666 147 685 c 0
 166 704 166 704 192 704 c 2
 336 704 l 1
 336 816 l 2
 336 889.316676761 336 889.316676761 387.83984375 940.16015625 c 0
 438.683323239 992 438.683323239 992 512 992 c 0
 585.316676761 992 585.316676761 992 636.16015625 940.16015625 c 0
 688 888.3203125 688 888.3203125 688 816 c 0
 688 803 688 803 678.5 793.5 c 0
 669 784 669 784 656 784 c 0
 643 784 643 784 633.5 793.5 c 0
 624 803 624 803 624 816 c 0
 624 862.720703125 624 862.720703125 591.360351562 895.360351562 c 0
 558.720703125 928 558.720703125 928 512 928 c 0
192 640 m 1
 192 192 l 1
 832 192 l 1
 832 640 l 1
 368 640 l 1
 192 640 l 1
551.6796875 416 m 0
 551.6796875 399.310036772 551.6796875 399.310036772 540.055541176 387.815174636 c 0
 528.431394852 376.3203125 528.431394852 376.3203125 512 376.3203125 c 0
 495.310036772 376.3203125 495.310036772 376.3203125 483.815174636 387.944458824 c 0
 472.3203125 399.568605148 472.3203125 399.568605148 472.3203125 416 c 0
 472.3203125 432.431394852 472.3203125 432.431394852 483.815174636 444.055541176 c 0
 495.310036772 455.6796875 495.310036772 455.6796875 512 455.6796875 c 0
 528.800292969 455.6796875 528.800292969 455.6796875 540.239990234 444.239990234 c 0
 551.6796875 432.800292969 551.6796875 432.800292969 551.6796875 416 c 0
EndSplineSet
EndChar

StartChar: uniE037
Encoding: 57399 57399 58
Width: 1024
Flags: H
LayerCount: 2
Fore
SplineSet
160 560 m 0
 160 434 160 434 249 345 c 0
 338 256 338 256 464 256 c 0
 590 256 590 256 679 345 c 0
 768 434 768 434 768 560 c 0
 768 686 768 686 679 775 c 0
 590 864 590 864 464 864 c 0
 338 864 338 864 249 775 c 0
 160 686 160 686 160 560 c 0
464 928 m 0
 564.076528934 928 564.076528934 928 648.884363374 878.827661569 c 0
 733.692197813 829.655323138 733.692197813 829.655323138 783.008540272 745.065242077 c 0
 832.324882731 660.475161016 832.324882731 660.475161016 832.639648438 560.639648438 c 0
 832.639648438 426.696737483 832.639648438 426.696737483 746.240234375 323.83984375 c 1
 919.040039062 151.040039062 l 2
 928.639892578 141.440185547 928.639892578 141.440185547 928.639892578 128.32019043 c 0
 928.639892578 115.200195312 928.639892578 115.200195312 919.040039062 105.599609375 c 0
 909.440185547 95.9997558594 909.440185547 95.9997558594 896.32019043 95.9997558594 c 0
 883.200195312 95.9997558594 883.200195312 95.9997558594 873.599609375 105.599609375 c 2
 700.799804688 278.400390625 l 1
 597.943616789 192 597.943616789 192 464 192 c 0
 311 192 311 192 203.5 299.5 c 0
 96 407 96 407 96 560 c 0
 96 713 96 713 203.5 820.5 c 0
 311 928 311 928 464 928 c 0
EndSplineSet
EndChar

StartChar: uniE038
Encoding: 57400 57400 59
Width: 1024
Flags: H
LayerCount: 2
Fore
SplineSet
142.080078125 410.240234375 m 2
 633.599609375 903.040039062 l 2
 641.272955918 908.156904433 641.272955918 908.156904433 647.040039062 910.719726562 c 2
 656.639648438 913.280273438 l 2
 664.325198294 915.200195312 664.325198294 915.200195312 672 915.200195312 c 0
 684.67292964 915.200195312 684.67292964 915.200195312 696.959960938 910.080078125 c 0
 707.930092521 905.508724971 707.930092521 905.508724971 717.440429688 896 c 2
 896 717.440429688 l 2
 903.680989804 709.758137579 903.680989804 709.758137579 910.080078125 696.959960938 c 0
 915.200195312 683.647968738 915.200195312 683.647968738 915.200195312 672 c 0
 915.200195312 659.32707036 915.200195312 659.32707036 910.080078125 647.040039062 c 1
 460.799804688 192 l 1
 864 192 l 2
 877 192 877 192 886.5 182.5 c 0
 896 173 896 173 896 160 c 0
 896 147 896 147 886.5 137.5 c 0
 877 128 877 128 864 128 c 2
 384 128 l 1
 192 128 l 2
 166.151276783 128 166.151276783 128 146.559570312 146.559570312 c 0
 128 166.151276783 128 166.151276783 128 192 c 2
 128 362.879882812 l 2
 128 383.999302334 128 383.999302334 135.6796875 399.360351562 c 0
 138.024738589 404.831739837 138.024738589 404.831739837 142.080078125 410.240234375 c 2
850.559570312 672 m 1
 670.719726562 849.280273438 l 1
 585.599609375 764.16015625 l 1
 767.360351562 588.799804688 l 1
 850.559570312 672 l 1
540.16015625 718.719726562 m 1
 193.280273438 372.48046875 l 1
 192 192 l 1
 370.559570312 192 l 1
 722.559570312 543.360351562 l 1
 540.16015625 718.719726562 l 1
EndSplineSet
EndChar

StartChar: uniE039
Encoding: 57401 57401 60
Width: 1024
Flags: H
LayerCount: 2
Fore
SplineSet
304 800 m 0
 271 800 271 800 247.5 776.5 c 0
 224 753 224 753 224 720 c 0
 224 687 224 687 247.5 663.5 c 0
 271 640 271 640 304 640 c 0
 337 640 337 640 360.5 663.5 c 0
 384 687 384 687 384 720 c 0
 384 753 384 753 360.5 776.5 c 0
 337 800 337 800 304 800 c 0
160 720 m 0
 160 780 160 780 202 822 c 0
 244 864 244 864 304 864 c 0
 364 864 364 864 406 822 c 0
 448 780 448 780 448 720 c 0
 448 660 448 660 406 618 c 0
 364 576 364 576 304 576 c 0
 244 576 244 576 202 618 c 0
 160 660 160 660 160 720 c 0
822.400390625 777.599609375 m 2
 246.400390625 201.599609375 l 2
 236.799804688 191.999755859 236.799804688 191.999755859 223.67980957 191.999755859 c 0
 210.559814453 191.999755859 210.559814453 191.999755859 200.959960938 201.599609375 c 0
 191.360107422 211.200195312 191.360107422 211.200195312 191.360107422 224.32019043 c 0
 191.360107422 237.440185547 191.360107422 237.440185547 200.959960938 247.040039062 c 2
 776.959960938 823.040039062 l 2
 786.559814453 832.639892578 786.559814453 832.639892578 799.67980957 832.639892578 c 0
 812.799804688 832.639892578 812.799804688 832.639892578 822.400390625 823.040039062 c 0
 832.000244141 813.440185547 832.000244141 813.440185547 832.000244141 800.079956055 c 0
 832.000244141 786.719726562 832.000244141 786.719726562 822.400390625 777.599609375 c 2
640 304 m 0
 640 271 640 271 663.5 247.5 c 0
 687 224 687 224 720 224 c 0
 753 224 753 224 776.5 247.5 c 0
 800 271 800 271 800 304 c 0
 800 337 800 337 776.5 360.5 c 0
 753 384 753 384 720 384 c 0
 687 384 687 384 663.5 360.5 c 0
 640 337 640 337 640 304 c 0
720 448 m 0
 780 448 780 448 822 406 c 0
 864 364 864 364 864 304 c 0
 864 244 864 244 822 202 c 0
 780 160 780 160 720 160 c 0
 660 160 660 160 618 202 c 0
 576 244 576 244 576 304 c 0
 576 364 576 364 618 406 c 0
 660 448 660 448 720 448 c 0
EndSplineSet
EndChar

StartChar: uniE03A
Encoding: 57402 57402 61
Width: 1024
Flags: H
LayerCount: 2
Fore
SplineSet
256 896 m 2
 768 896 l 2
 781 896 781 896 790.5 886.5 c 0
 800 877 800 877 800 864 c 2
 800 736 l 1
 842.879882812 736 l 2
 883.570810516 736 883.570810516 736 913.785405258 708.249286054 c 0
 944 680.498572109 944 680.498572109 944 640 c 2
 944 320 l 2
 944 307 944 307 934.5 297.5 c 0
 925 288 925 288 912 288 c 2
 800 288 l 1
 800 144 l 2
 800 131 800 131 790.5 121.5 c 0
 781 112 781 112 768 112 c 2
 256 112 l 2
 243 112 243 112 233.5 121.5 c 0
 224 131 224 131 224 144 c 2
 224 288 l 1
 112 288 l 2
 99 288 99 288 89.5 297.5 c 0
 80 307 80 307 80 320 c 2
 80 640 l 2
 80 680.498572109 80 680.498572109 110.214594742 708.249286054 c 0
 140.429189484 736 140.429189484 736 181.120117188 736 c 2
 224 736 l 1
 224 864 l 2
 224 877 224 877 233.5 886.5 c 0
 243 896 243 896 256 896 c 2
181.120117188 672 m 2
 165.073501798 672 165.073501798 672 154.536750899 662.113707482 c 0
 144 652.227414964 144 652.227414964 144 640 c 2
 144 352 l 1
 224 352 l 1
 224 416 l 2
 224 429 224 429 233.5 438.5 c 0
 243 448 243 448 256 448 c 2
 768 448 l 2
 781 448 781 448 790.5 438.5 c 0
 800 429 800 429 800 416 c 2
 800 352 l 1
 880 352 l 1
 880 640 l 2
 880 652.336194153 880 652.336194153 869.650514217 662.168097076 c 0
 859.301028435 672 859.301028435 672 842.879882812 672 c 2
 768 672 l 1
 256 672 l 1
 181.120117188 672 l 2
288 736 m 1
 736 736 l 1
 736 832 l 1
 288 832 l 1
 288 736 l 1
288 384 m 1
 288 320 l 1
 288 176 l 1
 736 176 l 1
 736 320 l 1
 736 384 l 1
 288 384 l 1
792.3203125 560 m 0
 792.3203125 543.309961663 792.3203125 543.309961663 780.696007074 531.815137081 c 0
 769.071701648 520.3203125 769.071701648 520.3203125 752.639648438 520.3203125 c 0
 736.319824219 520.3203125 736.319824219 520.3203125 724.639892578 532.000244141 c 0
 712.959960938 543.680175781 712.959960938 543.680175781 712.959960938 560 c 0
 712.959960938 576.319824219 712.959960938 576.319824219 724.639892578 587.999755859 c 0
 736.319824219 599.6796875 736.319824219 599.6796875 752.639648438 599.6796875 c 0
 769.071701648 599.6796875 769.071701648 599.6796875 780.696007074 588.184862919 c 0
 792.3203125 576.690038337 792.3203125 576.690038337 792.3203125 560 c 0
EndSplineSet
EndChar

StartChar: uniE03B
Encoding: 57403 57403 62
Width: 1024
Flags: H
LayerCount: 2
Fore
SplineSet
517.759765625 956.16015625 m 0
 535.398585923 950.971895401 535.398585923 950.971895401 546.559570312 938.879882812 c 2
 963.83984375 521.599609375 l 2
 973.440429688 511.039550781 973.440429688 511.039550781 979.200195312 498.559570312 c 0
 984.959960938 486.080566406 984.959960938 486.080566406 984.959960938 471.6796875 c 0
 984.959960938 457.280273438 984.959960938 457.280273438 979.200195312 444.799804688 c 0
 973.440429688 431.359863281 973.440429688 431.359863281 963.83984375 421.759765625 c 2
 602.240234375 60.16015625 l 2
 591.681182828 50.5604858602 591.681182828 50.5604858602 579.200195312 44.7998046875 c 0
 566.719726562 39.0400390625 566.719726562 39.0400390625 552.3203125 39.0400390625 c 0
 537.919433594 39.0400390625 537.919433594 39.0400390625 525.440429688 44.7998046875 c 0
 512.000488281 50.5595703125 512.000488281 50.5595703125 502.400390625 60.16015625 c 2
 85.1201171875 477.440429688 l 2
 73.0281045989 488.601414077 73.0281045989 488.601414077 67.83984375 506.240234375 c 0
 62.7199435764 521.599934896 62.7199435764 521.599934896 65.919921875 540.799804688 c 1
 65.919921875 540.799804688 l 1
 130.559570312 863.360351562 l 2
 132.479980469 874.879882812 132.479980469 874.879882812 140.800048828 883.199951172 c 0
 149.120117188 891.520019531 149.120117188 891.520019531 160.639648438 893.440429688 c 2
 483.200195312 958.080078125 l 2
 502.400065104 961.280056424 502.400065104 961.280056424 517.759765625 956.16015625 c 0
905.599609375 471.6796875 m 1
 494.719726562 881.919921875 l 1
 200.3203125 823.040039062 l 1
 141.440429688 528.639648438 l 1
 552.3203125 117.759765625 l 1
 905.599609375 471.6796875 l 1
376.3203125 688 m 0
 376.3203125 671.309961663 376.3203125 671.309961663 364.696007074 659.815137081 c 0
 353.071701648 648.3203125 353.071701648 648.3203125 336.639648438 648.3203125 c 0
 320.082379567 648.3203125 320.082379567 648.3203125 307.881033533 659.872414778 c 0
 295.6796875 671.424517056 295.6796875 671.424517056 295.6796875 688 c 0
 295.6796875 704.690038337 295.6796875 704.690038337 307.303992926 716.184862919 c 0
 318.928298352 727.6796875 318.928298352 727.6796875 335.360351562 727.6796875 c 0
 351.917620433 727.6796875 351.917620433 727.6796875 364.118966467 716.127585222 c 0
 376.3203125 704.575482944 376.3203125 704.575482944 376.3203125 688 c 0
EndSplineSet
EndChar

StartChar: uniE03C
Encoding: 57404 57404 63
Width: 1024
Flags: H
LayerCount: 2
Fore
SplineSet
640 946.559570312 m 0
 653.31355464 946.559570312 653.31355464 946.559570312 664.959960938 942.080078125 c 0
 675.930092521 937.508724971 675.930092521 937.508724971 685.440429688 928 c 2
 928 685.440429688 l 2
 937.508724971 675.930092521 937.508724971 675.930092521 942.080078125 664.959960938 c 0
 947.200195312 651.647968738 947.200195312 651.647968738 947.200195312 640 c 0
 947.200195312 627.32707036 947.200195312 627.32707036 942.080078125 615.040039062 c 0
 937.508724971 604.069907479 937.508724971 604.069907479 928 594.559570312 c 2
 694.400390625 360.959960938 l 1
 704.982426698 331.949981384 704.982426698 331.949981384 705.958197187 300.882766888 c 0
 706.933967676 269.815552392 706.933967676 269.815552392 701.197029376 244.781436237 c 0
 695.460091075 219.747320082 695.460091075 219.747320082 684.249415937 194.284423138 c 0
 673.038740799 168.821526193 673.038740799 168.821526193 662.899654376 152.467779987 c 0
 652.760567952 136.114033781 652.760567952 136.114033781 641.280273438 120.959960938 c 0
 634.110781247 110.206406372 634.110781247 110.206406372 620.799804688 103.040039062 c 0
 608.370942983 96.3463405652 608.370942983 96.3463405652 594.559570312 95.3603515625 c 0
 580.16015625 94.3994140625 580.16015625 94.3994140625 567.6796875 99.2001953125 c 0
 554.736508933 103.823061379 554.736508933 103.823061379 544.639648438 113.919921875 c 2
 352 306.559570312 l 1
 214.400390625 168.959960938 l 2
 204.799804688 159.360107422 204.799804688 159.360107422 191.67980957 159.360107422 c 0
 178.559814453 159.360107422 178.559814453 159.360107422 168.959960938 168.959960938 c 0
 159.360107422 178.559814453 159.360107422 178.559814453 159.360107422 191.67980957 c 0
 159.360107422 204.799804688 159.360107422 204.799804688 168.959960938 214.400390625 c 2
 306.559570312 352 l 1
 113.280273438 545.280273438 l 2
 104.401817421 554.157374791 104.401817421 554.157374791 99.2001953125 567.6796875 c 0
 93.7199029255 579.554583517 93.7199029255 579.554583517 94.7197265625 594.559570312 c 0
 95.5950616543 606.802252427 95.5950616543 606.802252427 101.759765625 620.16015625 c 0
 107.568480758 631.777586515 107.568480758 631.777586515 118.400390625 640.639648438 c 0
 201.696847576 707.762263706 201.696847576 707.762263706 299.51953125 704 c 0
 330.033415892 702.393683635 330.033415892 702.393683635 358.400390625 693.759765625 c 2
 360.3203125 693.120117188 l 1
 594.559570312 928 l 2
 602.972968815 936.411972261 602.972968815 936.411972261 615.040039062 941.440429688 c 0
 628.353554974 946.559570312 628.353554974 946.559570312 640 946.559570312 c 0
296.3203125 640 m 0
 223.192506925 642.612276651 223.192506925 642.612276651 158.719726562 590.719726562 c 1
 590.080078125 159.360351562 l 1
 670.946513848 267.18226586 670.946513848 267.18226586 627.200195312 353.919921875 c 0
 616.385939596 374.466017721 616.385939596 374.466017721 632.959960938 391.040039062 c 2
 882.559570312 640.639648438 l 1
 640 882.559570312 l 1
 390.400390625 633.599609375 l 2
 375.026432305 617.202909855 375.026432305 617.202909855 353.919921875 627.200195312 c 1
 353.280273438 627.200195312 l 2
 353.278321801 627.200195312 353.278321801 627.200195312 350.719726562 628.48046875 c 0
 346.880371094 630.399414062 346.880371094 630.399414062 339.200195312 632.3203125 c 0
 321.566918093 638.196277933 321.566918093 638.196277933 296.3203125 640 c 0
EndSplineSet
EndChar

StartChar: uniE03D
Encoding: 57405 57405 64
Width: 1024
Flags: H
LayerCount: 2
Fore
SplineSet
956.16015625 642.559570312 m 0
 959.171537075 619.971341763 959.171537075 619.971341763 934.400390625 595.200195312 c 2
 768 428.799804688 l 2
 757.758202946 418.559570312 757.758202946 418.559570312 743.040039062 418.559570312 c 0
 727.041601741 418.559570312 727.041601741 418.559570312 716.799804688 428.799804688 c 0
 707.199951172 438.399658203 707.199951172 438.399658203 707.199951172 451.199707031 c 0
 707.199951172 463.999755859 707.199951172 463.999755859 716.799804688 473.599609375 c 2
 883.200195312 640 l 1
 640 883.200195312 l 1
 486.400390625 729.599609375 l 2
 476.799804688 719.999755859 476.799804688 719.999755859 464 719.999755859 c 0
 451.200195312 719.999755859 451.200195312 719.999755859 441.599609375 729.599609375 c 0
 431.999755859 739.200195312 431.999755859 739.200195312 431.999755859 752 c 0
 431.999755859 764.799804688 431.999755859 764.799804688 441.599609375 774.400390625 c 2
 595.200195312 928 l 2
 601.599283953 934.400065154 601.599283953 934.400065154 614.400390625 940.799804688 c 0
 624.146428226 945.416472407 624.146428226 945.416472407 639.759765625 946.319824219 c 0
 655.373103024 947.223176031 655.373103024 947.223176031 665.599609375 942.719726562 c 0
 673.442607934 939.358929883 673.442607934 939.358929883 684.799804688 928 c 2
 928 684.799804688 l 2
 954.986592615 657.813212073 954.986592615 657.813212073 956.16015625 642.559570312 c 0
172.799804688 889.599609375 m 0
 183.199783325 898.400070191 183.199783325 898.400070191 195.199707031 896.00012207 c 0
 207.199630738 893.60017395 207.199630738 893.60017395 217.599609375 883.200195312 c 2
 870.400390625 185.599609375 l 2
 880.000244141 175.999755859 880.000244141 175.999755859 880.000244141 163.199707031 c 0
 880.000244141 150.399658203 880.000244141 150.399658203 870.400390625 140.799804688 c 0
 864 134.400390625 864 134.400390625 851.200195312 134.400390625 c 0
 838.399414062 134.400390625 838.399414062 134.400390625 825.599609375 147.200195312 c 2
 716.799804688 262.400390625 l 1
 706.50025975 216.354278586 706.50025975 216.354278586 662.400390625 143.360351562 c 0
 660.604142809 140.486464684 660.604142809 140.486464684 656.349627206 135.413753797 c 0
 652.095111603 130.341042911 652.095111603 130.341042911 650.879882812 128.639648438 c 2
 632.3203125 109.440429688 l 2
 627.337323307 103.626097435 627.337323307 103.626097435 610.559570312 100.48046875 c 0
 595.817256434 98.5671013327 595.817256434 98.5671013327 584.3203125 102.400390625 c 0
 565.034419354 110.110039701 565.034419354 110.110039701 549.759765625 122.240234375 c 2
 357.759765625 314.240234375 l 1
 223.360351562 179.83984375 l 2
 213.118554509 169.599609375 213.118554509 169.599609375 195.83984375 169.599609375 c 0
 182.400390625 169.599609375 182.400390625 169.599609375 172.16015625 179.83984375 c 0
 162.560302734 189.439697266 162.560302734 189.439697266 162.560302734 202.239746094 c 0
 162.560302734 215.039794922 162.560302734 215.039794922 172.16015625 224.639648438 c 2
 306.559570312 359.040039062 l 1
 114.559570312 551.040039062 l 2
 112.800097716 552.800048739 112.800097716 552.800048739 111.146970042 555.279866384 c 0
 109.493842369 557.759684029 109.493842369 557.759684029 108.16015625 559.360351562 c 0
 106.653218132 560.866714952 106.653218132 560.866714952 104.715590164 564.918583205 c 0
 102.777962195 568.970451458 102.777962195 568.970451458 102.400390625 569.599609375 c 0
 96 581.485251948 96 581.485251948 96 595.200195312 c 0
 96 613.439880406 96 613.439880406 100.48046875 620.16015625 c 0
 105.015180777 630.740382125 105.015180777 630.740382125 115.200195312 640 c 0
 203.199127201 704 203.199127201 704 300.799804688 704 c 1
 172.799804688 844.799804688 l 2
 163.199951172 854.399658203 163.199951172 854.399658203 163.199951172 867.199707031 c 0
 163.199951172 879.999755859 163.199951172 879.999755859 172.799804688 889.599609375 c 0
371.200195312 377.599609375 m 1
 588.799804688 160 l 1
 614.091458232 191.613843347 614.091458232 191.613843347 630.258898918 237.629450737 c 0
 646.426339603 283.645058127 646.426339603 283.645058127 633.599609375 326.400390625 c 1
 364.799804688 627.200195312 l 1
 351.360351562 633.599609375 l 2
 347.737086187 635.153473839 347.737086187 635.153473839 341.13016507 637.249881496 c 0
 334.523243954 639.346289152 334.523243954 639.346289152 313.651967742 641.469501317 c 0
 292.780691531 643.592713482 292.780691531 643.592713482 271.43666507 640.834053371 c 0
 250.09263861 638.075393259 250.09263861 638.075393259 219.382373992 625.085626317 c 0
 188.672109375 612.095859375 188.672109375 612.095859375 160 588.799804688 c 1
 371.200195312 377.599609375 l 1
EndSplineSet
EndChar

StartChar: uniE03E
Encoding: 57406 57406 65
Width: 1024
Flags: H
LayerCount: 2
Fore
SplineSet
192 832 m 2
 832 832 l 2
 858 832 858 832 877 813 c 0
 896 794 896 794 896 768 c 2
 896 608 l 2
 896 582 896 582 877 563 c 0
 858 544 858 544 832 544 c 2
 192 544 l 2
 166 544 166 544 147 563 c 0
 128 582 128 582 128 608 c 2
 128 768 l 2
 128 794 128 794 147 813 c 0
 166 832 166 832 192 832 c 2
192 768 m 1
 192 608 l 1
 832 608 l 1
 832 768 l 1
 192 768 l 1
192 480 m 2
 832 480 l 2
 858 480 858 480 877 461 c 0
 896 442 896 442 896 416 c 2
 896 256 l 2
 896 230 896 230 877 211 c 0
 858 192 858 192 832 192 c 2
 192 192 l 2
 166 192 166 192 147 211 c 0
 128 230 128 230 128 256 c 2
 128 416 l 2
 128 442 128 442 147 461 c 0
 166 480 166 480 192 480 c 2
192 416 m 1
 192 256 l 1
 832 256 l 1
 832 416 l 1
 192 416 l 1
EndSplineSet
EndChar

StartChar: uniE03F
Encoding: 57407 57407 66
Width: 1024
Flags: H
LayerCount: 2
Fore
SplineSet
401.280273438 935.6796875 m 2
 494.719726562 880 l 1
 512 880.959445546 512 880.959445546 529.280273438 880 c 1
 622.080078125 935.6796875 l 2
 635.281796294 942.788781744 635.281796294 942.788781744 648.959960938 938.879882812 c 0
 740.886751607 909.849981411 740.886751607 909.849981411 813.440429688 844.16015625 c 0
 823.6796875 833.919335908 823.6796875 833.919335908 823.6796875 819.83984375 c 2
 821.759765625 711.040039062 l 1
 830.717969465 697.604100133 830.717969465 697.604100133 839.040039062 680.959960938 c 1
 933.759765625 628.48046875 l 2
 946.142335303 621.257171906 946.142335303 621.257171906 949.120117188 607.360351562 c 0
 970.287046306 513.070769821 970.287046306 513.070769821 949.759765625 417.280273438 c 0
 946.73053802 403.143364346 946.73053802 403.143364346 933.759765625 396.16015625 c 2
 838.400390625 343.6796875 l 1
 830.081984333 327.044461489 830.081984333 327.044461489 821.120117188 313.599609375 c 1
 823.040039062 204.799804688 l 2
 823.983136316 190.646146675 823.983136316 190.646146675 812.799804688 180.48046875 c 0
 743.57234831 115.993489099 743.57234831 115.993489099 648.959960938 85.1201171875 c 0
 635.029917678 81.1392372502 635.029917678 81.1392372502 622.719726562 88.3203125 c 2
 529.280273438 144.639648438 l 1
 512 143.680202892 512 143.680202892 494.719726562 144.639648438 c 1
 401.280273438 88.9599609375 l 2
 389.409388794 81.6549083337 389.409388794 81.6549083337 375.040039062 85.759765625 c 0
 283.112367352 114.789945254 283.112367352 114.789945254 210.559570312 180.48046875 c 0
 200.3203125 190.719726562 200.3203125 190.719726562 200.3203125 204.799804688 c 2
 202.240234375 313.599609375 l 1
 193.282471588 327.036253555 193.282471588 327.036253555 184.959960938 343.6796875 c 1
 90.240234375 396.16015625 l 2
 77.2694619798 403.143364346 77.2694619798 403.143364346 74.240234375 417.280273438 c 0
 52.8674260871 511.514523879 52.8674260871 511.514523879 74.240234375 606.719726562 c 0
 77.2183164115 620.617947664 77.2183164115 620.617947664 89.599609375 627.83984375 c 2
 184.959960938 680.959960938 l 1
 192 695.040039062 192 695.040039062 202.240234375 710.400390625 c 1
 200.3203125 819.200195312 l 2
 200.3203125 834.30373046 200.3203125 834.30373046 210.559570312 843.51953125 c 0
 280.90622272 908.162675456 280.90622272 908.162675456 375.040039062 938.879882812 c 0
 390.046516784 943.168382495 390.046516784 943.168382495 401.280273438 935.6796875 c 2
266.240234375 701.440429688 m 2
 266.240234375 691.51953125 266.240234375 691.51953125 260.48046875 682.879882812 c 0
 247.95077691 664.567708777 247.95077691 664.567708777 238.080078125 643.83984375 c 0
 234.055883134 634.787707192 234.055883134 634.787707192 224 629.759765625 c 2
 133.120117188 579.200195312 l 1
 121.273450412 511.078848466 121.273450412 511.078848466 133.759765625 444.799804688 c 1
 224.639648438 394.240234375 l 2
 233.340005145 389.407030623 233.340005145 389.407030623 238.719726562 380.799804688 c 0
 246.60995598 363.442263074 246.60995598 363.442263074 261.120117188 341.120117188 c 0
 266.879882812 332.48046875 266.879882812 332.48046875 266.879882812 322.559570312 c 2
 264.959960938 218.879882812 l 1
 316.568223465 174.917558866 316.568223465 174.917558866 381.440429688 151.6796875 c 1
 470.400390625 204.799804688 l 2
 480.064463555 210.169280271 480.064463555 210.169280271 488.959960938 209.280273438 c 0
 512 207.359903979 512 207.359903979 535.040039062 209.280273438 c 0
 543.935536445 210.169280271 543.935536445 210.169280271 553.599609375 204.799804688 c 2
 642.559570312 151.040039062 l 1
 708.901247642 176.16932286 708.901247642 176.16932286 759.040039062 218.879882812 c 1
 757.120117188 322.559570312 l 2
 757.120117188 332.48046875 757.120117188 332.48046875 762.879882812 341.120117188 c 0
 775.409574652 359.432291223 775.409574652 359.432291223 785.280273438 380.16015625 c 0
 789.009926645 389.485000763 789.009926645 389.485000763 798.719726562 394.879882812 c 2
 889.599609375 445.440429688 l 1
 901.44781096 513.560433183 901.44781096 513.560433183 888.959960938 579.83984375 c 1
 798.080078125 630.400390625 l 2
 788.04195957 635.97598852 788.04195957 635.97598852 784.639648438 644.48046875 c 0
 774.771901432 665.203791548 774.771901432 665.203791548 762.240234375 683.51953125 c 0
 756.48046875 691.199707031 756.48046875 691.199707031 756.48046875 702.080078125 c 2
 758.400390625 805.759765625 l 1
 706.793637876 849.721019514 706.793637876 849.721019514 641.919921875 872.959960938 c 1
 552.959960938 819.83984375 l 2
 543.295100214 814.469930459 543.295100214 814.469930459 534.400390625 815.360351562 c 0
 511.359863281 817.279296875 511.359863281 817.279296875 488.3203125 815.360351562 c 0
 479.424568222 814.469962755 479.424568222 814.469962755 469.759765625 819.83984375 c 2
 380.799804688 873.599609375 l 1
 313.945325533 848.27608354 313.945325533 848.27608354 264.959960938 805.759765625 c 1
 266.240234375 701.440429688 l 2
352 512 m 0
 352 446 352 446 399 399 c 0
 446 352 446 352 512 352 c 0
 578 352 578 352 625 399 c 0
 672 446 672 446 672 512 c 0
 672 578 672 578 625 625 c 0
 578 672 578 672 512 672 c 0
 446 672 446 672 399 625 c 0
 352 578 352 578 352 512 c 0
512 736 m 0
 605 736 605 736 670.5 670.5 c 0
 736 605 736 605 736 512 c 0
 736 419 736 419 670.5 353.5 c 0
 605 288 605 288 512 288 c 0
 419 288 419 288 353.5 353.5 c 0
 288 419 288 419 288 512 c 0
 288 605 288 605 353.5 670.5 c 0
 419 736 419 736 512 736 c 0
EndSplineSet
EndChar

StartChar: uniE040
Encoding: 57408 57408 67
Width: 1024
Flags: H
LayerCount: 2
Fore
SplineSet
608 800 m 0
 608 773.211306199 608 773.211306199 622.080078125 750.080078125 c 0
 622.399658203 749.760498047 622.399658203 749.760498047 622.719726748 749.120360957 c 0
 623.039795293 748.480223866 623.039795293 748.480223866 623.360351562 748.16015625 c 0
 623.680053618 747.8399661 623.680053618 747.8399661 623.99987793 747.200073336 c 0
 624.319702242 746.560180571 624.319702242 746.560180571 624.639648438 746.240234375 c 0
 653.151605228 704 653.151605228 704 704 704 c 0
 744 704 744 704 772 732 c 0
 800 760 800 760 800 800 c 0
 800 840 800 840 772 868 c 0
 744 896 744 896 704 896 c 0
 664 896 664 896 636 868 c 0
 608 840 608 840 608 800 c 0
704 640 m 0
 636.395947649 640 636.395947649 640 589.440429688 688 c 1
 405.120117188 569.599609375 l 1
 416 541.905636617 416 541.905636617 416 512 c 0
 416 482.094363383 416 482.094363383 405.120117188 454.400390625 c 1
 589.440429688 336 l 1
 636.395947649 384 636.395947649 384 704 384 c 0
 770 384 770 384 817 337 c 0
 864 290 864 290 864 224 c 0
 864 158 864 158 817 111 c 0
 770 64 770 64 704 64 c 0
 638 64 638 64 591 111 c 0
 544 158 544 158 544 224 c 0
 544 253.905636617 544 253.905636617 554.879882812 281.599609375 c 1
 370.559570312 400 l 1
 323.604052351 352 323.604052351 352 256 352 c 0
 190 352 190 352 143 399 c 0
 96 446 96 446 96 512 c 0
 96 578 96 578 143 625 c 0
 190 672 190 672 256 672 c 0
 323.604052351 672 323.604052351 672 370.559570312 624 c 1
 554.879882812 742.400390625 l 1
 544 770.094363383 544 770.094363383 544 800 c 0
 544 866 544 866 591 913 c 0
 638 960 638 960 704 960 c 0
 770 960 770 960 817 913 c 0
 864 866 864 866 864 800 c 0
 864 734 864 734 817 687 c 0
 770 640 770 640 704 640 c 0
337.919921875 461.440429688 m 0
 352 484.571657761 352 484.571657761 352 512 c 0
 352 539.428342239 352 539.428342239 337.919921875 562.559570312 c 0
 336.639648438 562.559570312 336.639648438 562.559570312 336.639648438 563.83984375 c 0
 336.639648438 564.16027832 336.639648438 564.16027832 336.319824219 564.48034668 c 0
 336 564.800415039 336 564.800415039 336 565.120117188 c 0
 307.761833779 608 307.761833779 608 256 608 c 0
 216 608 216 608 188 580 c 0
 160 552 160 552 160 512 c 0
 160 472 160 472 188 444 c 0
 216 416 216 416 256 416 c 0
 307.761833779 416 307.761833779 416 336 458.879882812 c 0
 336 459.199584961 336 459.199584961 336.319824219 459.51965332 c 0
 336.639648438 459.83972168 336.639648438 459.83972168 336.639648438 460.16015625 c 0
 337.280273438 460.799804688 337.280273438 460.799804688 337.919921875 461.440429688 c 0
622.080078125 273.919921875 m 0
 608 250.788693801 608 250.788693801 608 224 c 0
 608 184 608 184 636 156 c 0
 664 128 664 128 704 128 c 0
 744 128 744 128 772 156 c 0
 800 184 800 184 800 224 c 0
 800 264 800 264 772 292 c 0
 744 320 744 320 704 320 c 0
 653.151605228 320 653.151605228 320 624.639648438 277.759765625 c 0
 624.319702242 277.439819429 624.319702242 277.439819429 623.99987793 276.799926664 c 0
 623.680053618 276.1600339 623.680053618 276.1600339 623.360351562 275.83984375 c 0
 623.039795293 275.519776134 623.039795293 275.519776134 622.719726748 274.879639043 c 0
 622.399658203 274.239501953 622.399658203 274.239501953 622.080078125 273.919921875 c 0
EndSplineSet
EndChar

StartChar: uniE041
Encoding: 57409 57409 68
Width: 1024
Flags: H
LayerCount: 2
Fore
SplineSet
192 928 m 2
 832 928 l 2
 857.848723217 928 857.848723217 928 877.440429688 909.440429688 c 0
 896 889.848723217 896 889.848723217 896 864 c 2
 896 629.120117188 l 2
 896 555.750692978 896 555.750692978 878.582157643 490.138913557 c 0
 861.164315286 424.527134135 861.164315286 424.527134135 834.748233665 377.703327469 c 0
 808.332152044 330.879520803 808.332152044 330.879520803 771.259977432 290.052133309 c 0
 734.187802819 249.224745814 734.187802819 249.224745814 700.949126522 223.920403362 c 0
 667.710450226 198.61606091 667.710450226 198.61606091 630.172764421 177.647158819 c 0
 592.635078617 156.678256728 592.635078617 156.678256728 571.762628709 147.967471966 c 0
 550.890178801 139.256687204 550.890178801 139.256687204 532.48046875 133.120117188 c 0
 512 126.292798244 512 126.292798244 491.51953125 133.120117188 c 0
 473.109821199 139.256687204 473.109821199 139.256687204 452.237371291 147.967471966 c 0
 431.364921383 156.678256728 431.364921383 156.678256728 393.827235579 177.647158819 c 0
 356.289549774 198.61606091 356.289549774 198.61606091 323.050873478 223.920403362 c 0
 289.812197181 249.224745814 289.812197181 249.224745814 252.740022568 290.052133309 c 0
 215.667847956 330.879520803 215.667847956 330.879520803 189.251766335 377.703327469 c 0
 162.835684714 424.527134135 162.835684714 424.527134135 145.417842357 490.138913557 c 0
 128 555.750692978 128 555.750692978 128 629.120117188 c 2
 128 864 l 2
 128 889.848723217 128 889.848723217 146.559570312 909.440429688 c 0
 166.151276783 928 166.151276783 928 192 928 c 2
192 864 m 1
 192 629.120117188 l 2
 192 564.788307139 192 564.788307139 207.205397631 507.288689969 c 0
 222.410795263 449.7890728 222.410795263 449.7890728 245.444389404 408.737634511 c 0
 268.477983545 367.686196223 268.477983545 367.686196223 300.984979219 331.846469443 c 0
 333.491974892 296.006742663 333.491974892 296.006742663 362.577441062 273.789093376 c 0
 391.662907232 251.571444089 391.662907232 251.571444089 424.857627497 233.025399609 c 0
 458.052347761 214.479355128 458.052347761 214.479355128 476.575812509 206.729286753 c 0
 495.099277257 198.979218377 495.099277257 198.979218377 512 193.280273438 c 1
 528.808236139 198.948031778 528.808236139 198.948031778 547.416480274 206.760580881 c 0
 566.024724409 214.573129984 566.024724409 214.573129984 599.15007972 233.139786967 c 0
 632.275435031 251.706443951 632.275435031 251.706443951 661.414851721 273.988481528 c 0
 690.55426841 296.270519105 690.55426841 296.270519105 723.022727999 332.117744557 c 0
 755.491187587 367.964970008 755.491187587 367.964970008 778.547903379 409.01546654 c 0
 801.604619171 450.065963073 801.604619171 450.065963073 816.802309586 507.492727474 c 0
 832 564.919491875 832 564.919491875 832 629.120117188 c 2
 832 864 l 1
 192 864 l 1
710.400390625 648.959960938 m 2
 474.879882812 424.959960938 l 2
 465.759765625 416.3203125 465.759765625 416.3203125 452.799804688 416.3203125 c 0
 439.83984375 416.3203125 439.83984375 416.3203125 430.719726562 424.959960938 c 2
 313.599609375 536.959960938 l 2
 304.049898357 546.032441413 304.049898357 546.032441413 303.919799805 559.439941406 c 0
 303.789701252 572.847441399 303.789701252 572.847441399 312.959960938 582.400390625 c 0
 322.032441413 591.950101643 322.032441413 591.950101643 335.439941406 592.080200195 c 0
 348.847441399 592.210298748 348.847441399 592.210298748 358.400390625 583.040039062 c 2
 453.120117188 492.16015625 l 1
 666.240234375 695.6796875 l 2
 675.850707545 704.788626418 675.850707545 704.788626418 689.199829102 704.400024414 c 0
 702.548950658 704.01142241 702.548950658 704.01142241 711.6796875 694.400390625 c 0
 720.788624152 684.78918288 720.788624152 684.78918288 720.400024414 671.439941406 c 0
 720.011424676 658.090699932 720.011424676 658.090699932 710.400390625 648.959960938 c 2
EndSplineSet
EndChar

StartChar: uniE042
Encoding: 57410 57410 69
Width: 1024
Flags: H
LayerCount: 2
Fore
SplineSet
832 896 m 2
 857.599609375 896 857.599609375 896 876.799804688 876.799804688 c 0
 896 857.599609375 896 857.599609375 896 832 c 2
 896 192 l 2
 896 166.400390625 896 166.400390625 876.799804688 147.200195312 c 0
 857.599609375 128 857.599609375 128 832 128 c 2
 608 128 l 2
 594 128 594 128 585 137 c 0
 576 146 576 146 576 160 c 0
 576 174 576 174 585 183 c 0
 594 192 594 192 608 192 c 2
 832 192 l 1
 832 832 l 1
 608 832 l 2
 594 832 594 832 585 841 c 0
 576 850 576 850 576 864 c 0
 576 878 576 878 585 887 c 0
 594 896 594 896 608 896 c 2
 832 896 l 2
640 505.599609375 m 2
 639.715711806 502.470703125 639.715711806 502.470703125 638.115614149 499.270751953 c 0
 636.515516493 496.070800781 636.515516493 496.070800781 635.057562934 494.435302734 c 2
 633.599609375 492.799804688 l 1
 460.799804688 320 l 2
 451.199951172 310.400146484 451.199951172 310.400146484 438.399902344 310.400146484 c 0
 425.599853516 310.400146484 425.599853516 310.400146484 416 320 c 0
 406.400146484 329.599853516 406.400146484 329.599853516 406.400146484 342.399902344 c 0
 406.400146484 355.199951172 406.400146484 355.199951172 416 364.799804688 c 2
 531.200195312 480 l 1
 160 480 l 2
 146 480 146 480 137 489 c 0
 128 498 128 498 128 512 c 0
 128 526 128 526 137 535 c 0
 146 544 146 544 160 544 c 2
 531.200195312 544 l 1
 416 659.200195312 l 2
 406.400146484 668.800048828 406.400146484 668.800048828 406.400146484 681.600097656 c 0
 406.400146484 694.400146484 406.400146484 694.400146484 416 704 c 0
 425.599853516 713.599853516 425.599853516 713.599853516 438.399902344 713.599853516 c 0
 451.199951172 713.599853516 451.199951172 713.599853516 460.799804688 704 c 2
 633.599609375 537.599609375 l 2
 640.639648438 529.152421827 640.639648438 529.152421827 640.639648438 520.959960938 c 2
 640 505.599609375 l 2
EndSplineSet
EndChar

StartChar: uniE043
Encoding: 57411 57411 70
Width: 1024
Flags: H
LayerCount: 2
Fore
SplineSet
192 192 m 1
 416 192 l 2
 430 192 430 192 439 183 c 0
 448 174 448 174 448 160 c 0
 448 146 448 146 439 137 c 0
 430 128 430 128 416 128 c 2
 192 128 l 2
 166.400390625 128 166.400390625 128 147.200195312 147.200195312 c 0
 128 166.400390625 128 166.400390625 128 192 c 2
 128 832 l 2
 128 857.599609375 128 857.599609375 147.200195312 876.799804688 c 0
 166.400390625 896 166.400390625 896 192 896 c 2
 416 896 l 2
 430 896 430 896 439 887 c 0
 448 878 448 878 448 864 c 0
 448 850 448 850 439 841 c 0
 430 832 430 832 416 832 c 2
 192 832 l 1
 192 192 l 1
899.200195312 516.48046875 m 1
 897.919921875 505.599609375 l 1
 892.16015625 495.360351562 l 1
 883.200195312 486.400390625 l 1
 716.799804688 320 l 2
 707.199951172 310.400146484 707.199951172 310.400146484 694.399902344 310.400146484 c 0
 681.599853516 310.400146484 681.599853516 310.400146484 672 320 c 0
 662.400146484 329.599853516 662.400146484 329.599853516 662.400146484 342.399902344 c 0
 662.400146484 355.199951172 662.400146484 355.199951172 672 364.799804688 c 2
 787.200195312 480 l 1
 416 480 l 2
 402 480 402 480 393 489 c 0
 384 498 384 498 384 512 c 0
 384 526 384 526 393 535 c 0
 402 544 402 544 416 544 c 2
 787.200195312 544 l 1
 672 659.200195312 l 2
 662.400146484 668.800048828 662.400146484 668.800048828 662.400146484 681.600097656 c 0
 662.400146484 694.400146484 662.400146484 694.400146484 672 704 c 0
 681.599853516 713.599853516 681.599853516 713.599853516 694.399902344 713.599853516 c 0
 707.199951172 713.599853516 707.199951172 713.599853516 716.799804688 704 c 2
 889.599609375 537.599609375 l 2
 894.721137742 531.626446238 894.721137742 531.626446238 895.360351562 531.200195312 c 0
 899.200195312 525.437498509 899.200195312 525.437498509 899.200195312 516.48046875 c 1
EndSplineSet
EndChar

StartChar: uniE044
Encoding: 57412 57412 71
Width: 1024
Flags: H
LayerCount: 2
Fore
SplineSet
352 768 m 0
 352 781 352 781 361.5 790.5 c 0
 371 800 371 800 384 800 c 2
 896 800 l 2
 909 800 909 800 918.5 790.5 c 0
 928 781 928 781 928 768 c 0
 928 755 928 755 918.5 745.5 c 0
 909 736 909 736 896 736 c 2
 384 736 l 2
 371 736 371 736 361.5 745.5 c 0
 352 755 352 755 352 768 c 0
262.400390625 617.599609375 m 2
 189.440429688 544 l 1
 896 544 l 2
 909 544 909 544 918.5 534.5 c 0
 928 525 928 525 928 512 c 0
 928 499 928 499 918.5 489.5 c 0
 909 480 909 480 896 480 c 2
 189.440429688 480 l 1
 262.400390625 407.040039062 l 2
 272.000244141 397.440185547 272.000244141 397.440185547 272.000244141 384.32019043 c 0
 272.000244141 371.200195312 272.000244141 371.200195312 262.400390625 361.599609375 c 0
 252.799804688 351.999755859 252.799804688 351.999755859 239.67980957 351.999755859 c 0
 226.559814453 351.999755859 226.559814453 351.999755859 216.959960938 361.599609375 c 2
 88.9599609375 489.599609375 l 2
 79.3601074219 499.200195312 79.3601074219 499.200195312 79.3601074219 512.32019043 c 0
 79.3601074219 525.440185547 79.3601074219 525.440185547 88.9599609375 535.040039062 c 2
 216.959960938 663.040039062 l 2
 226.559814453 672.639892578 226.559814453 672.639892578 239.67980957 672.639892578 c 0
 252.799804688 672.639892578 252.799804688 672.639892578 262.400390625 663.040039062 c 0
 272.000244141 653.440185547 272.000244141 653.440185547 272.000244141 640.32019043 c 0
 272.000244141 627.200195312 272.000244141 627.200195312 262.400390625 617.599609375 c 2
384 288 m 2
 896 288 l 2
 909 288 909 288 918.5 278.5 c 0
 928 269 928 269 928 256 c 0
 928 243 928 243 918.5 233.5 c 0
 909 224 909 224 896 224 c 2
 384 224 l 2
 371 224 371 224 361.5 233.5 c 0
 352 243 352 243 352 256 c 0
 352 269 352 269 361.5 278.5 c 0
 371 288 371 288 384 288 c 2
EndSplineSet
EndChar

StartChar: uniE045
Encoding: 57413 57413 72
Width: 1024
Flags: H
LayerCount: 2
Fore
SplineSet
96 768 m 0
 96 781 96 781 105.5 790.5 c 0
 115 800 115 800 128 800 c 2
 640 800 l 2
 653 800 653 800 662.5 790.5 c 0
 672 781 672 781 672 768 c 0
 672 755 672 755 662.5 745.5 c 0
 653 736 653 736 640 736 c 2
 128 736 l 2
 115 736 115 736 105.5 745.5 c 0
 96 755 96 755 96 768 c 0
806.400390625 662.400390625 m 2
 935.040039062 534.400390625 l 2
 944.639892578 524.799804688 944.639892578 524.799804688 944.639892578 511.67980957 c 0
 944.639892578 498.559814453 944.639892578 498.559814453 935.040039062 488.959960938 c 2
 807.040039062 360.959960938 l 2
 797.440185547 351.360107422 797.440185547 351.360107422 784.32019043 351.360107422 c 0
 771.200195312 351.360107422 771.200195312 351.360107422 761.599609375 360.959960938 c 0
 751.999755859 370.559814453 751.999755859 370.559814453 751.999755859 383.67980957 c 0
 751.999755859 396.799804688 751.999755859 396.799804688 761.599609375 406.400390625 c 2
 834.559570312 480 l 1
 128 480 l 2
 115 480 115 480 105.5 489.5 c 0
 96 499 96 499 96 512 c 0
 96 525.488803628 96 525.488803628 105.303938855 534.663592312 c 0
 114.607877709 543.838380996 114.607877709 543.838380996 128 543.360351562 c 2
 834.559570312 543.360351562 l 1
 760.959960938 616.959960938 l 2
 751.360107422 626.559814453 751.360107422 626.559814453 751.360107422 639.67980957 c 0
 751.360107422 652.799804688 751.360107422 652.799804688 760.959960938 662.400390625 c 0
 770.559814453 672.000244141 770.559814453 672.000244141 783.67980957 672.000244141 c 0
 796.799804688 672.000244141 796.799804688 672.000244141 806.400390625 662.400390625 c 2
128 288 m 2
 640 288 l 2
 653 288 653 288 662.5 278.5 c 0
 672 269 672 269 672 256 c 0
 672 243 672 243 662.5 233.5 c 0
 653 224 653 224 640 224 c 2
 128 224 l 2
 115 224 115 224 105.5 233.5 c 0
 96 243 96 243 96 256 c 0
 96 269 96 269 105.5 278.5 c 0
 115 288 115 288 128 288 c 2
EndSplineSet
EndChar

StartChar: uniE046
Encoding: 57414 57414 73
Width: 1024
Flags: H
LayerCount: 2
Fore
SplineSet
512 896 m 0
 525 896 525 896 534.5 886.5 c 0
 544 877 544 877 544 864 c 2
 544 752 l 2
 544 748.799804688 544 748.799804688 543.360351562 747.51953125 c 1
 578.691408798 737.356156536 578.691408798 737.356156536 601.345704399 707.487803476 c 0
 624 677.619450416 624 677.619450416 624 640 c 0
 624 602.555624009 624 602.555624009 601.514238808 572.869268795 c 0
 579.028477616 543.182913581 579.028477616 543.182913581 544 532.48046875 c 1
 544 160 l 2
 544 147 544 147 534.5 137.5 c 0
 525 128 525 128 512 128 c 0
 499 128 499 128 489.5 137.5 c 0
 480 147 480 147 480 160 c 2
 480 532.48046875 l 1
 444.971522384 543.182913581 444.971522384 543.182913581 422.485761192 572.869268795 c 0
 400 602.555624009 400 602.555624009 400 640 c 0
 400 677.619450416 400 677.619450416 422.654295601 707.487803476 c 0
 445.308591202 737.356156536 445.308591202 737.356156536 480.639648438 747.51953125 c 1
 480 748.799804688 480 748.799804688 480 752 c 2
 480 864 l 2
 480 877 480 877 489.5 886.5 c 0
 499 896 499 896 512 896 c 0
688 320 m 0
 688 357.619450416 688 357.619450416 710.654295601 387.487803476 c 0
 733.308591202 417.356156536 733.308591202 417.356156536 768.639648438 427.51953125 c 1
 768 428.799804688 768 428.799804688 768 432 c 2
 768 864 l 2
 768 877 768 877 777.5 886.5 c 0
 787 896 787 896 800 896 c 0
 813 896 813 896 822.5 886.5 c 0
 832 877 832 877 832 864 c 2
 832 432 l 2
 832 428.799804688 832 428.799804688 831.360351562 427.51953125 c 1
 866.691408798 417.356156536 866.691408798 417.356156536 889.345704399 387.487803476 c 0
 912 357.619450416 912 357.619450416 912 320 c 0
 912 282.187624613 912 282.187624613 889.57127325 252.702695146 c 0
 867.142546499 223.217765679 867.142546499 223.217765679 832 212.48046875 c 1
 832 160 l 2
 832 147 832 147 822.5 137.5 c 0
 813 128 813 128 800 128 c 0
 787 128 787 128 777.5 137.5 c 0
 768 147 768 147 768 160 c 2
 768 212.48046875 l 1
 732.971522384 223.182913581 732.971522384 223.182913581 710.485761192 252.869268795 c 0
 688 282.555624009 688 282.555624009 688 320 c 0
192 356.48046875 m 1
 156.971522384 367.182913581 156.971522384 367.182913581 134.485761192 396.869268795 c 0
 112 426.555624009 112 426.555624009 112 464 c 0
 112 501.444375991 112 501.444375991 134.485761192 531.130731205 c 0
 156.971522384 560.817086419 156.971522384 560.817086419 192 571.51953125 c 1
 192 864 l 2
 192 877 192 877 201.5 886.5 c 0
 211 896 211 896 224 896 c 0
 237 896 237 896 246.5 886.5 c 0
 256 877 256 877 256 864 c 2
 256 571.51953125 l 1
 291.142546499 560.782234321 291.142546499 560.782234321 313.57127325 531.297304854 c 0
 336 501.812375387 336 501.812375387 336 464 c 0
 336 426.187624613 336 426.187624613 313.57127325 396.702695146 c 0
 291.142546499 367.217765679 291.142546499 367.217765679 256 356.48046875 c 1
 256 160 l 2
 256 147 256 147 246.5 137.5 c 0
 237 128 237 128 224 128 c 0
 211 128 211 128 201.5 137.5 c 0
 192 147 192 147 192 160 c 2
 192 356.48046875 l 1
EndSplineSet
EndChar

StartChar: uniE047
Encoding: 57415 57415 74
Width: 1024
Flags: H
LayerCount: 2
Fore
SplineSet
539.51953125 656 m 1
 528.817086419 620.971522384 528.817086419 620.971522384 499.130731205 598.485761192 c 0
 469.444375991 576 469.444375991 576 432 576 c 0
 394.555624009 576 394.555624009 576 364.869268795 598.485761192 c 0
 335.182913581 620.971522384 335.182913581 620.971522384 324.48046875 656 c 1
 160 656 l 2
 147 656 147 656 137.5 665.5 c 0
 128 675 128 675 128 688 c 0
 128 701 128 701 137.5 710.5 c 0
 147 720 147 720 160 720 c 2
 324.48046875 720 l 1
 335.182913581 755.028477616 335.182913581 755.028477616 364.869268795 777.514238808 c 0
 394.555624009 800 394.555624009 800 432 800 c 0
 469.444375991 800 469.444375991 800 499.130731205 777.514238808 c 0
 528.817086419 755.028477616 528.817086419 755.028477616 539.51953125 720 c 1
 864 720 l 2
 877 720 877 720 886.5 710.5 c 0
 896 701 896 701 896 688 c 0
 896 675 896 675 886.5 665.5 c 0
 877 656 877 656 864 656 c 2
 539.51953125 656 l 1
688 224 m 0
 650.555624009 224 650.555624009 224 620.869268795 246.485761192 c 0
 591.182913581 268.971522384 591.182913581 268.971522384 580.48046875 304 c 1
 160 304 l 2
 147 304 147 304 137.5 313.5 c 0
 128 323 128 323 128 336 c 0
 128 349 128 349 137.5 358.5 c 0
 147 368 147 368 160 368 c 2
 580.48046875 368 l 1
 591.182913581 403.028477616 591.182913581 403.028477616 620.869268795 425.514238808 c 0
 650.555624009 448 650.555624009 448 688 448 c 0
 725.444375991 448 725.444375991 448 755.130731205 425.514238808 c 0
 784.817086419 403.028477616 784.817086419 403.028477616 795.51953125 368 c 1
 864 368 l 2
 877 368 877 368 886.5 358.5 c 0
 896 349 896 349 896 336 c 0
 896 323 896 323 886.5 313.5 c 0
 877 304 877 304 864 304 c 2
 795.51953125 304 l 1
 784.817086419 268.971522384 784.817086419 268.971522384 755.130731205 246.485761192 c 0
 725.444375991 224 725.444375991 224 688 224 c 0
EndSplineSet
EndChar

StartChar: uniE048
Encoding: 57416 57416 75
Width: 1024
Flags: H
LayerCount: 2
Fore
SplineSet
192 864 m 2
 448 864 l 2
 461 864 461 864 470.5 854.5 c 0
 480 845 480 845 480 832 c 2
 480 576 l 2
 480 563 480 563 470.5 553.5 c 0
 461 544 461 544 448 544 c 2
 192 544 l 2
 179 544 179 544 169.5 553.5 c 0
 160 563 160 563 160 576 c 2
 160 832 l 2
 160 845 160 845 169.5 854.5 c 0
 179 864 179 864 192 864 c 2
224 608 m 1
 416 608 l 1
 416 800 l 1
 224 800 l 1
 224 608 l 1
576 864 m 2
 832 864 l 2
 845 864 845 864 854.5 854.5 c 0
 864 845 864 845 864 832 c 2
 864 576 l 2
 864 563 864 563 854.5 553.5 c 0
 845 544 845 544 832 544 c 2
 576 544 l 2
 563 544 563 544 553.5 553.5 c 0
 544 563 544 563 544 576 c 2
 544 832 l 2
 544 845 544 845 553.5 854.5 c 0
 563 864 563 864 576 864 c 2
608 608 m 1
 800 608 l 1
 800 800 l 1
 608 800 l 1
 608 608 l 1
160 448 m 2
 160 461 160 461 169.5 470.5 c 0
 179 480 179 480 192 480 c 2
 448 480 l 2
 461 480 461 480 470.5 470.5 c 0
 480 461 480 461 480 448 c 2
 480 192 l 2
 480 179 480 179 470.5 169.5 c 0
 461 160 461 160 448 160 c 2
 192 160 l 2
 179 160 179 160 169.5 169.5 c 0
 160 179 160 179 160 192 c 2
 160 448 l 2
224 416 m 1
 224 224 l 1
 416 224 l 1
 416 416 l 1
 224 416 l 1
576 480 m 2
 832 480 l 2
 845 480 845 480 854.5 470.5 c 0
 864 461 864 461 864 448 c 2
 864 192 l 2
 864 179 864 179 854.5 169.5 c 0
 845 160 845 160 832 160 c 2
 576 160 l 2
 563 160 563 160 553.5 169.5 c 0
 544 179 544 179 544 192 c 2
 544 448 l 2
 544 461 544 461 553.5 470.5 c 0
 563 480 563 480 576 480 c 2
608 224 m 1
 800 224 l 1
 800 416 l 1
 608 416 l 1
 608 224 l 1
EndSplineSet
EndChar

